<?xml version="1.0" encoding="utf-8" standalone="no"?>
<!DOCTYPE svg PUBLIC "-//W3C//DTD SVG 1.1//EN"
  "http://www.w3.org/Graphics/SVG/1.1/DTD/svg11.dtd">
<svg xmlns:xlink="http://www.w3.org/1999/xlink" width="460.8pt" height="345.6pt" viewBox="0 0 460.8 345.6" xmlns="http://www.w3.org/2000/svg" version="1.1">
 <metadata>
  <rdf:RDF xmlns:dc="http://purl.org/dc/elements/1.1/" xmlns:cc="http://creativecommons.org/ns#" xmlns:rdf="http://www.w3.org/1999/02/22-rdf-syntax-ns#">
   <cc:Work>
    <dc:type rdf:resource="http://purl.org/dc/dcmitype/StillImage"/>
    <dc:date>2023-05-17T22:22:33.575799</dc:date>
    <dc:format>image/svg+xml</dc:format>
    <dc:creator>
     <cc:Agent>
      <dc:title>Matplotlib v3.7.1, https://matplotlib.org/</dc:title>
     </cc:Agent>
    </dc:creator>
   </cc:Work>
  </rdf:RDF>
 </metadata>
 <defs>
  <style type="text/css">*{stroke-linejoin: round; stroke-linecap: butt}</style>
 </defs>
 <g id="figure_1">
  <g id="patch_1">
   <path d="M 0 345.6 
L 460.8 345.6 
L 460.8 0 
L 0 0 
z
" style="fill: #ffffff"/>
  </g>
  <g id="axes_1">
   <g id="patch_2">
    <path d="M 10.8 334.8 
L 450 334.8 
L 450 10.8 
L 10.8 10.8 
z
" style="fill: #ffffff"/>
   </g>
   <g id="patch_3">
    <path d="M 276.916941 47.340898 
Q 214.856193 172.092172 153.293422 295.842438 
" clip-path="url(#pb9bc7efb16)" style="fill: none; stroke: #a9a9a9; stroke-linecap: round"/>
    <path d="M 156.8657 293.15193 
L 153.293422 295.842438 
L 153.284383 291.370311 
z
" clip-path="url(#pb9bc7efb16)" style="fill: #a9a9a9; stroke: #a9a9a9; stroke-linecap: round"/>
   </g>
   <g id="patch_4">
    <path d="M 149.863823 296.744921 
Q 114.923106 212.704589 80.411605 129.696621 
" clip-path="url(#pb9bc7efb16)" style="fill: none; stroke: #a9a9a9; stroke-linecap: round"/>
    <path d="M 80.10047 134.157921 
L 80.411605 129.696621 
L 83.793964 132.622309 
z
" clip-path="url(#pb9bc7efb16)" style="fill: #a9a9a9; stroke: #a9a9a9; stroke-linecap: round"/>
   </g>
   <g id="patch_5">
    <path d="M 80.163134 122.212762 
Q 98.550654 84.134141 116.452009 47.062318 
" clip-path="url(#pb9bc7efb16)" style="fill: none; stroke: #a9a9a9; stroke-linecap: round"/>
    <path d="M 112.911634 49.794669 
L 116.452009 47.062318 
L 116.513665 51.534029 
z
" clip-path="url(#pb9bc7efb16)" style="fill: #a9a9a9; stroke: #a9a9a9; stroke-linecap: round"/>
   </g>
   <g id="patch_6">
    <path d="M 121.999209 42.568495 
Q 141.475614 40.893592 159.838097 39.314483 
" clip-path="url(#pb9bc7efb16)" style="fill: none; stroke: #a9a9a9; stroke-linecap: round"/>
    <path d="M 155.681445 37.664559 
L 159.838097 39.314483 
L 156.024166 41.64985 
z
" clip-path="url(#pb9bc7efb16)" style="fill: #a9a9a9; stroke: #a9a9a9; stroke-linecap: round"/>
   </g>
   <g id="patch_7">
    <path d="M 162.480923 41.831947 
Q 106.693954 123.406692 51.538111 204.058572 
" clip-path="url(#pb9bc7efb16)" style="fill: none; stroke: #a9a9a9; stroke-linecap: round"/>
    <path d="M 55.446965 201.885818 
L 51.538111 204.058572 
L 52.145221 199.627836 
z
" clip-path="url(#pb9bc7efb16)" style="fill: #a9a9a9; stroke: #a9a9a9; stroke-linecap: round"/>
   </g>
   <g id="patch_8">
    <path d="M 260.198354 191.657806 
Q 156.317274 199.642494 53.550939 207.541498 
" clip-path="url(#pb9bc7efb16)" style="fill: none; stroke: #a9a9a9; stroke-linecap: round"/>
    <path d="M 57.692451 209.229065 
L 53.550939 207.541498 
L 57.3859 205.240829 
z
" clip-path="url(#pb9bc7efb16)" style="fill: #a9a9a9; stroke: #a9a9a9; stroke-linecap: round"/>
   </g>
   <g id="patch_9">
    <path d="M 49.519501 204.411637 
Q 58.635845 152.059555 67.560385 100.808932 
" clip-path="url(#pb9bc7efb16)" style="fill: none; stroke: #a9a9a9; stroke-linecap: round"/>
    <path d="M 64.903821 104.406523 
L 67.560385 100.808932 
L 68.84452 105.092738 
z
" clip-path="url(#pb9bc7efb16)" style="fill: #a9a9a9; stroke: #a9a9a9; stroke-linecap: round"/>
   </g>
   <g id="patch_10">
    <path d="M 205.009658 303.733053 
Q 137.656909 201.455754 70.919065 100.112208 
" clip-path="url(#pb9bc7efb16)" style="fill: none; stroke: #a9a9a9; stroke-linecap: round"/>
    <path d="M 71.448668 104.552875 
L 70.919065 100.112208 
L 74.78936 102.352926 
z
" clip-path="url(#pb9bc7efb16)" style="fill: #a9a9a9; stroke: #a9a9a9; stroke-linecap: round"/>
   </g>
   <g id="patch_11">
    <path d="M 70.90757 98.670567 
Q 174.753081 198.338618 277.791965 297.23249 
" clip-path="url(#pb9bc7efb16)" style="fill: none; stroke: #a9a9a9; stroke-linecap: round"/>
    <path d="M 276.29098 293.019766 
L 277.791965 297.23249 
L 273.521195 295.905643 
z
" clip-path="url(#pb9bc7efb16)" style="fill: #a9a9a9; stroke: #a9a9a9; stroke-linecap: round"/>
   </g>
   <g id="patch_12">
    <path d="M 277.973129 298.901375 
Q 228.107691 274.515732 179.246623 250.621256 
" clip-path="url(#pb9bc7efb16)" style="fill: none; stroke: #a9a9a9; stroke-linecap: round"/>
    <path d="M 181.961338 254.175172 
L 179.246623 250.621256 
L 183.718585 250.581833 
z
" clip-path="url(#pb9bc7efb16)" style="fill: #a9a9a9; stroke: #a9a9a9; stroke-linecap: round"/>
   </g>
   <g id="patch_13">
    <path d="M 89.509811 263.133741 
Q 236.074193 182.594133 381.658735 102.592963 
" clip-path="url(#pb9bc7efb16)" style="fill: none; stroke: #a9a9a9; stroke-linecap: round"/>
    <path d="M 377.18997 102.766548 
L 381.658735 102.592963 
L 379.116344 106.272127 
z
" clip-path="url(#pb9bc7efb16)" style="fill: #a9a9a9; stroke: #a9a9a9; stroke-linecap: round"/>
   </g>
   <g id="patch_14">
    <path d="M 384.763296 103.749732 
Q 358.90024 193.995249 333.345197 283.165996 
" clip-path="url(#pb9bc7efb16)" style="fill: none; stroke: #a9a9a9; stroke-linecap: round"/>
    <path d="M 336.369783 279.871777 
L 333.345197 283.165996 
L 332.524574 278.769796 
z
" clip-path="url(#pb9bc7efb16)" style="fill: #a9a9a9; stroke: #a9a9a9; stroke-linecap: round"/>
   </g>
   <g id="patch_15">
    <path d="M 328.776026 286.325799 
Q 190.510991 231.103914 53.284242 176.296712 
" clip-path="url(#pb9bc7efb16)" style="fill: none; stroke: #a9a9a9; stroke-linecap: round"/>
    <path d="M 56.25712 179.637669 
L 53.284242 176.296712 
L 57.740734 175.922983 
z
" clip-path="url(#pb9bc7efb16)" style="fill: #a9a9a9; stroke: #a9a9a9; stroke-linecap: round"/>
   </g>
   <g id="patch_16">
    <path d="M 210.288057 49.464221 
Q 131.022315 110.934115 52.640074 171.718862 
" clip-path="url(#pb9bc7efb16)" style="fill: none; stroke: #a9a9a9; stroke-linecap: round"/>
    <path d="M 57.026611 170.84806 
L 52.640074 171.718862 
L 54.575354 167.687151 
z
" clip-path="url(#pb9bc7efb16)" style="fill: #a9a9a9; stroke: #a9a9a9; stroke-linecap: round"/>
   </g>
   <g id="patch_17">
    <path d="M 52.43539 175.233923 
Q 213.289413 205.953825 373.045251 236.463995 
" clip-path="url(#pb9bc7efb16)" style="fill: none; stroke: #a9a9a9; stroke-linecap: round"/>
    <path d="M 369.491441 233.749141 
L 373.045251 236.463995 
L 368.741082 237.678131 
z
" clip-path="url(#pb9bc7efb16)" style="fill: #a9a9a9; stroke: #a9a9a9; stroke-linecap: round"/>
   </g>
   <g id="patch_18">
    <path d="M 353.496457 58.24841 
Q 365.319272 146.039488 376.992868 232.722535 
" clip-path="url(#pb9bc7efb16)" style="fill: none; stroke: #a9a9a9; stroke-linecap: round"/>
    <path d="M 378.441115 228.491391 
L 376.992868 232.722535 
L 374.476901 229.025251 
z
" clip-path="url(#pb9bc7efb16)" style="fill: #a9a9a9; stroke: #a9a9a9; stroke-linecap: round"/>
   </g>
   <g id="patch_19">
    <path d="M 379.849358 234.59885 
Q 394.583797 216.551063 408.611172 199.369337 
" clip-path="url(#pb9bc7efb16)" style="fill: none; stroke: #a9a9a9; stroke-linecap: round"/>
    <path d="M 404.532249 201.203018 
L 408.611172 199.369337 
L 407.630763 203.732684 
z
" clip-path="url(#pb9bc7efb16)" style="fill: #a9a9a9; stroke: #a9a9a9; stroke-linecap: round"/>
   </g>
   <g id="patch_20">
    <path d="M 408.099894 196.536901 
Q 293.309921 222.171643 179.611106 247.562709 
" clip-path="url(#pb9bc7efb16)" style="fill: none; stroke: #a9a9a9; stroke-linecap: round"/>
    <path d="M 183.950845 248.642829 
L 179.611106 247.562709 
L 183.079045 244.738989 
z
" clip-path="url(#pb9bc7efb16)" style="fill: #a9a9a9; stroke: #a9a9a9; stroke-linecap: round"/>
   </g>
   <g id="patch_21">
    <path d="M 178.236391 247.010056 
Q 293.477251 190.014515 407.715946 133.514622 
" clip-path="url(#pb9bc7efb16)" style="fill: none; stroke: #a9a9a9; stroke-linecap: round"/>
    <path d="M 403.243852 133.49518 
L 407.715946 133.514622 
L 405.017136 137.080632 
z
" clip-path="url(#pb9bc7efb16)" style="fill: #a9a9a9; stroke: #a9a9a9; stroke-linecap: round"/>
   </g>
   <g id="matplotlib.axis_1">
    <g id="xtick_1"/>
    <g id="xtick_2"/>
    <g id="xtick_3"/>
    <g id="xtick_4"/>
    <g id="xtick_5"/>
   </g>
   <g id="matplotlib.axis_2">
    <g id="ytick_1"/>
    <g id="ytick_2"/>
    <g id="ytick_3"/>
    <g id="ytick_4"/>
    <g id="ytick_5"/>
   </g>
   <g id="PathCollection_1">
    <defs>
     <path id="md1d892dd90" d="M 0 3.535534 
C 0.937635 3.535534 1.836992 3.163008 2.5 2.5 
C 3.163008 1.836992 3.535534 0.937635 3.535534 0 
C 3.535534 -0.937635 3.163008 -1.836992 2.5 -2.5 
C 1.836992 -3.163008 0.937635 -3.535534 0 -3.535534 
C -0.937635 -3.535534 -1.836992 -3.163008 -2.5 -2.5 
C -3.163008 -1.836992 -3.535534 -0.937635 -3.535534 0 
C -3.535534 0.937635 -3.163008 1.836992 -2.5 2.5 
C -1.836992 3.163008 -0.937635 3.535534 0 3.535534 
z
" style="stroke: #e0ffff"/>
    </defs>
    <g clip-path="url(#pb9bc7efb16)">
     <use xlink:href="#md1d892dd90" x="278.491905" y="44.174987" style="fill: #e0ffff; stroke: #e0ffff"/>
     <use xlink:href="#md1d892dd90" x="151.220791" y="300.008734" style="fill: #e0ffff; stroke: #e0ffff"/>
     <use xlink:href="#md1d892dd90" x="78.624697" y="125.398703" style="fill: #e0ffff; stroke: #e0ffff"/>
     <use xlink:href="#md1d892dd90" x="118.475681" y="42.871506" style="fill: #e0ffff; stroke: #e0ffff"/>
     <use xlink:href="#md1d892dd90" x="164.475272" y="38.915702" style="fill: #e0ffff; stroke: #e0ffff"/>
     <use xlink:href="#md1d892dd90" x="263.721917" y="191.386971" style="fill: #e0ffff; stroke: #e0ffff"/>
     <use xlink:href="#md1d892dd90" x="48.912397" y="207.898034" style="fill: #e0ffff; stroke: #e0ffff"/>
     <use xlink:href="#md1d892dd90" x="206.953143" y="306.684298" style="fill: #e0ffff; stroke: #e0ffff"/>
     <use xlink:href="#md1d892dd90" x="68.358737" y="96.224267" style="fill: #e0ffff; stroke: #e0ffff"/>
     <use xlink:href="#md1d892dd90" x="281.148975" y="300.454456" style="fill: #e0ffff; stroke: #e0ffff"/>
     <use xlink:href="#md1d892dd90" x="86.41086" y="264.836667" style="fill: #e0ffff; stroke: #e0ffff"/>
     <use xlink:href="#md1d892dd90" x="385.737082" y="100.351842" style="fill: #e0ffff; stroke: #e0ffff"/>
     <use xlink:href="#md1d892dd90" x="332.063374" y="287.638739" style="fill: #e0ffff; stroke: #e0ffff"/>
     <use xlink:href="#md1d892dd90" x="213.080281" y="47.298875" style="fill: #e0ffff; stroke: #e0ffff"/>
     <use xlink:href="#md1d892dd90" x="48.962623" y="174.570694" style="fill: #e0ffff; stroke: #e0ffff"/>
     <use xlink:href="#md1d892dd90" x="353.024825" y="54.746273" style="fill: #e0ffff; stroke: #e0ffff"/>
     <use xlink:href="#md1d892dd90" x="377.614241" y="237.336581" style="fill: #e0ffff; stroke: #e0ffff"/>
     <use xlink:href="#md1d892dd90" x="411.553218" y="195.76571" style="fill: #e0ffff; stroke: #e0ffff"/>
     <use xlink:href="#md1d892dd90" x="175.067272" y="248.577432" style="fill: #e0ffff; stroke: #e0ffff"/>
     <use xlink:href="#md1d892dd90" x="411.887603" y="131.451414" style="fill: #e0ffff; stroke: #e0ffff"/>
    </g>
   </g>
   <g id="patch_22">
    <path d="M 10.8 334.8 
L 10.8 10.8 
" style="fill: none; stroke: #000000; stroke-width: 0.8; stroke-linejoin: miter; stroke-linecap: square"/>
   </g>
   <g id="patch_23">
    <path d="M 450 334.8 
L 450 10.8 
" style="fill: none; stroke: #000000; stroke-width: 0.8; stroke-linejoin: miter; stroke-linecap: square"/>
   </g>
   <g id="patch_24">
    <path d="M 10.8 334.8 
L 450 334.8 
" style="fill: none; stroke: #000000; stroke-width: 0.8; stroke-linejoin: miter; stroke-linecap: square"/>
   </g>
   <g id="patch_25">
    <path d="M 10.8 10.8 
L 450 10.8 
" style="fill: none; stroke: #000000; stroke-width: 0.8; stroke-linejoin: miter; stroke-linecap: square"/>
   </g>
   <g id="text_1">
    <g clip-path="url(#pb9bc7efb16)">
     <!-- 0 -->
     <g transform="translate(278.17378 44.450924) scale(0.01 -0.01)">
      <defs>
       <path id="DejaVuSans-30" d="M 2034 4250 
Q 1547 4250 1301 3770 
Q 1056 3291 1056 2328 
Q 1056 1369 1301 889 
Q 1547 409 2034 409 
Q 2525 409 2770 889 
Q 3016 1369 3016 2328 
Q 3016 3291 2770 3770 
Q 2525 4250 2034 4250 
z
M 2034 4750 
Q 2819 4750 3233 4129 
Q 3647 3509 3647 2328 
Q 3647 1150 3233 529 
Q 2819 -91 2034 -91 
Q 1250 -91 836 529 
Q 422 1150 422 2328 
Q 422 3509 836 4129 
Q 1250 4750 2034 4750 
z
" transform="scale(0.015625)"/>
      </defs>
      <use xlink:href="#DejaVuSans-30"/>
     </g>
    </g>
   </g>
   <g id="text_2">
    <g clip-path="url(#pb9bc7efb16)">
     <!-- 1 -->
     <g transform="translate(150.902666 300.284672) scale(0.01 -0.01)">
      <defs>
       <path id="DejaVuSans-31" d="M 794 531 
L 1825 531 
L 1825 4091 
L 703 3866 
L 703 4441 
L 1819 4666 
L 2450 4666 
L 2450 531 
L 3481 531 
L 3481 0 
L 794 0 
L 794 531 
z
" transform="scale(0.015625)"/>
      </defs>
      <use xlink:href="#DejaVuSans-31"/>
     </g>
    </g>
   </g>
   <g id="text_3">
    <g clip-path="url(#pb9bc7efb16)">
     <!-- 2 -->
     <g transform="translate(78.306572 125.67464) scale(0.01 -0.01)">
      <defs>
       <path id="DejaVuSans-32" d="M 1228 531 
L 3431 531 
L 3431 0 
L 469 0 
L 469 531 
Q 828 903 1448 1529 
Q 2069 2156 2228 2338 
Q 2531 2678 2651 2914 
Q 2772 3150 2772 3378 
Q 2772 3750 2511 3984 
Q 2250 4219 1831 4219 
Q 1534 4219 1204 4116 
Q 875 4013 500 3803 
L 500 4441 
Q 881 4594 1212 4672 
Q 1544 4750 1819 4750 
Q 2544 4750 2975 4387 
Q 3406 4025 3406 3419 
Q 3406 3131 3298 2873 
Q 3191 2616 2906 2266 
Q 2828 2175 2409 1742 
Q 1991 1309 1228 531 
z
" transform="scale(0.015625)"/>
      </defs>
      <use xlink:href="#DejaVuSans-32"/>
     </g>
    </g>
   </g>
   <g id="text_4">
    <g clip-path="url(#pb9bc7efb16)">
     <!-- 3 -->
     <g transform="translate(118.157556 43.147444) scale(0.01 -0.01)">
      <defs>
       <path id="DejaVuSans-33" d="M 2597 2516 
Q 3050 2419 3304 2112 
Q 3559 1806 3559 1356 
Q 3559 666 3084 287 
Q 2609 -91 1734 -91 
Q 1441 -91 1130 -33 
Q 819 25 488 141 
L 488 750 
Q 750 597 1062 519 
Q 1375 441 1716 441 
Q 2309 441 2620 675 
Q 2931 909 2931 1356 
Q 2931 1769 2642 2001 
Q 2353 2234 1838 2234 
L 1294 2234 
L 1294 2753 
L 1863 2753 
Q 2328 2753 2575 2939 
Q 2822 3125 2822 3475 
Q 2822 3834 2567 4026 
Q 2313 4219 1838 4219 
Q 1578 4219 1281 4162 
Q 984 4106 628 3988 
L 628 4550 
Q 988 4650 1302 4700 
Q 1616 4750 1894 4750 
Q 2613 4750 3031 4423 
Q 3450 4097 3450 3541 
Q 3450 3153 3228 2886 
Q 3006 2619 2597 2516 
z
" transform="scale(0.015625)"/>
      </defs>
      <use xlink:href="#DejaVuSans-33"/>
     </g>
    </g>
   </g>
   <g id="text_5">
    <g clip-path="url(#pb9bc7efb16)">
     <!-- 4 -->
     <g transform="translate(164.157147 39.19164) scale(0.01 -0.01)">
      <defs>
       <path id="DejaVuSans-34" d="M 2419 4116 
L 825 1625 
L 2419 1625 
L 2419 4116 
z
M 2253 4666 
L 3047 4666 
L 3047 1625 
L 3713 1625 
L 3713 1100 
L 3047 1100 
L 3047 0 
L 2419 0 
L 2419 1100 
L 313 1100 
L 313 1709 
L 2253 4666 
z
" transform="scale(0.015625)"/>
      </defs>
      <use xlink:href="#DejaVuSans-34"/>
     </g>
    </g>
   </g>
   <g id="text_6">
    <g clip-path="url(#pb9bc7efb16)">
     <!-- 5 -->
     <g transform="translate(263.403792 191.662909) scale(0.01 -0.01)">
      <defs>
       <path id="DejaVuSans-35" d="M 691 4666 
L 3169 4666 
L 3169 4134 
L 1269 4134 
L 1269 2991 
Q 1406 3038 1543 3061 
Q 1681 3084 1819 3084 
Q 2600 3084 3056 2656 
Q 3513 2228 3513 1497 
Q 3513 744 3044 326 
Q 2575 -91 1722 -91 
Q 1428 -91 1123 -41 
Q 819 9 494 109 
L 494 744 
Q 775 591 1075 516 
Q 1375 441 1709 441 
Q 2250 441 2565 725 
Q 2881 1009 2881 1497 
Q 2881 1984 2565 2268 
Q 2250 2553 1709 2553 
Q 1456 2553 1204 2497 
Q 953 2441 691 2322 
L 691 4666 
z
" transform="scale(0.015625)"/>
      </defs>
      <use xlink:href="#DejaVuSans-35"/>
     </g>
    </g>
   </g>
   <g id="text_7">
    <g clip-path="url(#pb9bc7efb16)">
     <!-- 6 -->
     <g transform="translate(48.594272 208.173971) scale(0.01 -0.01)">
      <defs>
       <path id="DejaVuSans-36" d="M 2113 2584 
Q 1688 2584 1439 2293 
Q 1191 2003 1191 1497 
Q 1191 994 1439 701 
Q 1688 409 2113 409 
Q 2538 409 2786 701 
Q 3034 994 3034 1497 
Q 3034 2003 2786 2293 
Q 2538 2584 2113 2584 
z
M 3366 4563 
L 3366 3988 
Q 3128 4100 2886 4159 
Q 2644 4219 2406 4219 
Q 1781 4219 1451 3797 
Q 1122 3375 1075 2522 
Q 1259 2794 1537 2939 
Q 1816 3084 2150 3084 
Q 2853 3084 3261 2657 
Q 3669 2231 3669 1497 
Q 3669 778 3244 343 
Q 2819 -91 2113 -91 
Q 1303 -91 875 529 
Q 447 1150 447 2328 
Q 447 3434 972 4092 
Q 1497 4750 2381 4750 
Q 2619 4750 2861 4703 
Q 3103 4656 3366 4563 
z
" transform="scale(0.015625)"/>
      </defs>
      <use xlink:href="#DejaVuSans-36"/>
     </g>
    </g>
   </g>
   <g id="text_8">
    <g clip-path="url(#pb9bc7efb16)">
     <!-- 7 -->
     <g transform="translate(206.635018 306.960235) scale(0.01 -0.01)">
      <defs>
       <path id="DejaVuSans-37" d="M 525 4666 
L 3525 4666 
L 3525 4397 
L 1831 0 
L 1172 0 
L 2766 4134 
L 525 4134 
L 525 4666 
z
" transform="scale(0.015625)"/>
      </defs>
      <use xlink:href="#DejaVuSans-37"/>
     </g>
    </g>
   </g>
   <g id="text_9">
    <g clip-path="url(#pb9bc7efb16)">
     <!-- 8 -->
     <g transform="translate(68.040612 96.500205) scale(0.01 -0.01)">
      <defs>
       <path id="DejaVuSans-38" d="M 2034 2216 
Q 1584 2216 1326 1975 
Q 1069 1734 1069 1313 
Q 1069 891 1326 650 
Q 1584 409 2034 409 
Q 2484 409 2743 651 
Q 3003 894 3003 1313 
Q 3003 1734 2745 1975 
Q 2488 2216 2034 2216 
z
M 1403 2484 
Q 997 2584 770 2862 
Q 544 3141 544 3541 
Q 544 4100 942 4425 
Q 1341 4750 2034 4750 
Q 2731 4750 3128 4425 
Q 3525 4100 3525 3541 
Q 3525 3141 3298 2862 
Q 3072 2584 2669 2484 
Q 3125 2378 3379 2068 
Q 3634 1759 3634 1313 
Q 3634 634 3220 271 
Q 2806 -91 2034 -91 
Q 1263 -91 848 271 
Q 434 634 434 1313 
Q 434 1759 690 2068 
Q 947 2378 1403 2484 
z
M 1172 3481 
Q 1172 3119 1398 2916 
Q 1625 2713 2034 2713 
Q 2441 2713 2670 2916 
Q 2900 3119 2900 3481 
Q 2900 3844 2670 4047 
Q 2441 4250 2034 4250 
Q 1625 4250 1398 4047 
Q 1172 3844 1172 3481 
z
" transform="scale(0.015625)"/>
      </defs>
      <use xlink:href="#DejaVuSans-38"/>
     </g>
    </g>
   </g>
   <g id="text_10">
    <g clip-path="url(#pb9bc7efb16)">
     <!-- 9 -->
     <g transform="translate(280.83085 300.730393) scale(0.01 -0.01)">
      <defs>
       <path id="DejaVuSans-39" d="M 703 97 
L 703 672 
Q 941 559 1184 500 
Q 1428 441 1663 441 
Q 2288 441 2617 861 
Q 2947 1281 2994 2138 
Q 2813 1869 2534 1725 
Q 2256 1581 1919 1581 
Q 1219 1581 811 2004 
Q 403 2428 403 3163 
Q 403 3881 828 4315 
Q 1253 4750 1959 4750 
Q 2769 4750 3195 4129 
Q 3622 3509 3622 2328 
Q 3622 1225 3098 567 
Q 2575 -91 1691 -91 
Q 1453 -91 1209 -44 
Q 966 3 703 97 
z
M 1959 2075 
Q 2384 2075 2632 2365 
Q 2881 2656 2881 3163 
Q 2881 3666 2632 3958 
Q 2384 4250 1959 4250 
Q 1534 4250 1286 3958 
Q 1038 3666 1038 3163 
Q 1038 2656 1286 2365 
Q 1534 2075 1959 2075 
z
" transform="scale(0.015625)"/>
      </defs>
      <use xlink:href="#DejaVuSans-39"/>
     </g>
    </g>
   </g>
   <g id="text_11">
    <g clip-path="url(#pb9bc7efb16)">
     <!-- 10 -->
     <g transform="translate(85.77461 265.112604) scale(0.01 -0.01)">
      <use xlink:href="#DejaVuSans-31"/>
      <use xlink:href="#DejaVuSans-30" x="63.623047"/>
     </g>
    </g>
   </g>
   <g id="text_12">
    <g clip-path="url(#pb9bc7efb16)">
     <!-- 11 -->
     <g transform="translate(385.100832 100.62778) scale(0.01 -0.01)">
      <use xlink:href="#DejaVuSans-31"/>
      <use xlink:href="#DejaVuSans-31" x="63.623047"/>
     </g>
    </g>
   </g>
   <g id="text_13">
    <g clip-path="url(#pb9bc7efb16)">
     <!-- 12 -->
     <g transform="translate(331.427124 287.914676) scale(0.01 -0.01)">
      <use xlink:href="#DejaVuSans-31"/>
      <use xlink:href="#DejaVuSans-32" x="63.623047"/>
     </g>
    </g>
   </g>
   <g id="text_14">
    <g clip-path="url(#pb9bc7efb16)">
     <!-- 13 -->
     <g transform="translate(212.444031 47.574813) scale(0.01 -0.01)">
      <use xlink:href="#DejaVuSans-31"/>
      <use xlink:href="#DejaVuSans-33" x="63.623047"/>
     </g>
    </g>
   </g>
   <g id="text_15">
    <g clip-path="url(#pb9bc7efb16)">
     <!-- 14 -->
     <g transform="translate(48.326373 174.846632) scale(0.01 -0.01)">
      <use xlink:href="#DejaVuSans-31"/>
      <use xlink:href="#DejaVuSans-34" x="63.623047"/>
     </g>
    </g>
   </g>
   <g id="text_16">
    <g clip-path="url(#pb9bc7efb16)">
     <!-- 15 -->
     <g transform="translate(352.388575 55.022211) scale(0.01 -0.01)">
      <use xlink:href="#DejaVuSans-31"/>
      <use xlink:href="#DejaVuSans-35" x="63.623047"/>
     </g>
    </g>
   </g>
   <g id="text_17">
    <g clip-path="url(#pb9bc7efb16)">
     <!-- 16 -->
     <g transform="translate(376.977991 237.612518) scale(0.01 -0.01)">
      <use xlink:href="#DejaVuSans-31"/>
      <use xlink:href="#DejaVuSans-36" x="63.623047"/>
     </g>
    </g>
   </g>
   <g id="text_18">
    <g clip-path="url(#pb9bc7efb16)">
     <!-- 17 -->
     <g transform="translate(410.916968 196.041647) scale(0.01 -0.01)">
      <use xlink:href="#DejaVuSans-31"/>
      <use xlink:href="#DejaVuSans-37" x="63.623047"/>
     </g>
    </g>
   </g>
   <g id="text_19">
    <g clip-path="url(#pb9bc7efb16)">
     <!-- 18 -->
     <g transform="translate(174.431022 248.853369) scale(0.01 -0.01)">
      <use xlink:href="#DejaVuSans-31"/>
      <use xlink:href="#DejaVuSans-38" x="63.623047"/>
     </g>
    </g>
   </g>
   <g id="text_20">
    <g clip-path="url(#pb9bc7efb16)">
     <!-- 19 -->
     <g transform="translate(411.251353 131.727351) scale(0.01 -0.01)">
      <use xlink:href="#DejaVuSans-31"/>
      <use xlink:href="#DejaVuSans-39" x="63.623047"/>
     </g>
    </g>
   </g>
   <g id="text_21">
    <g clip-path="url(#pb9bc7efb16)">
     <!-- 「言語の -->
     <g transform="translate(254.491905 47.529362) scale(0.12 -0.12)">
      <defs>
       <path id="IPAexGothic-300c" d="M 4134 5300 
L 5875 5300 
L 5875 4853 
L 4581 4853 
L 4581 656 
L 4134 656 
L 4134 5300 
z
" transform="scale(0.015625)"/>
       <path id="IPAexGothic-8a00" d="M 5272 1619 
L 5272 -447 
L 4797 -447 
L 4797 -116 
L 1594 -116 
L 1594 -447 
L 1119 -447 
L 1119 1619 
L 5272 1619 
z
M 1594 1234 
L 1594 269 
L 4797 269 
L 4797 1234 
L 1594 1234 
z
M 1344 4978 
L 5050 4978 
L 5050 4588 
L 1344 4588 
L 1344 4978 
z
M 447 4147 
L 5950 4147 
L 5950 3738 
L 447 3738 
L 447 4147 
z
M 1344 3297 
L 5050 3297 
L 5050 2900 
L 1344 2900 
L 1344 3297 
z
M 1344 2456 
L 5050 2456 
L 5050 2059 
L 1344 2059 
L 1344 2456 
z
" transform="scale(0.015625)"/>
       <path id="IPAexGothic-8a9e" d="M 2388 1684 
L 2388 -128 
L 959 -128 
L 959 -447 
L 538 -447 
L 538 1684 
L 2388 1684 
z
M 959 1313 
L 959 244 
L 1966 244 
L 1966 1313 
L 959 1313 
z
M 4306 4659 
Q 4244 4128 4206 3903 
L 5459 3903 
L 5459 2606 
L 6106 2606 
L 6106 2222 
L 2541 2222 
L 2541 2606 
L 3522 2606 
Q 3528 2641 3688 3416 
L 3706 3531 
L 2881 3531 
L 2881 3903 
L 3769 3903 
Q 3775 3916 3775 3947 
Q 3831 4259 3884 4659 
L 2753 4659 
L 2753 5044 
L 5791 5044 
L 5791 4659 
L 4306 4659 
z
M 5044 3531 
L 4141 3531 
Q 4013 2834 3963 2606 
L 5044 2606 
L 5044 3531 
z
M 5606 1625 
L 5606 -447 
L 5178 -447 
L 5178 -134 
L 3419 -134 
L 3419 -453 
L 2991 -453 
L 2991 1625 
L 5606 1625 
z
M 3419 1253 
L 3419 238 
L 5178 238 
L 5178 1253 
L 3419 1253 
z
M 634 5044 
L 2294 5044 
L 2294 4659 
L 634 4659 
L 634 5044 
z
M 347 4206 
L 2550 4206 
L 2550 3816 
L 347 3816 
L 347 4206 
z
M 634 3359 
L 2294 3359 
L 2294 2975 
L 634 2975 
L 634 3359 
z
M 634 2522 
L 2294 2522 
L 2294 2138 
L 634 2138 
L 634 2522 
z
" transform="scale(0.015625)"/>
       <path id="IPAexGothic-306e" d="M 3119 469 
Q 5275 766 5275 2425 
Q 5275 3453 4413 3925 
Q 4041 4116 3547 4159 
Q 3394 2525 2850 1400 
Q 2322 306 1722 306 
Q 1384 306 1084 666 
Q 609 1244 609 2003 
Q 609 3025 1397 3794 
Q 2184 4563 3431 4563 
Q 4306 4563 4928 4122 
Q 5813 3506 5813 2425 
Q 5813 438 3431 6 
L 3119 469 
z
M 3053 4147 
Q 2378 4044 1891 3641 
Q 1097 2981 1097 1991 
Q 1097 1366 1434 978 
Q 1581 813 1719 813 
Q 2022 813 2416 1625 
Q 2909 2638 3053 4147 
z
" transform="scale(0.015625)"/>
      </defs>
      <use xlink:href="#IPAexGothic-300c"/>
      <use xlink:href="#IPAexGothic-8a00" x="100"/>
      <use xlink:href="#IPAexGothic-8a9e" x="200"/>
      <use xlink:href="#IPAexGothic-306e" x="300"/>
     </g>
    </g>
   </g>
   <g id="text_22">
    <g clip-path="url(#pb9bc7efb16)">
     <!-- 理解や -->
     <g transform="translate(133.220791 303.363109) scale(0.12 -0.12)">
      <defs>
       <path id="IPAexGothic-7406" d="M 1541 4397 
L 1541 3084 
L 2219 3084 
L 2219 2688 
L 1541 2688 
L 1541 1247 
Q 1919 1356 2397 1522 
L 2431 1144 
Q 1353 713 434 472 
L 263 909 
Q 763 1025 1113 1119 
L 1113 2688 
L 441 2688 
L 441 3084 
L 1113 3084 
L 1113 4397 
L 369 4397 
L 369 4800 
L 2347 4800 
L 2347 4397 
L 1541 4397 
z
M 5691 4991 
L 5691 2106 
L 4378 2106 
L 4378 1375 
L 5825 1375 
L 5825 984 
L 4378 984 
L 4378 206 
L 6081 206 
L 6081 -191 
L 2150 -191 
L 2150 206 
L 3944 206 
L 3944 984 
L 2559 984 
L 2559 1375 
L 3944 1375 
L 3944 2106 
L 2675 2106 
L 2675 4991 
L 5691 4991 
z
M 3091 4606 
L 3091 3750 
L 3956 3750 
L 3956 4606 
L 3091 4606 
z
M 3091 3378 
L 3091 2491 
L 3956 2491 
L 3956 3378 
L 3091 3378 
z
M 5275 2491 
L 5275 3378 
L 4366 3378 
L 4366 2491 
L 5275 2491 
z
M 5275 3750 
L 5275 4606 
L 4366 4606 
L 4366 3750 
L 5275 3750 
z
" transform="scale(0.015625)"/>
       <path id="IPAexGothic-89e3" d="M 4538 2222 
L 4538 2906 
L 4953 2906 
L 4953 2222 
L 5850 2222 
L 5850 1850 
L 4953 1850 
L 4953 1159 
L 6072 1159 
L 6072 775 
L 4953 775 
L 4953 -447 
L 4538 -447 
L 4538 775 
L 3303 775 
L 3303 1159 
L 4538 1159 
L 4538 1850 
L 3897 1850 
Q 3781 1528 3622 1269 
L 3303 1544 
Q 3600 2072 3706 2734 
L 4103 2663 
Q 4053 2416 4006 2222 
L 4538 2222 
z
M 2394 3803 
L 3141 3803 
L 3141 63 
Q 3141 -213 3006 -306 
Q 2900 -384 2622 -384 
Q 2250 -384 1919 -341 
L 1853 103 
Q 2278 31 2547 31 
Q 2744 31 2744 213 
L 2744 1319 
L 1241 1319 
Q 1191 303 722 -513 
L 394 -178 
Q 863 566 863 1869 
L 863 3181 
Q 738 3000 516 2741 
L 281 3094 
Q 1106 4053 1363 5319 
L 1797 5238 
Q 1747 5044 1719 4959 
L 1700 4891 
L 2653 4891 
L 2853 4684 
Q 2653 4238 2394 3803 
z
M 1809 3450 
L 1259 3450 
L 1259 2747 
L 1809 2747 
L 1809 3450 
z
M 2175 3450 
L 2175 2747 
L 2744 2747 
L 2744 3450 
L 2175 3450 
z
M 1809 2406 
L 1259 2406 
L 1259 1672 
L 1809 1672 
L 1809 2406 
z
M 2175 2406 
L 2175 1672 
L 2744 1672 
L 2744 2406 
L 2175 2406 
z
M 1969 3803 
Q 2172 4141 2322 4531 
L 1572 4531 
Q 1409 4100 1247 3803 
L 1969 3803 
z
M 4622 4594 
Q 4534 3469 3597 2897 
L 3297 3225 
Q 4088 3625 4191 4594 
L 3316 4594 
L 3316 4978 
L 5844 4978 
Q 5813 3791 5734 3422 
Q 5688 3194 5556 3103 
Q 5444 3031 5184 3031 
Q 4863 3031 4556 3078 
L 4500 3475 
Q 4819 3422 5044 3422 
Q 5266 3422 5313 3600 
Q 5372 3831 5400 4594 
L 4622 4594 
z
" transform="scale(0.015625)"/>
       <path id="IPAexGothic-3084" d="M 525 2728 
Q 1247 2991 1813 3181 
Q 1419 4091 1247 4456 
L 1709 4641 
Q 1916 4206 2278 3341 
Q 3872 3866 4488 3866 
Q 5031 3866 5372 3628 
Q 5794 3350 5794 2822 
Q 5794 1616 3653 1491 
L 3463 1941 
Q 5294 2006 5294 2822 
Q 5294 3463 4444 3463 
Q 3906 3463 2438 2950 
Q 3056 1413 3528 -141 
L 3047 -306 
Q 2578 1281 1978 2784 
Q 1428 2578 722 2284 
L 525 2728 
z
M 3675 4013 
Q 3197 4472 2619 4794 
L 2925 5125 
Q 3541 4809 4013 4384 
L 3675 4013 
z
" transform="scale(0.015625)"/>
      </defs>
      <use xlink:href="#IPAexGothic-7406"/>
      <use xlink:href="#IPAexGothic-89e3" x="100"/>
      <use xlink:href="#IPAexGothic-3084" x="200"/>
     </g>
    </g>
   </g>
   <g id="text_23">
    <g clip-path="url(#pb9bc7efb16)">
     <!-- 推論、 -->
     <g transform="translate(60.624697 128.753078) scale(0.12 -0.12)">
      <defs>
       <path id="IPAexGothic-63a8" d="M 3244 4063 
L 4244 4063 
Q 4481 4578 4653 5228 
L 5125 5100 
Q 4913 4484 4691 4063 
L 5906 4063 
L 5906 3666 
L 4647 3666 
L 4647 2822 
L 5747 2822 
L 5747 2438 
L 4647 2438 
L 4647 1594 
L 5747 1594 
L 5747 1216 
L 4647 1216 
L 4647 319 
L 6047 319 
L 6047 -91 
L 3244 -91 
L 3244 -481 
L 2816 -481 
L 2816 3188 
L 2791 3128 
Q 2581 2744 2366 2463 
L 2084 2797 
Q 2813 3728 3166 5284 
L 3616 5144 
Q 3431 4500 3244 4063 
z
M 3244 319 
L 4231 319 
L 4231 1216 
L 3244 1216 
L 3244 319 
z
M 3244 1594 
L 4231 1594 
L 4231 2438 
L 3244 2438 
L 3244 1594 
z
M 3244 2822 
L 4231 2822 
L 4231 3666 
L 3244 3666 
L 3244 2822 
z
M 1184 4084 
L 1184 5313 
L 1613 5313 
L 1613 4084 
L 2328 4084 
L 2328 3669 
L 1613 3669 
L 1613 2241 
Q 1997 2341 2334 2453 
L 2359 2069 
Q 1809 1884 1631 1831 
L 1613 1825 
L 1613 44 
Q 1613 -197 1522 -294 
Q 1413 -403 1081 -403 
Q 738 -403 519 -366 
L 441 97 
Q 741 38 978 38 
Q 1184 38 1184 219 
L 1184 1703 
L 1147 1697 
Q 734 1581 409 1509 
L 275 1941 
Q 722 2022 1138 2119 
Q 1147 2122 1166 2125 
Q 1178 2128 1184 2131 
L 1184 3669 
L 372 3669 
L 372 4084 
L 1184 4084 
z
" transform="scale(0.015625)"/>
       <path id="IPAexGothic-8ad6" d="M 2181 1684 
L 2181 -128 
L 894 -128 
L 894 -447 
L 484 -447 
L 484 1684 
L 2181 1684 
z
M 894 1313 
L 894 244 
L 1772 244 
L 1772 1313 
L 894 1313 
z
M 5063 3584 
L 5063 3250 
L 3334 3250 
L 3334 3566 
Q 3003 3200 2516 2828 
L 2219 3153 
Q 3372 3916 3844 5241 
L 4338 5241 
Q 5019 4022 6163 3300 
L 5888 2909 
Q 5463 3191 5063 3584 
z
M 3384 3622 
L 5022 3622 
Q 4466 4191 4116 4806 
Q 3850 4156 3384 3622 
z
M 5747 2778 
L 5747 6 
Q 5747 -397 5331 -397 
Q 5138 -397 4966 -372 
L 4909 63 
Q 5072 25 5203 25 
Q 5338 25 5338 206 
L 5338 1197 
L 4794 1197 
L 4794 -288 
L 4409 -288 
L 4409 1197 
L 3903 1197 
L 3903 -288 
L 3519 -288 
L 3519 1197 
L 3006 1197 
L 3006 -447 
L 2603 -447 
L 2603 2778 
L 5747 2778 
z
M 3006 2400 
L 3006 1550 
L 3519 1550 
L 3519 2400 
L 3006 2400 
z
M 5338 1550 
L 5338 2400 
L 4794 2400 
L 4794 1550 
L 5338 1550 
z
M 3903 2400 
L 3903 1550 
L 4409 1550 
L 4409 2400 
L 3903 2400 
z
M 569 5044 
L 2097 5044 
L 2097 4659 
L 569 4659 
L 569 5044 
z
M 313 4206 
L 2366 4206 
L 2366 3816 
L 313 3816 
L 313 4206 
z
M 569 3359 
L 2097 3359 
L 2097 2975 
L 569 2975 
L 569 3359 
z
M 569 2522 
L 2097 2522 
L 2097 2138 
L 569 2138 
L 569 2522 
z
" transform="scale(0.015625)"/>
       <path id="IPAexGothic-3001" d="M 1325 -409 
Q 859 319 281 856 
L 691 1209 
Q 1225 734 1772 -25 
L 1325 -409 
z
" transform="scale(0.015625)"/>
      </defs>
      <use xlink:href="#IPAexGothic-63a8"/>
      <use xlink:href="#IPAexGothic-8ad6" x="100"/>
      <use xlink:href="#IPAexGothic-3001" x="200"/>
     </g>
    </g>
   </g>
   <g id="text_24">
    <g clip-path="url(#pb9bc7efb16)">
     <!-- 問題解決などの -->
     <g transform="translate(76.475681 46.225881) scale(0.12 -0.12)">
      <defs>
       <path id="IPAexGothic-554f" d="M 4384 2291 
L 4384 525 
L 2400 525 
L 2400 172 
L 1972 172 
L 1972 2291 
L 4384 2291 
z
M 3956 1919 
L 2400 1919 
L 2400 897 
L 3956 897 
L 3956 1919 
z
M 2913 4984 
L 2913 2884 
L 1094 2884 
L 1094 -450 
L 641 -450 
L 641 4984 
L 2913 4984 
z
M 1094 4606 
L 1094 4109 
L 2497 4109 
L 2497 4606 
L 1094 4606 
z
M 1094 3769 
L 1094 3250 
L 2497 3250 
L 2497 3769 
L 1094 3769 
z
M 5753 4984 
L 5753 91 
Q 5753 -403 5244 -403 
Q 4875 -403 4444 -366 
L 4366 97 
Q 4750 38 5063 38 
Q 5300 38 5300 281 
L 5300 2884 
L 3444 2884 
L 3444 4984 
L 5753 4984 
z
M 3859 4606 
L 3859 4109 
L 5300 4109 
L 5300 4606 
L 3859 4606 
z
M 3859 3769 
L 3859 3250 
L 5300 3250 
L 5300 3769 
L 3859 3769 
z
" transform="scale(0.015625)"/>
       <path id="IPAexGothic-984c" d="M 2056 300 
Q 2556 63 3925 63 
Q 4719 63 6159 141 
Q 6063 -128 6038 -325 
Q 4956 -366 4322 -366 
Q 2675 -366 2100 -169 
Q 1500 34 1038 697 
Q 850 -3 547 -494 
L 206 -153 
Q 734 700 841 1963 
L 1244 1881 
Q 1203 1506 1147 1150 
Q 1350 809 1647 563 
L 1647 2309 
L 322 2309 
L 322 2688 
L 3219 2688 
L 3219 2309 
L 2056 2309 
L 2056 1619 
L 3053 1619 
L 3053 1234 
L 2056 1234 
L 2056 300 
z
M 4575 4122 
L 5734 4122 
L 5734 1269 
L 3431 1269 
L 3431 4122 
L 4184 4122 
Q 4269 4400 4313 4716 
L 3122 4716 
L 3122 5088 
L 5984 5088 
L 5984 4716 
L 4756 4716 
Q 4659 4356 4575 4122 
z
M 5331 3769 
L 3834 3769 
L 3834 3284 
L 5331 3284 
L 5331 3769 
z
M 3834 2959 
L 3834 2472 
L 5331 2472 
L 5331 2959 
L 3834 2959 
z
M 3834 2147 
L 3834 1628 
L 5331 1628 
L 5331 2147 
L 3834 2147 
z
M 2894 5088 
L 2894 3103 
L 653 3103 
L 653 5088 
L 2894 5088 
z
M 1056 4728 
L 1056 4269 
L 2491 4269 
L 2491 4728 
L 1056 4728 
z
M 1056 3928 
L 1056 3450 
L 2491 3450 
L 2491 3928 
L 1056 3928 
z
M 2925 481 
Q 3553 809 3931 1222 
L 4275 997 
Q 3825 481 3241 159 
L 2925 481 
z
M 5734 225 
Q 5366 594 4781 978 
L 5050 1241 
Q 5641 891 6056 550 
L 5734 225 
z
" transform="scale(0.015625)"/>
       <path id="IPAexGothic-6c7a" d="M 4116 2081 
Q 4659 809 6003 84 
L 5656 -338 
Q 4281 500 3775 1884 
Q 3766 1853 3756 1806 
Q 3497 394 2078 -441 
L 1738 -38 
Q 3138 625 3391 2081 
L 1969 2081 
L 1969 2497 
L 3422 2497 
L 3422 3750 
L 2322 3750 
L 2322 4153 
L 3422 4153 
L 3422 5313 
L 3891 5313 
L 3891 4153 
L 5234 4153 
L 5234 2497 
L 6003 2497 
L 6003 2081 
L 4116 2081 
z
M 4788 3750 
L 3891 3750 
L 3891 2497 
L 4788 2497 
L 4788 3750 
z
M 1691 3769 
Q 1203 4344 703 4709 
L 1025 5044 
Q 1544 4675 2022 4147 
L 1691 3769 
z
M 1453 2278 
Q 1016 2772 441 3206 
L 756 3547 
Q 1278 3188 1778 2656 
L 1453 2278 
z
M 391 19 
Q 1063 800 1613 1966 
L 1966 1656 
Q 1394 428 750 -397 
L 391 19 
z
" transform="scale(0.015625)"/>
       <path id="IPAexGothic-306a" d="M 3906 3147 
L 4372 3147 
Q 4381 2278 4444 1272 
Q 5244 1003 5838 631 
L 5556 222 
Q 4953 600 4463 813 
Q 4478 263 4234 22 
Q 3984 -225 3419 -225 
Q 2897 -225 2563 0 
Q 2216 231 2216 647 
Q 2216 1081 2656 1319 
Q 2959 1484 3297 1484 
Q 3638 1484 3969 1413 
Q 3916 2219 3906 3147 
z
M 3975 984 
Q 3631 1081 3297 1081 
Q 3031 1081 2856 978 
Q 2663 863 2663 653 
Q 2663 197 3400 197 
Q 3750 197 3875 378 
Q 3997 556 3975 984 
z
M 738 3928 
Q 1453 3884 1997 3938 
Q 2144 4381 2294 5125 
L 2784 5050 
Q 2684 4559 2516 3988 
Q 2969 4031 3559 4172 
L 3578 3713 
Q 2919 3575 2375 3531 
Q 1853 2028 1044 831 
L 603 1113 
Q 1325 2063 1856 3488 
Q 1063 3459 763 3475 
L 738 3928 
z
M 5538 2759 
Q 5000 3353 4263 3853 
L 4591 4191 
Q 5338 3728 5897 3128 
L 5538 2759 
z
" transform="scale(0.015625)"/>
       <path id="IPAexGothic-3069" d="M 5222 56 
Q 4200 -72 3450 -72 
Q 2478 -72 1941 113 
Q 1184 372 1184 1038 
Q 1184 1584 1594 2009 
Q 1941 2369 2656 2725 
Q 2231 3734 1972 4878 
L 2491 4978 
Q 2706 3884 3078 2950 
Q 4250 3447 4756 3616 
L 4978 3150 
Q 3181 2575 2409 2078 
Q 1691 1613 1691 1113 
Q 1691 403 3322 403 
Q 4125 403 5134 563 
L 5222 56 
z
M 5778 4153 
Q 5419 4697 5025 5025 
L 5325 5253 
Q 5709 4944 6100 4428 
L 5778 4153 
z
M 5184 3688 
Q 4894 4175 4447 4575 
L 4763 4819 
Q 5134 4513 5516 3963 
L 5184 3688 
z
" transform="scale(0.015625)"/>
      </defs>
      <use xlink:href="#IPAexGothic-554f"/>
      <use xlink:href="#IPAexGothic-984c" x="100"/>
      <use xlink:href="#IPAexGothic-89e3" x="200"/>
      <use xlink:href="#IPAexGothic-6c7a" x="300"/>
      <use xlink:href="#IPAexGothic-306a" x="400"/>
      <use xlink:href="#IPAexGothic-3069" x="500"/>
      <use xlink:href="#IPAexGothic-306e" x="600"/>
     </g>
    </g>
   </g>
   <g id="text_25">
    <g clip-path="url(#pb9bc7efb16)">
     <!-- 知的行動を -->
     <g transform="translate(134.475272 42.270077) scale(0.12 -0.12)">
      <defs>
       <path id="IPAexGothic-77e5" d="M 2219 3988 
L 2219 2778 
L 3372 2778 
L 3372 2375 
L 2213 2375 
Q 2203 2078 2163 1813 
L 2194 1788 
Q 2884 1163 3403 531 
L 3075 116 
Q 2625 738 2066 1319 
Q 1766 159 753 -478 
L 428 -109 
Q 1231 359 1528 1147 
Q 1713 1634 1759 2375 
L 409 2375 
L 409 2778 
L 1766 2778 
L 1766 3988 
L 1344 3988 
Q 1106 3409 806 3003 
L 466 3316 
Q 1016 4103 1234 5281 
L 1688 5216 
Q 1591 4731 1484 4391 
L 3219 4391 
L 3219 3988 
L 2219 3988 
z
M 5791 4469 
L 5791 -194 
L 5338 -194 
L 5338 197 
L 3981 197 
L 3981 -272 
L 3528 -272 
L 3528 4469 
L 5791 4469 
z
M 3981 4053 
L 3981 613 
L 5338 613 
L 5338 4053 
L 3981 4053 
z
" transform="scale(0.015625)"/>
       <path id="IPAexGothic-7684" d="M 5925 4141 
Q 5859 888 5656 91 
Q 5581 -219 5350 -325 
Q 5178 -397 4856 -397 
Q 4428 -397 4044 -353 
L 3953 134 
Q 4444 56 4838 56 
Q 5128 56 5203 234 
Q 5400 706 5459 3438 
L 5466 3719 
L 3838 3719 
Q 3550 3031 3116 2503 
L 2809 2856 
Q 3469 3659 3788 5172 
L 4250 5050 
Q 4144 4559 4000 4141 
L 5925 4141 
z
M 1316 4244 
L 1394 4475 
Q 1500 4806 1566 5209 
L 2053 5141 
Q 1872 4525 1753 4244 
L 2756 4244 
L 2756 366 
L 1022 366 
L 1022 -91 
L 581 -91 
L 581 4244 
L 1316 4244 
z
M 1022 3847 
L 1022 2553 
L 2316 2553 
L 2316 3847 
L 1022 3847 
z
M 1022 2169 
L 1022 763 
L 2316 763 
L 2316 2169 
L 1022 2169 
z
M 4384 1288 
Q 3975 2069 3531 2578 
L 3859 2834 
Q 4375 2259 4753 1569 
L 4384 1288 
z
" transform="scale(0.015625)"/>
       <path id="IPAexGothic-884c" d="M 1822 2753 
L 1822 -447 
L 1353 -447 
L 1353 2169 
Q 966 1744 622 1466 
L 316 1791 
Q 1294 2559 1969 3822 
L 2397 3634 
Q 2109 3138 1822 2753 
z
M 4975 2803 
L 4975 103 
Q 4975 -391 4369 -391 
Q 3925 -391 3356 -341 
L 3288 159 
Q 3775 78 4259 78 
Q 4516 78 4516 319 
L 4516 2803 
L 2384 2803 
L 2384 3225 
L 6013 3225 
L 6013 2803 
L 4975 2803 
z
M 384 3691 
Q 1231 4256 1756 5075 
L 2144 4850 
Q 1541 3947 666 3347 
L 384 3691 
z
M 2709 4794 
L 5659 4794 
L 5659 4378 
L 2709 4378 
L 2709 4794 
z
" transform="scale(0.015625)"/>
       <path id="IPAexGothic-52d5" d="M 1803 3425 
L 1803 3794 
L 372 3794 
L 372 4147 
L 1803 4147 
L 1803 4556 
Q 1250 4500 634 4466 
L 506 4819 
Q 1997 4903 3091 5159 
L 3378 4794 
Q 2803 4678 2219 4606 
L 2219 4147 
L 3538 4147 
L 3538 3794 
L 2219 3794 
L 2219 3425 
L 3378 3425 
L 3378 1569 
L 2219 1569 
L 2219 1178 
L 3447 1178 
L 3447 825 
L 2219 825 
L 2219 384 
Q 2934 459 3544 569 
L 3544 231 
Q 2569 22 416 -206 
L 294 197 
Q 791 238 1284 288 
L 1803 338 
L 1803 825 
L 581 825 
L 581 1178 
L 1803 1178 
L 1803 1569 
L 678 1569 
L 678 3425 
L 1803 3425 
z
M 1816 3100 
L 1075 3100 
L 1075 2669 
L 1816 2669 
L 1816 3100 
z
M 2206 3100 
L 2206 2669 
L 2981 2669 
L 2981 3100 
L 2206 3100 
z
M 1816 2350 
L 1075 2350 
L 1075 1894 
L 1816 1894 
L 1816 2350 
z
M 2206 2350 
L 2206 1894 
L 2981 1894 
L 2981 2350 
L 2206 2350 
z
M 4806 3469 
Q 4797 2084 4628 1338 
Q 4375 250 3572 -459 
L 3238 -141 
Q 3975 481 4225 1550 
Q 4378 2213 4378 3413 
L 3559 3413 
L 3559 3828 
L 4384 3828 
L 4384 5209 
L 4813 5209 
L 4813 3878 
L 5931 3878 
Q 5931 941 5766 128 
Q 5669 -347 5144 -347 
Q 4838 -347 4500 -294 
L 4422 197 
Q 4797 100 5069 100 
Q 5294 100 5344 369 
Q 5484 1053 5503 3200 
L 5503 3469 
L 4806 3469 
z
" transform="scale(0.015625)"/>
       <path id="IPAexGothic-3092" d="M 1094 4263 
Q 1544 4222 2359 4222 
Q 2581 4734 2700 5163 
L 3175 5028 
Q 2997 4538 2859 4256 
Q 3516 4284 4294 4459 
L 4356 4019 
Q 3603 3869 2656 3819 
Q 2391 3284 2059 2797 
Q 2531 3200 2963 3200 
Q 3638 3200 3859 2378 
Q 4556 2681 5338 2950 
L 5575 2528 
Q 4641 2253 3941 1956 
Q 3981 1678 3994 1028 
L 3513 991 
Q 3513 1456 3494 1753 
Q 2388 1194 2388 716 
Q 2388 428 2753 328 
Q 3066 241 3806 241 
Q 4394 241 5178 344 
L 5216 -128 
Q 4434 -213 3653 -213 
Q 2656 -213 2244 41 
Q 1913 244 1913 631 
Q 1913 1094 2344 1497 
Q 2709 1841 3428 2181 
Q 3266 2797 2878 2797 
Q 2238 2797 1209 1419 
L 838 1694 
Q 1625 2716 2163 3800 
Q 1522 3800 1088 3825 
L 1094 4263 
z
" transform="scale(0.015625)"/>
      </defs>
      <use xlink:href="#IPAexGothic-77e5"/>
      <use xlink:href="#IPAexGothic-7684" x="100"/>
      <use xlink:href="#IPAexGothic-884c" x="200"/>
      <use xlink:href="#IPAexGothic-52d5" x="300"/>
      <use xlink:href="#IPAexGothic-3092" x="400"/>
     </g>
    </g>
   </g>
   <g id="text_26">
    <g clip-path="url(#pb9bc7efb16)">
     <!-- 人間に -->
     <g transform="translate(245.721917 194.741346) scale(0.12 -0.12)">
      <defs>
       <path id="IPAexGothic-4eba" d="M 3434 5081 
L 3434 4659 
Q 3434 3131 4050 2069 
Q 4669 994 6022 275 
L 5644 -197 
Q 4359 588 3641 1863 
Q 3394 2300 3225 3009 
Q 2822 766 819 -325 
L 441 97 
Q 1856 759 2438 1972 
Q 2919 2959 2919 4634 
L 2919 5081 
L 3434 5081 
z
" transform="scale(0.015625)"/>
       <path id="IPAexGothic-9593" d="M 4450 2566 
L 4450 353 
L 2375 353 
L 2375 -25 
L 1953 -25 
L 1953 2566 
L 4450 2566 
z
M 4028 2200 
L 2375 2200 
L 2375 1653 
L 4028 1653 
L 4028 2200 
z
M 4028 1300 
L 2375 1300 
L 2375 719 
L 4028 719 
L 4028 1300 
z
M 2913 5019 
L 2913 3059 
L 1056 3059 
L 1056 -447 
L 609 -447 
L 609 5019 
L 2913 5019 
z
M 1056 4659 
L 1056 4206 
L 2497 4206 
L 2497 4659 
L 1056 4659 
z
M 1056 3881 
L 1056 3413 
L 2497 3413 
L 2497 3881 
L 1056 3881 
z
M 5788 5019 
L 5788 91 
Q 5788 -225 5641 -331 
Q 5525 -409 5231 -409 
Q 4803 -409 4481 -366 
L 4419 97 
Q 4853 38 5128 38 
Q 5341 38 5341 244 
L 5341 3059 
L 3438 3059 
L 3438 5019 
L 5788 5019 
z
M 3853 4659 
L 3853 4206 
L 5341 4206 
L 5341 4659 
L 3853 4659 
z
M 3853 3881 
L 3853 3413 
L 5341 3413 
L 5341 3881 
L 3853 3881 
z
" transform="scale(0.015625)"/>
       <path id="IPAexGothic-306b" d="M 1088 -38 
Q 922 1003 922 2081 
Q 922 3222 1331 4794 
L 1813 4684 
Q 1391 3113 1391 2003 
Q 1391 1441 1422 1147 
Q 1434 1181 1813 2016 
L 2125 1797 
Q 1800 1081 1691 763 
Q 1581 453 1581 269 
Q 1581 78 1588 6 
L 1088 -38 
z
M 2834 4038 
Q 3969 4213 5313 4172 
L 5338 3681 
Q 3959 3728 2869 3547 
L 2834 4038 
z
M 5650 256 
Q 5044 172 4372 172 
Q 3463 172 3047 434 
Q 2784 594 2675 841 
Q 2572 1075 2572 1447 
Q 2572 1563 2578 1656 
L 3053 1684 
Q 3050 1613 3044 1528 
Q 3041 1481 3041 1466 
Q 3041 1200 3119 1053 
Q 3178 944 3309 850 
Q 3569 678 4275 678 
Q 4891 678 5588 763 
L 5650 256 
z
" transform="scale(0.015625)"/>
      </defs>
      <use xlink:href="#IPAexGothic-4eba"/>
      <use xlink:href="#IPAexGothic-9593" x="100"/>
      <use xlink:href="#IPAexGothic-306b" x="200"/>
     </g>
    </g>
   </g>
   <g id="text_27">
    <g clip-path="url(#pb9bc7efb16)">
     <!-- 代わって -->
     <g transform="translate(24.912397 211.252409) scale(0.12 -0.12)">
      <defs>
       <path id="IPAexGothic-4ee3" d="M 1588 3688 
L 1588 -447 
L 1119 -447 
L 1119 2753 
Q 897 2356 531 1869 
L 269 2259 
Q 1188 3456 1594 5184 
L 2069 5069 
Q 1847 4291 1588 3688 
z
M 3278 2925 
L 1825 2809 
L 1797 3250 
L 3219 3366 
Q 3131 4088 3084 5153 
L 3572 5153 
Q 3622 4038 3700 3406 
L 5869 3578 
L 5900 3128 
L 3756 2963 
Q 3759 2956 3763 2938 
Q 3766 2916 3769 2906 
Q 3991 1406 4634 666 
Q 4991 250 5184 250 
Q 5391 250 5581 1313 
L 6009 972 
Q 5731 -359 5281 -359 
Q 5041 -359 4609 6 
Q 3591 850 3284 2869 
Q 3278 2888 3278 2925 
z
M 5013 3700 
Q 4706 4219 4269 4684 
L 4634 4972 
Q 5050 4556 5409 4038 
L 5013 3700 
z
" transform="scale(0.015625)"/>
       <path id="IPAexGothic-308f" d="M 609 3672 
Q 1272 3750 1894 3884 
L 1934 4978 
L 2406 4972 
L 2369 3934 
L 2753 3634 
Q 2416 3238 2356 3153 
Q 2350 3078 2350 2853 
Q 3322 3616 4219 3616 
Q 4878 3616 5331 3200 
Q 5819 2750 5819 2028 
Q 5819 419 3584 -53 
L 3266 391 
Q 5294 766 5294 2034 
Q 5294 2534 5000 2847 
Q 4691 3175 4175 3175 
Q 3341 3175 2344 2303 
Q 2344 678 2369 -150 
L 1881 -150 
Q 1863 1200 1869 1888 
Q 1766 1781 866 716 
L 513 1081 
Q 1450 2088 1869 2469 
Q 1869 2500 1878 2947 
Q 1881 3225 1888 3456 
Q 1406 3319 744 3178 
L 609 3672 
z
" transform="scale(0.015625)"/>
       <path id="IPAexGothic-3063" d="M 1113 2656 
Q 2778 3103 3709 3103 
Q 4359 3103 4734 2778 
Q 5150 2409 5150 1803 
Q 5150 247 2456 25 
L 2231 494 
Q 3425 541 4028 878 
Q 4663 1231 4663 1806 
Q 4663 2681 3647 2681 
Q 2834 2681 1319 2203 
L 1113 2656 
z
" transform="scale(0.015625)"/>
       <path id="IPAexGothic-3066" d="M 581 4034 
Q 2978 4363 5466 4556 
L 5509 4097 
Q 4388 4031 3750 3572 
Q 2797 2878 2797 1913 
Q 2797 1169 3291 819 
Q 3778 484 4869 416 
L 4906 -116 
Q 2278 0 2278 1850 
Q 2278 3125 3691 4000 
Q 2066 3784 684 3553 
L 581 4034 
z
" transform="scale(0.015625)"/>
      </defs>
      <use xlink:href="#IPAexGothic-4ee3"/>
      <use xlink:href="#IPAexGothic-308f" x="100"/>
      <use xlink:href="#IPAexGothic-3063" x="200"/>
      <use xlink:href="#IPAexGothic-3066" x="300"/>
     </g>
    </g>
   </g>
   <g id="text_28">
    <g clip-path="url(#pb9bc7efb16)">
     <!-- コンピューターに -->
     <g transform="translate(158.953143 310.038673) scale(0.12 -0.12)">
      <defs>
       <path id="IPAexGothic-30b3" d="M 1134 4213 
L 5166 4213 
L 5166 153 
L 4653 153 
L 4653 594 
L 1063 594 
L 1063 1088 
L 4653 1088 
L 4653 3725 
L 1134 3725 
L 1134 4213 
z
" transform="scale(0.015625)"/>
       <path id="IPAexGothic-30f3" d="M 2444 3084 
Q 1816 3656 1056 4084 
L 1381 4519 
Q 2063 4191 2816 3559 
L 2444 3084 
z
M 1100 609 
Q 3984 1106 5216 3828 
L 5619 3469 
Q 4413 794 1434 103 
L 1100 609 
z
" transform="scale(0.015625)"/>
       <path id="IPAexGothic-30d4" d="M 1331 4756 
L 1856 4756 
L 1856 2759 
Q 3528 3134 4722 3872 
L 5106 3456 
Q 3619 2663 1856 2278 
L 1856 1044 
Q 1856 725 2047 650 
Q 2241 566 3138 566 
Q 4141 566 5369 697 
L 5369 184 
Q 4231 78 3238 78 
Q 1913 78 1619 275 
Q 1331 459 1331 947 
L 1331 4756 
z
M 5478 5222 
Q 5788 5222 5997 4988 
Q 6181 4788 6181 4519 
Q 6181 4206 5947 3994 
Q 5747 3809 5478 3809 
Q 5166 3809 4953 4044 
Q 4769 4247 4769 4519 
Q 4769 4828 5003 5041 
Q 5206 5222 5478 5222 
z
M 5478 4941 
Q 5288 4941 5159 4800 
Q 5050 4678 5050 4519 
Q 5050 4328 5191 4200 
Q 5313 4091 5478 4091 
Q 5663 4091 5791 4231 
Q 5900 4353 5900 4519 
Q 5900 4703 5759 4831 
Q 5638 4941 5478 4941 
z
" transform="scale(0.015625)"/>
       <path id="IPAexGothic-30e5" d="M 1656 3297 
L 4313 3297 
Q 4253 2288 4078 869 
L 5319 869 
L 5319 422 
L 1075 422 
L 1075 869 
L 3578 869 
Q 3725 2069 3775 2856 
L 1656 2856 
L 1656 3297 
z
" transform="scale(0.015625)"/>
       <path id="IPAexGothic-30fc" d="M 588 2688 
L 5809 2688 
L 5809 2175 
L 588 2175 
L 588 2688 
z
" transform="scale(0.015625)"/>
       <path id="IPAexGothic-30bf" d="M 4978 4263 
L 5313 3988 
Q 4797 2431 4056 1459 
Q 3191 325 1822 -300 
L 1466 109 
Q 2131 381 2613 738 
Q 3053 1066 3531 1600 
Q 2919 2225 2144 2791 
Q 1603 2203 1172 1875 
L 825 2234 
Q 2316 3328 2866 5031 
L 3359 4897 
Q 3325 4775 3109 4263 
L 4978 4263 
z
M 2894 3816 
Q 2709 3522 2438 3169 
Q 3194 2616 3841 2003 
Q 4366 2806 4747 3816 
L 2894 3816 
z
" transform="scale(0.015625)"/>
      </defs>
      <use xlink:href="#IPAexGothic-30b3"/>
      <use xlink:href="#IPAexGothic-30f3" x="100"/>
      <use xlink:href="#IPAexGothic-30d4" x="200"/>
      <use xlink:href="#IPAexGothic-30e5" x="300"/>
      <use xlink:href="#IPAexGothic-30fc" x="400"/>
      <use xlink:href="#IPAexGothic-30bf" x="500"/>
      <use xlink:href="#IPAexGothic-30fc" x="600"/>
      <use xlink:href="#IPAexGothic-306b" x="700"/>
     </g>
    </g>
   </g>
   <g id="text_29">
    <g clip-path="url(#pb9bc7efb16)">
     <!-- 行わせる -->
     <g transform="translate(44.358737 99.578642) scale(0.12 -0.12)">
      <defs>
       <path id="IPAexGothic-305b" d="M 4013 4922 
L 4500 4922 
L 4500 3475 
L 5881 3541 
L 5900 3116 
L 4500 3053 
L 4500 1863 
Q 4500 1363 3994 1363 
Q 3563 1363 3169 1516 
L 3169 1997 
Q 3575 1816 3816 1816 
Q 4013 1816 4013 2028 
L 4013 3028 
L 2191 2944 
L 2191 1044 
Q 2191 613 2550 525 
Q 2784 463 3609 463 
Q 4384 463 5172 544 
L 5191 44 
Q 4403 -19 3641 -19 
Q 2456 -19 2081 172 
Q 1697 375 1697 909 
L 1697 2919 
L 488 2859 
L 469 3291 
L 1697 3347 
L 1697 4609 
L 2191 4609 
L 2191 3366 
L 4013 3456 
L 4013 4922 
z
" transform="scale(0.015625)"/>
       <path id="IPAexGothic-308b" d="M 4391 4397 
L 2613 2588 
Q 3225 2809 3759 2809 
Q 4263 2809 4659 2625 
Q 5391 2269 5391 1484 
Q 5391 756 4706 275 
Q 4072 -166 3053 -166 
Q 2559 -166 2247 19 
Q 1863 250 1863 666 
Q 1863 934 2069 1141 
Q 2331 1403 2741 1403 
Q 3509 1403 4019 428 
Q 4872 784 4872 1491 
Q 4872 1981 4469 2222 
Q 4166 2406 3681 2406 
Q 2425 2406 1238 1209 
L 891 1581 
Q 2438 2934 3578 4281 
Q 2594 4125 1588 4066 
L 1478 4550 
Q 2594 4581 4109 4763 
L 4391 4397 
z
M 3591 303 
Q 3244 1025 2731 1025 
Q 2553 1025 2434 934 
Q 2316 844 2316 700 
Q 2316 250 3034 250 
Q 3275 250 3591 303 
z
" transform="scale(0.015625)"/>
      </defs>
      <use xlink:href="#IPAexGothic-884c"/>
      <use xlink:href="#IPAexGothic-308f" x="100"/>
      <use xlink:href="#IPAexGothic-305b" x="200"/>
      <use xlink:href="#IPAexGothic-308b" x="300"/>
     </g>
    </g>
   </g>
   <g id="text_30">
    <g clip-path="url(#pb9bc7efb16)">
     <!-- 技術」、または、 -->
     <g transform="translate(233.148975 303.808831) scale(0.12 -0.12)">
      <defs>
       <path id="IPAexGothic-6280" d="M 4294 2988 
L 5375 2988 
L 5644 2750 
Q 5234 1750 4538 928 
Q 5134 403 6053 56 
L 5722 -378 
Q 4913 -13 4234 606 
Q 3456 -166 2619 -494 
L 2266 -84 
Q 3250 234 3944 906 
Q 3278 1628 2906 2578 
L 2509 2578 
L 2509 2988 
L 3841 2988 
L 3841 3909 
L 2344 3909 
L 2344 4319 
L 3841 4319 
L 3841 5309 
L 4294 5309 
L 4294 4319 
L 5931 4319 
L 5931 3909 
L 4294 3909 
L 4294 2988 
z
M 3372 2578 
Q 3650 1859 4228 1222 
Q 4813 1925 5081 2578 
L 3372 2578 
z
M 1184 4013 
L 1184 5300 
L 1613 5300 
L 1613 4013 
L 2238 4013 
L 2238 3597 
L 1613 3597 
L 1613 2344 
Q 2056 2491 2334 2597 
L 2381 2216 
Q 1941 2025 1613 1919 
L 1613 6 
Q 1613 -272 1491 -363 
Q 1391 -447 1088 -447 
Q 759 -447 519 -403 
L 441 56 
Q 725 -6 972 -6 
Q 1184 -6 1184 172 
L 1184 1772 
Q 931 1681 416 1538 
L 275 1966 
Q 634 2053 1184 2209 
L 1184 3597 
L 378 3597 
L 378 4013 
L 1184 4013 
z
" transform="scale(0.015625)"/>
       <path id="IPAexGothic-8853" d="M 5447 2841 
L 5447 72 
Q 5447 -397 4909 -397 
Q 4622 -397 4272 -366 
L 4169 91 
Q 4528 38 4828 38 
Q 5006 38 5006 244 
L 5006 2841 
L 4213 2841 
L 4213 3244 
L 6075 3244 
L 6075 2841 
L 5447 2841 
z
M 1484 2791 
L 1484 -447 
L 1056 -447 
L 1056 2209 
Q 775 1875 481 1581 
L 238 1972 
Q 991 2628 1594 3713 
L 1913 3475 
Q 1741 3181 1516 2834 
L 1484 2791 
z
M 3309 3834 
L 4275 3834 
L 4275 3438 
L 3309 3438 
L 3309 -269 
L 2881 -269 
L 2881 3438 
L 1947 3438 
L 1947 3834 
L 2881 3834 
L 2881 5141 
L 3309 5141 
L 3309 3834 
z
M 294 3794 
Q 1063 4306 1625 5191 
L 1966 4934 
Q 1344 3997 556 3431 
L 294 3794 
z
M 1800 616 
Q 2084 1416 2191 2881 
L 2581 2803 
Q 2494 1344 2209 366 
L 1800 616 
z
M 3919 581 
Q 3822 1781 3572 2888 
L 3950 2969 
Q 4241 1816 4359 788 
L 3919 581 
z
M 3797 3956 
Q 3656 4513 3481 4872 
L 3847 4997 
Q 4056 4550 4166 4116 
L 3797 3956 
z
M 4353 4813 
L 5934 4813 
L 5934 4403 
L 4353 4403 
L 4353 4813 
z
" transform="scale(0.015625)"/>
       <path id="IPAexGothic-300d" d="M 1819 4209 
L 2266 4209 
L 2266 -434 
L 525 -434 
L 525 13 
L 1819 13 
L 1819 4209 
z
" transform="scale(0.015625)"/>
       <path id="IPAexGothic-307e" d="M 3538 5075 
L 3547 4141 
Q 4509 4203 5288 4341 
L 5325 3897 
Q 4744 3809 3553 3719 
L 3566 2925 
Q 4578 3022 5031 3103 
L 5063 2663 
Q 4519 2572 3578 2503 
L 3628 1403 
Q 4531 1128 5459 513 
L 5153 84 
Q 4656 456 3641 909 
Q 3669 331 3391 84 
Q 3116 -153 2559 -153 
Q 1900 -153 1522 72 
Q 1138 297 1138 719 
Q 1138 1163 1634 1413 
Q 1994 1594 2413 1594 
Q 2797 1594 3156 1538 
L 3109 2472 
Q 2641 2450 2413 2450 
Q 1931 2450 1422 2484 
L 1422 2919 
Q 1941 2872 2516 2872 
Q 2706 2872 3097 2894 
L 3072 3688 
Q 2381 3675 2344 3675 
Q 1794 3675 1075 3706 
L 1075 4141 
Q 1744 4097 2431 4097 
Q 2456 4097 3059 4109 
L 3041 5075 
L 3538 5075 
z
M 3163 1088 
Q 2713 1184 2394 1184 
Q 2094 1184 1875 1091 
Q 1606 975 1606 750 
Q 1606 484 1925 363 
Q 2156 275 2503 275 
Q 3163 275 3163 794 
L 3163 1088 
z
" transform="scale(0.015625)"/>
       <path id="IPAexGothic-305f" d="M 684 3994 
Q 1138 3953 1556 3953 
Q 1797 3953 2106 3975 
Q 2266 4594 2369 5113 
L 2875 5025 
Q 2806 4731 2619 4013 
Q 3209 4084 3656 4191 
L 3688 3719 
Q 3109 3613 2497 3566 
Q 1822 1294 1153 -44 
L 653 172 
Q 1406 1500 1991 3531 
Q 1634 3513 1256 3513 
Q 1106 3513 697 3525 
L 684 3994 
z
M 5753 78 
Q 5059 -13 4597 -13 
Q 3619 -13 3206 334 
Q 2866 625 2766 1222 
L 3213 1388 
Q 3247 1069 3347 903 
Q 3425 775 3578 672 
Q 3866 481 4556 481 
Q 5009 481 5728 575 
L 5753 78 
z
M 3144 2859 
Q 4216 3147 5409 3072 
L 5381 2597 
L 5356 2597 
Q 4263 2663 3194 2419 
L 3144 2859 
z
" transform="scale(0.015625)"/>
       <path id="IPAexGothic-306f" d="M 4066 4875 
L 4538 4875 
L 4556 3769 
Q 5003 3816 5581 3941 
L 5619 3469 
Q 5256 3394 4563 3322 
L 4597 1441 
Q 5100 1284 5934 756 
L 5656 313 
Q 5066 772 4609 978 
Q 4609 441 4384 225 
Q 4128 -13 3634 -13 
Q 2991 -13 2669 231 
Q 2388 444 2388 831 
Q 2388 1225 2772 1484 
Q 3050 1669 3534 1669 
Q 3759 1669 4134 1594 
L 4097 3288 
Q 3697 3269 3359 3269 
Q 2925 3269 2484 3300 
L 2466 3763 
Q 2953 3716 3456 3716 
Q 3738 3716 4091 3738 
L 4066 4875 
z
M 4141 1153 
Q 3753 1259 3513 1259 
Q 2841 1259 2841 850 
Q 2841 422 3634 422 
Q 3888 422 4022 569 
Q 4141 700 4141 922 
Q 4141 1088 4141 1153 
z
M 1000 -50 
Q 794 1072 794 1931 
Q 794 3153 1247 4884 
L 1728 4763 
Q 1269 3044 1269 1900 
Q 1269 1569 1306 1106 
Q 1591 1706 1753 1997 
L 2075 1806 
Q 1484 716 1484 141 
Q 1484 72 1491 0 
L 1000 -50 
z
" transform="scale(0.015625)"/>
      </defs>
      <use xlink:href="#IPAexGothic-6280"/>
      <use xlink:href="#IPAexGothic-8853" x="100"/>
      <use xlink:href="#IPAexGothic-300d" x="200"/>
      <use xlink:href="#IPAexGothic-3001" x="300"/>
      <use xlink:href="#IPAexGothic-307e" x="400"/>
      <use xlink:href="#IPAexGothic-305f" x="500"/>
      <use xlink:href="#IPAexGothic-306f" x="600"/>
      <use xlink:href="#IPAexGothic-3001" x="700"/>
     </g>
    </g>
   </g>
   <g id="text_31">
    <g clip-path="url(#pb9bc7efb16)">
     <!-- 「計算機 -->
     <g transform="translate(62.41086 268.191042) scale(0.12 -0.12)">
      <defs>
       <path id="IPAexGothic-8a08" d="M 2853 1684 
L 2853 -416 
L 2413 -416 
L 2413 -128 
L 1088 -128 
L 1088 -447 
L 647 -447 
L 647 1684 
L 2853 1684 
z
M 1088 1300 
L 1088 256 
L 2413 256 
L 2413 1300 
L 1088 1300 
z
M 4322 3225 
L 4322 5178 
L 4781 5178 
L 4781 3225 
L 6063 3225 
L 6063 2797 
L 4781 2797 
L 4781 -447 
L 4322 -447 
L 4322 2797 
L 3063 2797 
L 3063 3225 
L 4322 3225 
z
M 781 5044 
L 2722 5044 
L 2722 4647 
L 781 4647 
L 781 5044 
z
M 384 4206 
L 3150 4206 
L 3150 3803 
L 384 3803 
L 384 4206 
z
M 781 3359 
L 2722 3359 
L 2722 2963 
L 781 2963 
L 781 3359 
z
M 781 2522 
L 2722 2522 
L 2722 2125 
L 781 2125 
L 781 2522 
z
" transform="scale(0.015625)"/>
       <path id="IPAexGothic-7b97" d="M 2466 672 
Q 2322 -228 1031 -525 
L 756 -166 
Q 1419 -22 1731 213 
Q 1944 369 2013 672 
L 328 672 
L 328 1056 
L 2038 1056 
L 2038 1466 
L 1206 1466 
L 1206 3803 
L 3319 3803 
L 3022 4019 
Q 3444 4525 3694 5319 
L 4122 5222 
Q 4081 5094 3963 4794 
L 5991 4794 
L 5991 4422 
L 4691 4422 
Q 4788 4281 4956 3988 
L 4556 3809 
Q 4397 4153 4225 4422 
L 3791 4422 
Q 3609 4075 3375 3803 
L 5213 3803 
L 5213 1466 
L 4422 1466 
L 4422 1056 
L 6088 1056 
L 6088 672 
L 4444 672 
L 4444 -441 
L 3991 -441 
L 3991 672 
L 2466 672 
z
M 2491 1056 
L 3969 1056 
L 3969 1466 
L 2491 1466 
L 2491 1056 
z
M 4769 1797 
L 4769 2172 
L 1647 2172 
L 1647 1797 
L 4769 1797 
z
M 4769 2497 
L 4769 2819 
L 1647 2819 
L 1647 2497 
L 4769 2497 
z
M 4769 3144 
L 4769 3463 
L 1647 3463 
L 1647 3144 
L 4769 3144 
z
M 1472 4794 
L 3206 4794 
L 3206 4422 
L 2272 4422 
L 2478 3994 
L 2088 3806 
Q 1934 4200 1819 4422 
L 1281 4422 
Q 1025 3969 691 3616 
L 384 3878 
Q 941 4494 1241 5313 
L 1659 5203 
Q 1594 5053 1472 4794 
z
" transform="scale(0.015625)"/>
       <path id="IPAexGothic-6a5f" d="M 3916 2125 
Q 3806 2984 3806 4238 
L 3806 5313 
L 4216 5313 
L 4216 4300 
Q 4216 3081 4300 2278 
L 4313 2150 
L 5175 2150 
Q 4984 2350 4822 2469 
L 5144 2669 
Q 5325 2541 5547 2309 
L 5309 2150 
L 6006 2150 
L 6006 1797 
L 4363 1797 
Q 4450 1278 4688 869 
Q 4931 1150 5194 1631 
L 5553 1431 
Q 5284 953 4913 531 
Q 4941 491 4959 475 
Q 5278 78 5438 78 
Q 5581 78 5669 844 
L 6066 628 
Q 5881 -422 5559 -422 
Q 5163 -422 4631 244 
Q 4069 -275 3384 -519 
L 3116 -191 
Q 3881 88 4406 569 
Q 4072 1116 3966 1772 
L 3084 1772 
Q 3078 1747 3078 1675 
Q 3078 1650 3063 1431 
Q 3534 1153 3934 781 
L 3684 441 
Q 3328 816 3031 1056 
Q 2906 91 2238 -494 
L 1950 -172 
Q 2478 241 2603 891 
Q 2659 1197 2681 1772 
L 2116 1772 
L 2116 2125 
L 3916 2125 
z
M 1113 2534 
Q 813 1522 384 794 
L 153 1250 
Q 763 2228 1063 3547 
L 294 3547 
L 294 3956 
L 1113 3956 
L 1113 5306 
L 1522 5306 
L 1522 3956 
L 2138 3956 
L 2138 3547 
L 1522 3547 
L 1522 2881 
Q 1875 2588 2150 2228 
L 1888 1884 
Q 1753 2144 1522 2434 
L 1522 -447 
L 1113 -447 
L 1113 2534 
z
M 2750 3334 
Q 2441 3850 2131 4159 
L 2347 4469 
Q 2384 4425 2509 4275 
Q 2734 4703 2913 5228 
L 3263 5025 
Q 3028 4447 2719 3988 
Q 2766 3919 2838 3803 
Q 2913 3684 2938 3647 
Q 3175 4066 3347 4434 
L 3666 4244 
Q 3263 3431 2809 2841 
Q 3097 2872 3347 2900 
Q 3347 2913 3334 2950 
Q 3313 3063 3231 3303 
L 3519 3372 
Q 3716 2891 3781 2413 
L 3456 2297 
Q 3453 2316 3428 2484 
Q 3416 2575 3403 2631 
Q 2906 2506 2175 2438 
L 2072 2797 
Q 2109 2800 2194 2803 
Q 2263 2806 2297 2809 
Q 2369 2809 2413 2816 
L 2438 2853 
Q 2538 2994 2750 3334 
z
M 4875 3413 
Q 4559 3916 4263 4206 
L 4478 4506 
Q 4494 4488 4559 4406 
Q 4609 4350 4641 4306 
Q 4891 4769 5038 5216 
L 5394 5013 
Q 5147 4466 4838 4025 
Q 4963 3844 5050 3700 
Q 5241 4019 5466 4469 
L 5784 4256 
Q 5497 3725 4991 3009 
Q 5356 3031 5547 3053 
Q 5466 3281 5381 3450 
L 5681 3553 
Q 5872 3181 6022 2669 
L 5709 2503 
Q 5697 2550 5663 2678 
Q 5641 2759 5631 2797 
Q 5019 2669 4434 2619 
L 4338 2975 
Q 4513 2975 4594 2981 
Q 4778 3256 4875 3413 
z
" transform="scale(0.015625)"/>
      </defs>
      <use xlink:href="#IPAexGothic-300c"/>
      <use xlink:href="#IPAexGothic-8a08" x="100"/>
      <use xlink:href="#IPAexGothic-7b97" x="200"/>
      <use xlink:href="#IPAexGothic-6a5f" x="300"/>
     </g>
    </g>
   </g>
   <g id="text_32">
    <g clip-path="url(#pb9bc7efb16)">
     <!-- （コンピュータ）に -->
     <g transform="translate(331.737082 103.706217) scale(0.12 -0.12)">
      <defs>
       <path id="IPAexGothic-ff08" d="M 5419 -434 
Q 4197 769 4197 2438 
Q 4197 4097 5419 5300 
L 5919 5300 
Q 4678 4078 4678 2425 
Q 4678 788 5919 -434 
L 5419 -434 
z
" transform="scale(0.015625)"/>
       <path id="IPAexGothic-ff09" d="M 481 -434 
Q 1722 788 1722 2431 
Q 1722 4066 481 5300 
L 981 5300 
Q 2203 4097 2203 2431 
Q 2203 769 981 -434 
L 481 -434 
z
" transform="scale(0.015625)"/>
      </defs>
      <use xlink:href="#IPAexGothic-ff08"/>
      <use xlink:href="#IPAexGothic-30b3" x="100"/>
      <use xlink:href="#IPAexGothic-30f3" x="200"/>
      <use xlink:href="#IPAexGothic-30d4" x="300"/>
      <use xlink:href="#IPAexGothic-30e5" x="400"/>
      <use xlink:href="#IPAexGothic-30fc" x="500"/>
      <use xlink:href="#IPAexGothic-30bf" x="600"/>
      <use xlink:href="#IPAexGothic-ff09" x="700"/>
      <use xlink:href="#IPAexGothic-306b" x="800"/>
     </g>
    </g>
   </g>
   <g id="text_33">
    <g clip-path="url(#pb9bc7efb16)">
     <!-- よる -->
     <g transform="translate(320.063374 290.993114) scale(0.12 -0.12)">
      <defs>
       <path id="IPAexGothic-3088" d="M 2784 5019 
L 3272 5019 
Q 3247 4378 3272 3647 
Q 4184 3719 4850 3903 
L 4997 3431 
Q 4369 3291 3272 3200 
Q 3288 2366 3378 1550 
Q 4134 1353 5344 647 
L 5031 213 
Q 4244 759 3406 1044 
L 3413 891 
Q 3434 359 3122 84 
Q 2863 -141 2272 -141 
Q 1641 -141 1272 116 
Q 934 350 934 738 
Q 934 1294 1500 1534 
Q 1841 1678 2278 1678 
Q 2581 1678 2906 1631 
Q 2813 2559 2784 5019 
z
M 2931 1178 
Q 2613 1244 2369 1244 
Q 1422 1244 1422 794 
Q 1422 300 2278 300 
Q 2956 300 2938 934 
L 2931 1178 
z
" transform="scale(0.015625)"/>
      </defs>
      <use xlink:href="#IPAexGothic-3088"/>
      <use xlink:href="#IPAexGothic-308b" x="100"/>
     </g>
    </g>
   </g>
   <g id="text_34">
    <g clip-path="url(#pb9bc7efb16)">
     <!-- 知的な -->
     <g transform="translate(195.080281 50.65325) scale(0.12 -0.12)">
      <use xlink:href="#IPAexGothic-77e5"/>
      <use xlink:href="#IPAexGothic-7684" x="100"/>
      <use xlink:href="#IPAexGothic-306a" x="200"/>
     </g>
    </g>
   </g>
   <g id="text_35">
    <g clip-path="url(#pb9bc7efb16)">
     <!-- 情報処理システムの -->
     <g transform="translate(-5.037377 177.925069) scale(0.12 -0.12)">
      <defs>
       <path id="IPAexGothic-60c5" d="M 3791 4672 
L 3791 5313 
L 4219 5313 
L 4219 4672 
L 5844 4672 
L 5844 4325 
L 4219 4325 
L 4219 3944 
L 5659 3944 
L 5659 3603 
L 4219 3603 
L 4219 3200 
L 6050 3200 
L 6050 2841 
L 2038 2841 
L 2038 3200 
L 3791 3200 
L 3791 3603 
L 2447 3603 
L 2447 3944 
L 3791 3944 
L 3791 4325 
L 2228 4325 
L 2228 4672 
L 3791 4672 
z
M 5491 2478 
L 5491 38 
Q 5491 -403 4966 -403 
Q 4741 -403 4134 -372 
L 4063 84 
Q 4484 19 4863 19 
Q 5063 19 5063 206 
L 5063 634 
L 3066 634 
L 3066 -447 
L 2638 -447 
L 2638 2478 
L 5491 2478 
z
M 3066 2131 
L 3066 1725 
L 5063 1725 
L 5063 2131 
L 3066 2131 
z
M 3066 1394 
L 3066 975 
L 5063 975 
L 5063 1394 
L 3066 1394 
z
M 244 2291 
Q 438 2947 488 4013 
L 878 3928 
Q 838 2825 641 2081 
L 244 2291 
z
M 1941 3213 
Q 1797 3722 1613 4100 
L 1953 4263 
Q 2172 3891 2319 3422 
L 1941 3213 
z
M 1106 5313 
L 1547 5313 
L 1547 -447 
L 1106 -447 
L 1106 5313 
z
" transform="scale(0.015625)"/>
       <path id="IPAexGothic-5831" d="M 2741 3084 
Q 2600 2594 2428 2203 
L 3175 2203 
L 3175 1819 
L 2013 1819 
L 2013 1134 
L 3100 1134 
L 3100 750 
L 2013 750 
L 2013 -447 
L 1572 -447 
L 1572 750 
L 522 750 
L 522 1134 
L 1572 1134 
L 1572 1819 
L 438 1819 
L 438 2203 
L 1128 2203 
Q 994 2800 884 3084 
L 297 3084 
L 297 3469 
L 1572 3469 
L 1572 4134 
L 578 4134 
L 578 4519 
L 1572 4519 
L 1572 5313 
L 2013 5313 
L 2013 4519 
L 3028 4519 
L 3028 4134 
L 2013 4134 
L 2013 3469 
L 3169 3469 
L 3169 3084 
L 2741 3084 
z
M 2300 3084 
L 1309 3084 
Q 1469 2606 1544 2203 
L 2013 2203 
Q 2194 2606 2300 3084 
z
M 5684 4991 
L 5684 3591 
Q 5684 3316 5575 3219 
Q 5466 3128 5159 3128 
Q 4834 3128 4441 3166 
L 4391 3597 
Q 4763 3538 5019 3538 
Q 5256 3538 5256 3769 
L 5256 4594 
L 3800 4594 
L 3800 2741 
L 5594 2741 
L 5831 2550 
Q 5659 1603 5203 806 
Q 5544 331 6131 -6 
L 5856 -416 
Q 5319 -22 4959 425 
Q 4588 -94 4116 -497 
L 3828 -147 
Q 4319 231 4697 775 
Q 4169 1516 3969 2350 
L 3800 2350 
L 3800 -447 
L 3375 -447 
L 3375 4991 
L 5684 4991 
z
M 4353 2350 
Q 4503 1794 4922 1153 
Q 5228 1716 5350 2350 
L 4353 2350 
z
" transform="scale(0.015625)"/>
       <path id="IPAexGothic-51e6" d="M 2144 1263 
Q 2538 638 3147 425 
Q 3628 253 4741 253 
Q 5266 253 6163 303 
Q 6038 63 6009 -216 
Q 5450 -234 5094 -234 
Q 3675 -234 3097 -38 
Q 2388 206 1919 884 
Q 1366 6 734 -478 
L 397 -106 
Q 1128 384 1675 1306 
Q 1341 1969 1138 2913 
Q 934 2309 606 1775 
L 306 2159 
Q 1069 3425 1319 5219 
L 1759 5116 
Q 1694 4763 1631 4481 
L 2650 4481 
L 2903 4275 
Q 2759 2447 2144 1263 
z
M 1900 1744 
Q 2356 2797 2469 4066 
L 1528 4066 
Q 1463 3822 1388 3625 
Q 1534 2575 1900 1744 
z
M 5056 4756 
L 5056 1466 
Q 5056 1263 5269 1263 
Q 5466 1263 5484 1475 
Q 5506 1600 5516 2081 
L 5525 2222 
L 5953 2069 
Q 5944 1234 5831 1038 
Q 5728 859 5216 859 
Q 4888 859 4750 950 
Q 4622 1038 4622 1294 
L 4622 4353 
L 3872 4353 
L 3872 3759 
Q 3872 2544 3744 1916 
Q 3600 1244 3141 706 
L 2813 1025 
Q 3256 1563 3372 2369 
Q 3428 2809 3428 3566 
L 3428 4756 
L 5056 4756 
z
" transform="scale(0.015625)"/>
       <path id="IPAexGothic-30b7" d="M 2828 3531 
Q 2219 4056 1613 4359 
L 1913 4781 
Q 2503 4491 3169 3981 
L 2828 3531 
z
M 1163 500 
Q 3944 1094 5338 3525 
L 5688 3128 
Q 4297 700 1484 0 
L 1163 500 
z
M 2072 2278 
Q 1466 2800 831 3109 
L 1131 3541 
Q 1806 3213 2406 2725 
L 2072 2278 
z
" transform="scale(0.015625)"/>
       <path id="IPAexGothic-30b9" d="M 4359 4481 
L 4716 4147 
Q 4328 3072 3647 2150 
Q 4659 1434 5659 453 
L 5234 19 
Q 4256 1088 3353 1778 
Q 2372 597 1044 -31 
L 653 403 
Q 3128 1453 4097 4000 
L 1241 3963 
L 1228 4453 
L 4359 4481 
z
" transform="scale(0.015625)"/>
       <path id="IPAexGothic-30c6" d="M 563 3072 
L 5741 3072 
L 5741 2613 
L 3578 2613 
Q 3538 1516 3134 872 
Q 2688 156 1663 -256 
L 1313 156 
Q 2338 538 2713 1166 
Q 3003 1644 3034 2613 
L 563 2613 
L 563 3072 
z
M 1406 4588 
L 4941 4588 
L 4941 4128 
L 1406 4128 
L 1406 4588 
z
" transform="scale(0.015625)"/>
       <path id="IPAexGothic-30e0" d="M 609 891 
L 719 897 
L 884 903 
Q 1053 916 1263 925 
Q 1413 931 1447 934 
Q 2291 2888 2856 4706 
L 3394 4525 
Q 2841 2859 2019 981 
Q 3553 1109 4659 1275 
Q 4200 1950 3669 2588 
L 4122 2838 
Q 5075 1700 5788 513 
L 5319 194 
Q 5038 691 4922 866 
Q 2919 509 822 328 
L 609 891 
z
" transform="scale(0.015625)"/>
      </defs>
      <use xlink:href="#IPAexGothic-60c5"/>
      <use xlink:href="#IPAexGothic-5831" x="100"/>
      <use xlink:href="#IPAexGothic-51e6" x="200"/>
      <use xlink:href="#IPAexGothic-7406" x="300"/>
      <use xlink:href="#IPAexGothic-30b7" x="400"/>
      <use xlink:href="#IPAexGothic-30b9" x="500"/>
      <use xlink:href="#IPAexGothic-30c6" x="600"/>
      <use xlink:href="#IPAexGothic-30e0" x="700"/>
      <use xlink:href="#IPAexGothic-306e" x="800"/>
     </g>
    </g>
   </g>
   <g id="text_36">
    <g clip-path="url(#pb9bc7efb16)">
     <!-- 設計や -->
     <g transform="translate(335.024825 58.100648) scale(0.12 -0.12)">
      <defs>
       <path id="IPAexGothic-8a2d" d="M 2388 1684 
L 2388 -128 
L 959 -128 
L 959 -447 
L 538 -447 
L 538 1684 
L 2388 1684 
z
M 959 1313 
L 959 244 
L 1966 244 
L 1966 1313 
L 959 1313 
z
M 4969 4984 
L 4969 3441 
Q 4969 3256 5225 3256 
Q 5472 3256 5500 3384 
Q 5538 3509 5556 3941 
L 5981 3800 
Q 5950 3134 5813 2988 
Q 5688 2853 5225 2853 
Q 4753 2853 4625 2963 
Q 4528 3050 4528 3238 
L 4528 4575 
L 3681 4575 
L 3681 4409 
Q 3681 3675 3478 3256 
Q 3303 2916 2900 2628 
L 2606 2950 
Q 3028 3253 3156 3634 
Q 3253 3922 3253 4363 
L 3253 4984 
L 4969 4984 
z
M 4591 766 
Q 5241 306 6081 56 
L 5800 -403 
Q 4984 -97 4284 459 
Q 3581 -166 2766 -500 
L 2484 -122 
Q 3303 159 3963 753 
Q 3416 1300 3053 2053 
L 2722 2053 
L 2722 2463 
L 5344 2463 
L 5563 2278 
Q 5247 1478 4591 766 
z
M 4269 1041 
Q 4719 1519 4981 2053 
L 3503 2053 
Q 3794 1500 4269 1041 
z
M 634 5044 
L 2294 5044 
L 2294 4659 
L 634 4659 
L 634 5044 
z
M 347 4206 
L 2625 4206 
L 2625 3816 
L 347 3816 
L 347 4206 
z
M 634 3359 
L 2294 3359 
L 2294 2975 
L 634 2975 
L 634 3359 
z
M 634 2522 
L 2294 2522 
L 2294 2138 
L 634 2138 
L 634 2522 
z
" transform="scale(0.015625)"/>
      </defs>
      <use xlink:href="#IPAexGothic-8a2d"/>
      <use xlink:href="#IPAexGothic-8a08" x="100"/>
      <use xlink:href="#IPAexGothic-3084" x="200"/>
     </g>
    </g>
   </g>
   <g id="text_37">
    <g clip-path="url(#pb9bc7efb16)">
     <!-- 実現に -->
     <g transform="translate(359.614241 240.690956) scale(0.12 -0.12)">
      <defs>
       <path id="IPAexGothic-5b9f" d="M 3525 1275 
Q 4288 350 6022 91 
L 5738 -375 
Q 3953 -41 3219 1050 
Q 2731 -144 728 -472 
L 466 -44 
Q 2422 150 2872 1275 
L 384 1275 
L 384 1659 
L 2950 1659 
L 2950 2144 
L 966 2144 
L 966 2509 
L 2950 2509 
L 2950 2969 
L 1266 2969 
L 1266 3341 
L 2950 3341 
L 2950 3988 
L 3403 3988 
L 3403 3341 
L 5125 3341 
L 5125 2969 
L 3403 2969 
L 3403 2509 
L 5444 2509 
L 5444 2144 
L 3403 2144 
L 3403 1659 
L 6016 1659 
L 6016 1275 
L 3525 1275 
z
M 3413 4544 
L 5778 4544 
L 5778 3269 
L 5309 3269 
L 5309 4147 
L 1084 4147 
L 1084 3269 
L 616 3269 
L 616 4544 
L 2938 4544 
L 2938 5313 
L 3413 5313 
L 3413 4544 
z
" transform="scale(0.015625)"/>
       <path id="IPAexGothic-73fe" d="M 4788 1638 
L 4788 313 
Q 4788 153 4866 113 
Q 4941 81 5203 81 
Q 5522 81 5581 266 
Q 5625 400 5644 1009 
L 6081 831 
Q 6041 38 5919 -141 
Q 5769 -359 5116 -359 
Q 4566 -359 4444 -219 
Q 4347 -122 4347 97 
L 4347 1638 
L 3847 1638 
Q 3819 794 3469 313 
Q 3134 -144 2331 -441 
L 2028 -56 
Q 2841 184 3134 622 
Q 3378 981 3419 1638 
L 2791 1638 
L 2791 5050 
L 5588 5050 
L 5588 1638 
L 4788 1638 
z
M 3219 4666 
L 3219 4044 
L 5159 4044 
L 5159 4666 
L 3219 4666 
z
M 3219 3666 
L 3219 3047 
L 5159 3047 
L 5159 3666 
L 3219 3666 
z
M 3219 2675 
L 3219 2022 
L 5159 2022 
L 5159 2675 
L 3219 2675 
z
M 1631 4391 
L 1631 3028 
L 2363 3028 
L 2363 2631 
L 1631 2631 
L 1631 1166 
Q 2131 1316 2553 1459 
L 2584 1063 
Q 1581 675 422 359 
L 256 806 
Q 669 897 1203 1044 
L 1203 2631 
L 459 2631 
L 459 3028 
L 1203 3028 
L 1203 4391 
L 384 4391 
L 384 4794 
L 2516 4794 
L 2516 4391 
L 1631 4391 
z
" transform="scale(0.015625)"/>
      </defs>
      <use xlink:href="#IPAexGothic-5b9f"/>
      <use xlink:href="#IPAexGothic-73fe" x="100"/>
      <use xlink:href="#IPAexGothic-306b" x="200"/>
     </g>
    </g>
   </g>
   <g id="text_38">
    <g clip-path="url(#pb9bc7efb16)">
     <!-- 関する -->
     <g transform="translate(393.553218 199.120085) scale(0.12 -0.12)">
      <defs>
       <path id="IPAexGothic-95a2" d="M 2919 5063 
L 2919 3288 
L 1016 3288 
L 1016 -450 
L 569 -450 
L 569 5063 
L 2919 5063 
z
M 1016 4709 
L 1016 4331 
L 2509 4331 
L 2509 4709 
L 1016 4709 
z
M 1016 4019 
L 1016 3628 
L 2509 3628 
L 2509 4019 
L 1016 4019 
z
M 5822 5063 
L 5822 44 
Q 5822 -409 5297 -409 
Q 4956 -409 4672 -366 
L 4594 97 
Q 4841 31 5156 31 
Q 5369 31 5369 244 
L 5369 3288 
L 3422 3288 
L 3422 5063 
L 5822 5063 
z
M 3831 4709 
L 3831 4331 
L 5369 4331 
L 5369 4709 
L 3831 4709 
z
M 3831 4019 
L 3831 3628 
L 5369 3628 
L 5369 4019 
L 3831 4019 
z
M 2425 2478 
Q 2328 2713 2150 2975 
L 2559 3122 
Q 2709 2866 2859 2478 
L 3525 2478 
Q 3716 2847 3806 3147 
L 4256 3022 
Q 4084 2669 3953 2478 
L 4766 2478 
L 4766 2113 
L 3391 2113 
L 3391 1672 
L 4928 1672 
L 4928 1300 
L 3366 1300 
Q 3363 1263 3334 1141 
Q 4016 863 4734 409 
L 4428 34 
Q 3888 441 3281 763 
Q 3278 766 3241 788 
Q 3225 797 3219 800 
Q 2881 100 1875 -256 
L 1588 122 
Q 2769 409 2931 1300 
L 1466 1300 
L 1466 1672 
L 2963 1672 
L 2963 2113 
L 1625 2113 
L 1625 2478 
L 2425 2478 
z
" transform="scale(0.015625)"/>
       <path id="IPAexGothic-3059" d="M 3322 5075 
L 3816 5075 
L 3816 4063 
Q 4131 4075 5756 4116 
L 5756 3669 
Q 5431 3672 3816 3653 
L 3816 2463 
Q 3956 2125 3956 1741 
Q 3956 922 3519 397 
Q 3128 -72 2309 -409 
L 1941 -31 
Q 3263 453 3488 1363 
Q 3250 1031 2809 1031 
Q 2441 1031 2150 1313 
Q 1875 1588 1875 2050 
Q 1875 2475 2166 2769 
Q 2431 3041 2822 3041 
Q 3088 3041 3322 2881 
L 3322 3641 
Q 3000 3634 609 3547 
L 609 3988 
Q 1197 4000 2106 4022 
Q 3066 4047 3322 4050 
L 3322 5075 
z
M 3372 2044 
Q 3372 2300 3194 2478 
Q 3050 2613 2869 2613 
Q 2622 2613 2463 2406 
Q 2344 2250 2344 2088 
Q 2344 1797 2484 1622 
Q 2625 1453 2859 1453 
Q 3372 1453 3372 2044 
z
" transform="scale(0.015625)"/>
      </defs>
      <use xlink:href="#IPAexGothic-95a2"/>
      <use xlink:href="#IPAexGothic-3059" x="100"/>
      <use xlink:href="#IPAexGothic-308b" x="200"/>
     </g>
    </g>
   </g>
   <g id="text_39">
    <g clip-path="url(#pb9bc7efb16)">
     <!-- 研究分野」とも -->
     <g transform="translate(133.067272 251.931807) scale(0.12 -0.12)">
      <defs>
       <path id="IPAexGothic-7814" d="M 1294 2950 
L 2466 2950 
L 2466 197 
L 1288 197 
L 1288 -328 
L 866 -328 
L 866 2119 
Q 666 1794 456 1534 
L 213 1906 
Q 1031 2956 1300 4416 
L 463 4416 
L 463 4819 
L 2613 4819 
L 2613 4416 
L 1741 4416 
Q 1588 3634 1294 2950 
z
M 1288 2553 
L 1288 594 
L 2050 594 
L 2050 2553 
L 1288 2553 
z
M 5209 4544 
L 5209 2859 
L 6116 2859 
L 6116 2450 
L 5231 2450 
L 5231 -384 
L 4784 -384 
L 4784 2450 
L 3988 2450 
Q 3978 1384 3775 741 
Q 3553 25 2972 -538 
L 2625 -213 
Q 3253 378 3425 1197 
Q 3522 1666 3541 2450 
L 2663 2450 
L 2663 2859 
L 3541 2859 
L 3541 4544 
L 2791 4544 
L 2791 4947 
L 5891 4947 
L 5891 4544 
L 5209 4544 
z
M 4769 4544 
L 3988 4544 
L 3988 2859 
L 4769 2859 
L 4769 4544 
z
" transform="scale(0.015625)"/>
       <path id="IPAexGothic-7a76" d="M 5497 3369 
Q 5478 2909 5338 2778 
Q 5178 2631 4375 2631 
Q 3859 2631 3725 2728 
Q 3578 2825 3578 3075 
L 3578 4200 
L 1106 4200 
L 1106 3297 
L 647 3297 
L 647 4603 
L 2938 4603 
L 2938 5313 
L 3413 5313 
L 3413 4603 
L 5747 4603 
L 5747 3369 
L 5497 3369 
z
M 5278 3503 
L 5278 4200 
L 4031 4200 
L 4031 3222 
Q 4031 3084 4081 3053 
Q 4156 3022 4428 3022 
Q 4788 3022 4894 3053 
Q 5025 3103 5034 3266 
Q 5047 3356 5056 3459 
Q 5066 3547 5069 3559 
L 5278 3503 
z
M 3019 2059 
L 4550 2059 
L 4550 378 
Q 4550 216 4647 166 
Q 4731 128 5031 128 
Q 5494 128 5563 319 
Q 5625 475 5644 1131 
L 6106 966 
Q 6056 63 5906 -109 
Q 5725 -319 4997 -319 
Q 4491 -319 4313 -238 
Q 4091 -128 4091 172 
L 4091 1656 
L 2969 1656 
Q 2863 766 2363 275 
Q 1897 -188 934 -447 
L 641 -44 
Q 1613 178 2016 569 
Q 2391 925 2497 1600 
L 825 1600 
L 825 2009 
L 2559 2009 
L 2559 2909 
L 3019 2909 
L 3019 2059 
z
M 731 2741 
Q 1981 3075 2259 4103 
L 2688 4000 
Q 2400 2803 1038 2381 
L 731 2741 
z
" transform="scale(0.015625)"/>
       <path id="IPAexGothic-5206" d="M 3031 2431 
Q 2916 1378 2528 759 
Q 1991 -81 941 -469 
L 625 -53 
Q 2356 488 2541 2431 
L 1375 2431 
L 1375 2772 
Q 1044 2431 653 2156 
L 313 2534 
Q 1600 3425 2219 5056 
L 2688 4875 
Q 2200 3672 1453 2847 
L 4966 2847 
Q 4878 559 4741 94 
Q 4666 -163 4459 -250 
Q 4288 -322 3941 -322 
Q 3525 -322 2981 -263 
L 2884 256 
Q 3441 138 3844 138 
Q 4213 138 4281 438 
Q 4388 931 4472 2431 
L 3031 2431 
z
M 5747 2303 
Q 4416 3238 3506 4934 
L 3934 5113 
Q 4747 3572 6084 2747 
L 5747 2303 
z
" transform="scale(0.015625)"/>
       <path id="IPAexGothic-91ce" d="M 3200 4978 
L 3200 2369 
L 2088 2369 
L 2088 1666 
L 3219 1666 
L 3219 1288 
L 2088 1288 
L 2088 513 
L 2203 525 
Q 2906 650 3378 738 
L 3397 341 
Q 1800 3 513 -159 
L 359 284 
Q 947 344 1594 438 
L 1672 450 
L 1672 1288 
L 538 1288 
L 538 1666 
L 1672 1666 
L 1672 2369 
L 584 2369 
L 584 4978 
L 3200 4978 
z
M 981 4606 
L 981 3866 
L 1684 3866 
L 1684 4606 
L 981 4606 
z
M 981 3519 
L 981 2741 
L 1684 2741 
L 1684 3519 
L 981 3519 
z
M 2803 2741 
L 2803 3519 
L 2075 3519 
L 2075 2741 
L 2803 2741 
z
M 2803 3866 
L 2803 4606 
L 2075 4606 
L 2075 3866 
L 2803 3866 
z
M 4838 3563 
Q 5056 3359 5209 3206 
L 4891 2909 
Q 4325 3541 3750 3972 
L 4050 4228 
Q 4441 3909 4550 3813 
Q 4863 4144 5178 4588 
L 3481 4588 
L 3481 4978 
L 5606 4978 
L 5831 4741 
Q 5338 4053 4838 3563 
z
M 4781 2472 
L 4781 31 
Q 4781 -247 4666 -350 
Q 4559 -447 4275 -447 
Q 3919 -447 3553 -403 
L 3488 38 
Q 3847 -25 4172 -25 
Q 4341 -25 4341 134 
L 4341 2472 
L 3353 2472 
L 3353 2875 
L 5888 2875 
L 6084 2709 
Q 5759 1825 5413 1228 
L 5009 1422 
Q 5325 1897 5547 2472 
L 4781 2472 
z
" transform="scale(0.015625)"/>
       <path id="IPAexGothic-3068" d="M 5222 56 
Q 4200 -72 3450 -72 
Q 2478 -72 1941 113 
Q 1184 372 1184 1038 
Q 1184 1584 1594 2009 
Q 1941 2369 2656 2725 
Q 2231 3734 1972 4878 
L 2491 4978 
Q 2706 3884 3078 2950 
Q 4250 3447 4756 3616 
L 4978 3150 
Q 3181 2575 2409 2078 
Q 1691 1613 1691 1113 
Q 1691 403 3322 403 
Q 4125 403 5134 563 
L 5222 56 
z
" transform="scale(0.015625)"/>
       <path id="IPAexGothic-3082" d="M 997 3950 
Q 1622 3844 2303 3816 
L 2491 5056 
L 2988 4984 
Q 2872 4363 2797 3816 
Q 3475 3822 4244 3938 
L 4244 3494 
Q 3659 3394 2731 3372 
Q 2700 3131 2603 2381 
Q 3263 2381 4031 2509 
L 4031 2059 
Q 3359 1947 2534 1947 
Q 2472 1447 2472 1216 
Q 2472 191 3609 191 
Q 4831 191 4831 1163 
Q 4831 1597 4500 2131 
L 5003 2181 
Q 5338 1638 5338 1153 
Q 5338 472 4819 75 
Q 4372 -256 3609 -256 
Q 2003 -256 2003 1153 
Q 2003 1556 2059 1959 
Q 1372 2022 1013 2094 
L 1056 2541 
Q 1581 2431 2125 2400 
L 2247 3378 
Q 1550 3406 941 3519 
L 997 3950 
z
" transform="scale(0.015625)"/>
      </defs>
      <use xlink:href="#IPAexGothic-7814"/>
      <use xlink:href="#IPAexGothic-7a76" x="100"/>
      <use xlink:href="#IPAexGothic-5206" x="200"/>
      <use xlink:href="#IPAexGothic-91ce" x="300"/>
      <use xlink:href="#IPAexGothic-300d" x="400"/>
      <use xlink:href="#IPAexGothic-3068" x="500"/>
      <use xlink:href="#IPAexGothic-3082" x="600"/>
     </g>
    </g>
   </g>
   <g id="text_40">
    <g clip-path="url(#pb9bc7efb16)">
     <!-- される。 -->
     <g transform="translate(387.887603 134.805789) scale(0.12 -0.12)">
      <defs>
       <path id="IPAexGothic-3055" d="M 1747 1184 
Q 1747 834 2094 609 
Q 2422 391 3706 391 
Q 4088 391 4422 434 
L 4478 -50 
Q 4116 -84 3853 -84 
Q 3000 -84 2544 -13 
Q 2044 69 1759 263 
Q 1272 597 1272 1125 
Q 1272 1638 1728 1953 
Q 2163 2253 2884 2253 
Q 3741 2253 4300 2003 
Q 3797 2556 3322 3438 
Q 2128 3219 1113 3219 
L 966 3694 
Q 1150 3688 1388 3688 
Q 2291 3688 3128 3847 
Q 2919 4253 2597 4953 
L 3059 5081 
Q 3347 4384 3591 3950 
Q 4375 4147 5028 4481 
L 5297 4056 
Q 4653 3763 3775 3547 
Q 4309 2597 5069 1703 
L 4672 1363 
Q 3994 1838 2872 1838 
Q 2278 1838 1984 1628 
Q 1747 1459 1747 1184 
z
" transform="scale(0.015625)"/>
       <path id="IPAexGothic-308c" d="M 538 3694 
Q 1275 3791 1800 3903 
L 1838 5006 
L 2316 5006 
L 2253 4006 
L 2619 3675 
Q 2428 3425 2247 3144 
Q 2241 3084 2241 2869 
Q 3341 4031 4134 4031 
Q 4856 4031 4856 3309 
Q 4856 3047 4794 2491 
Q 4719 1747 4719 1044 
Q 4719 672 4922 672 
Q 5084 672 5263 788 
Q 5613 1034 5850 1491 
L 6131 1025 
Q 5856 641 5600 447 
Q 5238 166 4866 166 
Q 4244 166 4244 1100 
Q 4244 1519 4350 2956 
Q 4369 3181 4369 3238 
Q 4369 3434 4297 3513 
Q 4231 3584 4081 3584 
Q 3438 3584 2228 2291 
Q 2222 1931 2222 1478 
Q 2222 753 2241 -159 
L 1747 -159 
Q 1747 1241 1753 1734 
Q 1544 1466 928 647 
L 531 991 
Q 1603 2291 1772 2478 
Q 1772 3038 1791 3469 
Q 1128 3284 653 3194 
L 538 3694 
z
" transform="scale(0.015625)"/>
       <path id="IPAexGothic-3002" d="M 1166 1241 
Q 1366 1241 1563 1138 
Q 2009 900 2009 391 
Q 2009 188 1913 6 
Q 1675 -459 1159 -459 
Q 941 -459 753 -356 
Q 306 -119 306 397 
Q 306 744 569 1003 
Q 806 1241 1166 1241 
z
M 1159 916 
Q 953 916 797 781 
Q 631 625 631 391 
Q 631 278 681 166 
Q 819 -134 1159 -134 
Q 1309 -134 1434 -56 
Q 1684 88 1684 391 
Q 1684 722 1397 866 
Q 1281 916 1159 916 
z
" transform="scale(0.015625)"/>
      </defs>
      <use xlink:href="#IPAexGothic-3055"/>
      <use xlink:href="#IPAexGothic-308c" x="100"/>
      <use xlink:href="#IPAexGothic-308b" x="200"/>
      <use xlink:href="#IPAexGothic-3002" x="300"/>
     </g>
    </g>
   </g>
  </g>
 </g>
 <defs>
  <clipPath id="pb9bc7efb16">
   <rect x="10.8" y="10.8" width="439.2" height="324"/>
  </clipPath>
 </defs>
</svg>
