<?xml version="1.0" encoding="utf-8" standalone="no"?>
<!DOCTYPE svg PUBLIC "-//W3C//DTD SVG 1.1//EN"
  "http://www.w3.org/Graphics/SVG/1.1/DTD/svg11.dtd">
<svg xmlns:xlink="http://www.w3.org/1999/xlink" width="460.8pt" height="345.6pt" viewBox="0 0 460.8 345.6" xmlns="http://www.w3.org/2000/svg" version="1.1">
 <metadata>
  <rdf:RDF xmlns:dc="http://purl.org/dc/elements/1.1/" xmlns:cc="http://creativecommons.org/ns#" xmlns:rdf="http://www.w3.org/1999/02/22-rdf-syntax-ns#">
   <cc:Work>
    <dc:type rdf:resource="http://purl.org/dc/dcmitype/StillImage"/>
    <dc:date>2023-04-27T15:17:28.760680</dc:date>
    <dc:format>image/svg+xml</dc:format>
    <dc:creator>
     <cc:Agent>
      <dc:title>Matplotlib v3.7.1, https://matplotlib.org/</dc:title>
     </cc:Agent>
    </dc:creator>
   </cc:Work>
  </rdf:RDF>
 </metadata>
 <defs>
  <style type="text/css">*{stroke-linejoin: round; stroke-linecap: butt}</style>
 </defs>
 <g id="figure_1">
  <g id="patch_1">
   <path d="M 0 345.6 
L 460.8 345.6 
L 460.8 0 
L 0 0 
z
" style="fill: #ffffff"/>
  </g>
  <g id="axes_1">
   <g id="patch_2">
    <path d="M 57.6 307.584 
L 414.72 307.584 
L 414.72 41.472 
L 57.6 41.472 
z
" style="fill: #ffffff"/>
   </g>
   <g id="matplotlib.axis_1">
    <g id="xtick_1">
     <g id="line2d_1">
      <defs>
       <path id="mbd7d3157fd" d="M 0 0 
L 0 3.5 
" style="stroke: #000000; stroke-width: 0.8"/>
      </defs>
      <g>
       <use xlink:href="#mbd7d3157fd" x="73.832727" y="307.584" style="stroke: #000000; stroke-width: 0.8"/>
      </g>
     </g>
     <g id="text_1">
      <!-- $\mathdefault{10^{0}}$ -->
      <g transform="translate(65.132727 322.074625) scale(0.1 -0.1)">
       <defs>
        <path id="IPAexGothic-31" d="M 2463 63 
L 1900 63 
L 1900 4103 
Q 1372 3922 788 3797 
L 684 4231 
Q 1519 4441 2106 4731 
L 2463 4731 
L 2463 63 
z
" transform="scale(0.015625)"/>
        <path id="IPAexGothic-30" d="M 2038 4725 
Q 2881 4725 3334 3944 
Q 3694 3325 3694 2344 
Q 3694 1372 3334 741 
Q 2888 -31 2016 -31 
Q 1147 -31 700 741 
Q 341 1372 341 2350 
Q 341 3713 1000 4334 
Q 1419 4725 2038 4725 
z
M 2016 4266 
Q 1516 4266 1228 3759 
Q 934 3247 934 2344 
Q 934 1456 1222 947 
Q 1513 447 2016 447 
Q 2619 447 2909 1153 
Q 3100 1622 3100 2375 
Q 3100 3256 2806 3759 
Q 2509 4266 2016 4266 
z
" transform="scale(0.015625)"/>
       </defs>
       <use xlink:href="#IPAexGothic-31" transform="translate(0 0.773438)"/>
       <use xlink:href="#IPAexGothic-30" transform="translate(62.988281 0.773438)"/>
       <use xlink:href="#IPAexGothic-30" transform="translate(126.865234 36.320312) scale(0.7)"/>
      </g>
     </g>
    </g>
    <g id="xtick_2">
     <g id="line2d_2">
      <g>
       <use xlink:href="#mbd7d3157fd" x="152.286857" y="307.584" style="stroke: #000000; stroke-width: 0.8"/>
      </g>
     </g>
     <g id="text_2">
      <!-- $\mathdefault{10^{1}}$ -->
      <g transform="translate(143.586857 322.074625) scale(0.1 -0.1)">
       <use xlink:href="#IPAexGothic-31" transform="translate(0 0.707813)"/>
       <use xlink:href="#IPAexGothic-30" transform="translate(62.988281 0.707813)"/>
       <use xlink:href="#IPAexGothic-31" transform="translate(126.865234 36.254688) scale(0.7)"/>
      </g>
     </g>
    </g>
    <g id="xtick_3">
     <g id="line2d_3">
      <g>
       <use xlink:href="#mbd7d3157fd" x="230.740987" y="307.584" style="stroke: #000000; stroke-width: 0.8"/>
      </g>
     </g>
     <g id="text_3">
      <!-- $\mathdefault{10^{2}}$ -->
      <g transform="translate(222.040987 322.074625) scale(0.1 -0.1)">
       <defs>
        <path id="IPAexGothic-32" d="M 3659 63 
L 447 63 
L 447 594 
Q 825 1475 1894 2203 
L 2072 2322 
Q 2619 2697 2791 2906 
Q 2988 3153 2988 3444 
Q 2988 3772 2756 4003 
Q 2500 4259 2084 4259 
Q 1250 4259 991 3328 
L 497 3506 
Q 853 4725 2116 4725 
Q 2806 4725 3216 4316 
Q 3575 3947 3575 3425 
Q 3575 3038 3344 2722 
Q 3131 2416 2366 1938 
L 2231 1856 
Q 1256 1253 978 569 
L 3659 569 
L 3659 63 
z
" transform="scale(0.015625)"/>
       </defs>
       <use xlink:href="#IPAexGothic-31" transform="translate(0 0.773438)"/>
       <use xlink:href="#IPAexGothic-30" transform="translate(62.988281 0.773438)"/>
       <use xlink:href="#IPAexGothic-32" transform="translate(126.865234 36.320312) scale(0.7)"/>
      </g>
     </g>
    </g>
    <g id="xtick_4">
     <g id="line2d_4">
      <g>
       <use xlink:href="#mbd7d3157fd" x="309.195117" y="307.584" style="stroke: #000000; stroke-width: 0.8"/>
      </g>
     </g>
     <g id="text_4">
      <!-- $\mathdefault{10^{3}}$ -->
      <g transform="translate(300.495117 322.074625) scale(0.1 -0.1)">
       <defs>
        <path id="IPAexGothic-33" d="M 2381 2419 
Q 3506 2216 3506 1278 
Q 3506 716 3128 356 
Q 2709 -31 1944 -31 
Q 797 -31 288 881 
L 756 1131 
Q 1109 441 1938 441 
Q 2425 441 2694 691 
Q 2950 928 2950 1291 
Q 2950 1719 2566 1978 
Q 2216 2213 1644 2213 
L 1363 2213 
L 1363 2669 
L 1656 2669 
Q 2231 2669 2534 2888 
Q 2859 3119 2859 3509 
Q 2859 3934 2494 4138 
Q 2259 4278 1931 4278 
Q 1238 4278 903 3578 
L 434 3803 
Q 897 4725 1938 4725 
Q 2597 4725 3006 4394 
Q 3416 4069 3416 3534 
Q 3416 3028 3019 2706 
Q 2763 2500 2381 2444 
L 2381 2419 
z
" transform="scale(0.015625)"/>
       </defs>
       <use xlink:href="#IPAexGothic-31" transform="translate(0 0.773438)"/>
       <use xlink:href="#IPAexGothic-30" transform="translate(62.988281 0.773438)"/>
       <use xlink:href="#IPAexGothic-33" transform="translate(126.865234 36.320312) scale(0.7)"/>
      </g>
     </g>
    </g>
    <g id="xtick_5">
     <g id="line2d_5">
      <g>
       <use xlink:href="#mbd7d3157fd" x="387.649247" y="307.584" style="stroke: #000000; stroke-width: 0.8"/>
      </g>
     </g>
     <g id="text_5">
      <!-- $\mathdefault{10^{4}}$ -->
      <g transform="translate(378.949247 322.074625) scale(0.1 -0.1)">
       <defs>
        <path id="IPAexGothic-34" d="M 3813 1159 
L 3059 1159 
L 3059 63 
L 2547 63 
L 2547 1159 
L 197 1159 
L 197 1672 
L 2456 4678 
L 3059 4678 
L 3059 1634 
L 3813 1634 
L 3813 1159 
z
M 2578 4109 
L 2559 4109 
Q 2278 3656 2003 3284 
L 759 1634 
L 2547 1634 
L 2547 3144 
Q 2547 3481 2578 4109 
z
" transform="scale(0.015625)"/>
       </defs>
       <use xlink:href="#IPAexGothic-31" transform="translate(0 0.2875)"/>
       <use xlink:href="#IPAexGothic-30" transform="translate(62.988281 0.2875)"/>
       <use xlink:href="#IPAexGothic-34" transform="translate(126.865234 35.834375) scale(0.7)"/>
      </g>
     </g>
    </g>
    <g id="xtick_6">
     <g id="line2d_6">
      <defs>
       <path id="mc838524fc0" d="M 0 0 
L 0 2 
" style="stroke: #000000; stroke-width: 0.6"/>
      </defs>
      <g>
       <use xlink:href="#mc838524fc0" x="61.680029" y="307.584" style="stroke: #000000; stroke-width: 0.6"/>
      </g>
     </g>
    </g>
    <g id="xtick_7">
     <g id="line2d_7">
      <g>
       <use xlink:href="#mc838524fc0" x="66.229737" y="307.584" style="stroke: #000000; stroke-width: 0.6"/>
      </g>
     </g>
    </g>
    <g id="xtick_8">
     <g id="line2d_8">
      <g>
       <use xlink:href="#mc838524fc0" x="70.242863" y="307.584" style="stroke: #000000; stroke-width: 0.6"/>
      </g>
     </g>
    </g>
    <g id="xtick_9">
     <g id="line2d_9">
      <g>
       <use xlink:href="#mc838524fc0" x="97.449774" y="307.584" style="stroke: #000000; stroke-width: 0.6"/>
      </g>
     </g>
    </g>
    <g id="xtick_10">
     <g id="line2d_10">
      <g>
       <use xlink:href="#mc838524fc0" x="111.26486" y="307.584" style="stroke: #000000; stroke-width: 0.6"/>
      </g>
     </g>
    </g>
    <g id="xtick_11">
     <g id="line2d_11">
      <g>
       <use xlink:href="#mc838524fc0" x="121.06682" y="307.584" style="stroke: #000000; stroke-width: 0.6"/>
      </g>
     </g>
    </g>
    <g id="xtick_12">
     <g id="line2d_12">
      <g>
       <use xlink:href="#mc838524fc0" x="128.669811" y="307.584" style="stroke: #000000; stroke-width: 0.6"/>
      </g>
     </g>
    </g>
    <g id="xtick_13">
     <g id="line2d_13">
      <g>
       <use xlink:href="#mc838524fc0" x="134.881907" y="307.584" style="stroke: #000000; stroke-width: 0.6"/>
      </g>
     </g>
    </g>
    <g id="xtick_14">
     <g id="line2d_14">
      <g>
       <use xlink:href="#mc838524fc0" x="140.134159" y="307.584" style="stroke: #000000; stroke-width: 0.6"/>
      </g>
     </g>
    </g>
    <g id="xtick_15">
     <g id="line2d_15">
      <g>
       <use xlink:href="#mc838524fc0" x="144.683866" y="307.584" style="stroke: #000000; stroke-width: 0.6"/>
      </g>
     </g>
    </g>
    <g id="xtick_16">
     <g id="line2d_16">
      <g>
       <use xlink:href="#mc838524fc0" x="148.696993" y="307.584" style="stroke: #000000; stroke-width: 0.6"/>
      </g>
     </g>
    </g>
    <g id="xtick_17">
     <g id="line2d_17">
      <g>
       <use xlink:href="#mc838524fc0" x="175.903904" y="307.584" style="stroke: #000000; stroke-width: 0.6"/>
      </g>
     </g>
    </g>
    <g id="xtick_18">
     <g id="line2d_18">
      <g>
       <use xlink:href="#mc838524fc0" x="189.71899" y="307.584" style="stroke: #000000; stroke-width: 0.6"/>
      </g>
     </g>
    </g>
    <g id="xtick_19">
     <g id="line2d_19">
      <g>
       <use xlink:href="#mc838524fc0" x="199.52095" y="307.584" style="stroke: #000000; stroke-width: 0.6"/>
      </g>
     </g>
    </g>
    <g id="xtick_20">
     <g id="line2d_20">
      <g>
       <use xlink:href="#mc838524fc0" x="207.123941" y="307.584" style="stroke: #000000; stroke-width: 0.6"/>
      </g>
     </g>
    </g>
    <g id="xtick_21">
     <g id="line2d_21">
      <g>
       <use xlink:href="#mc838524fc0" x="213.336037" y="307.584" style="stroke: #000000; stroke-width: 0.6"/>
      </g>
     </g>
    </g>
    <g id="xtick_22">
     <g id="line2d_22">
      <g>
       <use xlink:href="#mc838524fc0" x="218.588289" y="307.584" style="stroke: #000000; stroke-width: 0.6"/>
      </g>
     </g>
    </g>
    <g id="xtick_23">
     <g id="line2d_23">
      <g>
       <use xlink:href="#mc838524fc0" x="223.137996" y="307.584" style="stroke: #000000; stroke-width: 0.6"/>
      </g>
     </g>
    </g>
    <g id="xtick_24">
     <g id="line2d_24">
      <g>
       <use xlink:href="#mc838524fc0" x="227.151123" y="307.584" style="stroke: #000000; stroke-width: 0.6"/>
      </g>
     </g>
    </g>
    <g id="xtick_25">
     <g id="line2d_25">
      <g>
       <use xlink:href="#mc838524fc0" x="254.358034" y="307.584" style="stroke: #000000; stroke-width: 0.6"/>
      </g>
     </g>
    </g>
    <g id="xtick_26">
     <g id="line2d_26">
      <g>
       <use xlink:href="#mc838524fc0" x="268.17312" y="307.584" style="stroke: #000000; stroke-width: 0.6"/>
      </g>
     </g>
    </g>
    <g id="xtick_27">
     <g id="line2d_27">
      <g>
       <use xlink:href="#mc838524fc0" x="277.97508" y="307.584" style="stroke: #000000; stroke-width: 0.6"/>
      </g>
     </g>
    </g>
    <g id="xtick_28">
     <g id="line2d_28">
      <g>
       <use xlink:href="#mc838524fc0" x="285.578071" y="307.584" style="stroke: #000000; stroke-width: 0.6"/>
      </g>
     </g>
    </g>
    <g id="xtick_29">
     <g id="line2d_29">
      <g>
       <use xlink:href="#mc838524fc0" x="291.790166" y="307.584" style="stroke: #000000; stroke-width: 0.6"/>
      </g>
     </g>
    </g>
    <g id="xtick_30">
     <g id="line2d_30">
      <g>
       <use xlink:href="#mc838524fc0" x="297.042419" y="307.584" style="stroke: #000000; stroke-width: 0.6"/>
      </g>
     </g>
    </g>
    <g id="xtick_31">
     <g id="line2d_31">
      <g>
       <use xlink:href="#mc838524fc0" x="301.592126" y="307.584" style="stroke: #000000; stroke-width: 0.6"/>
      </g>
     </g>
    </g>
    <g id="xtick_32">
     <g id="line2d_32">
      <g>
       <use xlink:href="#mc838524fc0" x="305.605253" y="307.584" style="stroke: #000000; stroke-width: 0.6"/>
      </g>
     </g>
    </g>
    <g id="xtick_33">
     <g id="line2d_33">
      <g>
       <use xlink:href="#mc838524fc0" x="332.812163" y="307.584" style="stroke: #000000; stroke-width: 0.6"/>
      </g>
     </g>
    </g>
    <g id="xtick_34">
     <g id="line2d_34">
      <g>
       <use xlink:href="#mc838524fc0" x="346.62725" y="307.584" style="stroke: #000000; stroke-width: 0.6"/>
      </g>
     </g>
    </g>
    <g id="xtick_35">
     <g id="line2d_35">
      <g>
       <use xlink:href="#mc838524fc0" x="356.42921" y="307.584" style="stroke: #000000; stroke-width: 0.6"/>
      </g>
     </g>
    </g>
    <g id="xtick_36">
     <g id="line2d_36">
      <g>
       <use xlink:href="#mc838524fc0" x="364.032201" y="307.584" style="stroke: #000000; stroke-width: 0.6"/>
      </g>
     </g>
    </g>
    <g id="xtick_37">
     <g id="line2d_37">
      <g>
       <use xlink:href="#mc838524fc0" x="370.244296" y="307.584" style="stroke: #000000; stroke-width: 0.6"/>
      </g>
     </g>
    </g>
    <g id="xtick_38">
     <g id="line2d_38">
      <g>
       <use xlink:href="#mc838524fc0" x="375.496549" y="307.584" style="stroke: #000000; stroke-width: 0.6"/>
      </g>
     </g>
    </g>
    <g id="xtick_39">
     <g id="line2d_39">
      <g>
       <use xlink:href="#mc838524fc0" x="380.046256" y="307.584" style="stroke: #000000; stroke-width: 0.6"/>
      </g>
     </g>
    </g>
    <g id="xtick_40">
     <g id="line2d_40">
      <g>
       <use xlink:href="#mc838524fc0" x="384.059383" y="307.584" style="stroke: #000000; stroke-width: 0.6"/>
      </g>
     </g>
    </g>
    <g id="xtick_41">
     <g id="line2d_41">
      <g>
       <use xlink:href="#mc838524fc0" x="411.266293" y="307.584" style="stroke: #000000; stroke-width: 0.6"/>
      </g>
     </g>
    </g>
    <g id="text_6">
     <!-- rank number -->
     <g transform="translate(206.387344 335.46525) scale(0.1 -0.1)">
      <defs>
       <path id="IPAexGothic-72" d="M 2309 3316 
L 2213 2769 
Q 2106 2791 2022 2791 
Q 1653 2791 1413 2444 
Q 1113 2006 1113 1675 
L 1113 63 
L 563 63 
L 563 3250 
L 1081 3250 
L 1056 2303 
L 1069 2303 
Q 1422 3341 2097 3341 
Q 2206 3341 2309 3316 
z
" transform="scale(0.015625)"/>
       <path id="IPAexGothic-61" d="M 3156 63 
L 2672 63 
Q 2559 303 2531 556 
L 2509 556 
Q 2147 -25 1428 -25 
Q 934 -25 622 288 
Q 347 563 347 959 
Q 347 1947 2050 1997 
L 2478 2009 
L 2478 2175 
Q 2478 2509 2288 2700 
Q 2088 2900 1775 2900 
Q 1238 2900 969 2378 
L 494 2597 
Q 938 3328 1788 3328 
Q 2375 3328 2691 3000 
Q 2984 2706 2984 2169 
L 2984 997 
Q 2984 400 3156 63 
z
M 2491 1625 
L 2141 1619 
Q 903 1591 903 953 
Q 903 728 1050 581 
Q 1231 403 1525 403 
Q 1934 403 2234 703 
Q 2491 969 2491 1344 
L 2491 1625 
z
" transform="scale(0.015625)"/>
       <path id="IPAexGothic-6e" d="M 3328 63 
L 2778 63 
L 2778 2041 
Q 2778 2853 2106 2853 
Q 1428 2853 1113 2041 
L 1113 63 
L 563 63 
L 563 3250 
L 1075 3250 
L 1075 2675 
Q 1525 3316 2222 3316 
Q 3328 3316 3328 2072 
L 3328 63 
z
" transform="scale(0.015625)"/>
       <path id="IPAexGothic-6b" d="M 3244 63 
L 2578 63 
L 1484 1613 
L 1119 1259 
L 1119 63 
L 581 63 
L 581 4794 
L 1119 4794 
L 1119 1766 
L 2463 3250 
L 3153 3250 
L 1828 1925 
L 3244 63 
z
" transform="scale(0.015625)"/>
       <path id="IPAexGothic-20" transform="scale(0.015625)"/>
       <path id="IPAexGothic-75" d="M 3284 63 
L 2772 63 
L 2772 644 
Q 2300 0 1625 0 
Q 1072 0 763 375 
Q 519 678 519 1241 
L 519 3250 
L 1069 3250 
L 1069 1259 
Q 1069 466 1734 466 
Q 2406 466 2734 1291 
L 2734 3250 
L 3284 3250 
L 3284 63 
z
" transform="scale(0.015625)"/>
       <path id="IPAexGothic-6d" d="M 5022 63 
L 4472 63 
L 4472 2059 
Q 4472 2869 3847 2869 
Q 3550 2869 3303 2594 
Q 3128 2397 3059 2103 
L 3059 63 
L 2509 63 
L 2509 2066 
Q 2509 2869 1919 2869 
Q 1606 2869 1369 2594 
Q 1113 2306 1113 2041 
L 1113 63 
L 563 63 
L 563 3250 
L 1075 3250 
L 1075 2700 
Q 1391 3316 2028 3316 
Q 2725 3316 2956 2647 
Q 3303 3316 3953 3316 
Q 4478 3316 4772 2944 
Q 5022 2638 5022 2072 
L 5022 63 
z
" transform="scale(0.015625)"/>
       <path id="IPAexGothic-62" d="M 1125 2731 
Q 1550 3341 2219 3341 
Q 2788 3341 3191 2938 
Q 3659 2469 3659 1644 
Q 3659 838 3191 372 
Q 2788 -31 2206 -31 
Q 1559 -31 1088 516 
L 1009 44 
L 581 44 
L 581 4794 
L 1125 4794 
L 1125 2731 
z
M 1125 1997 
L 1125 1253 
Q 1125 888 1528 600 
Q 1803 403 2119 403 
Q 2488 403 2744 659 
Q 3084 1009 3084 1631 
Q 3084 2194 2803 2553 
Q 2525 2900 2125 2900 
Q 1759 2900 1438 2578 
Q 1125 2266 1125 1997 
z
" transform="scale(0.015625)"/>
       <path id="IPAexGothic-65" d="M 863 1594 
Q 891 1041 1209 722 
Q 1534 397 1997 397 
Q 2606 397 2963 966 
L 3322 728 
Q 2869 -31 1931 -31 
Q 1222 -31 766 422 
Q 306 884 306 1641 
Q 306 2444 788 2925 
Q 1216 3353 1856 3353 
Q 2459 3353 2866 2956 
Q 3322 2494 3322 1722 
L 3322 1594 
L 863 1594 
z
M 2756 1997 
Q 2709 2431 2450 2681 
Q 2194 2938 1844 2938 
Q 1438 2938 1150 2591 
Q 953 2356 894 1997 
L 2756 1997 
z
" transform="scale(0.015625)"/>
      </defs>
      <use xlink:href="#IPAexGothic-72"/>
      <use xlink:href="#IPAexGothic-61" x="37.011719"/>
      <use xlink:href="#IPAexGothic-6e" x="91.992188"/>
      <use xlink:href="#IPAexGothic-6b" x="152.392578"/>
      <use xlink:href="#IPAexGothic-20" x="204.199219"/>
      <use xlink:href="#IPAexGothic-6e" x="231.201172"/>
      <use xlink:href="#IPAexGothic-75" x="291.601562"/>
      <use xlink:href="#IPAexGothic-6d" x="352.001953"/>
      <use xlink:href="#IPAexGothic-62" x="439.111328"/>
      <use xlink:href="#IPAexGothic-65" x="501.513672"/>
      <use xlink:href="#IPAexGothic-72" x="558.398438"/>
     </g>
    </g>
   </g>
   <g id="matplotlib.axis_2">
    <g id="ytick_1">
     <g id="line2d_42">
      <defs>
       <path id="mf1233204da" d="M 0 0 
L -3.5 0 
" style="stroke: #000000; stroke-width: 0.8"/>
      </defs>
      <g>
       <use xlink:href="#mf1233204da" x="57.6" y="295.488" style="stroke: #000000; stroke-width: 0.8"/>
      </g>
     </g>
     <g id="text_7">
      <!-- $\mathdefault{10^{0}}$ -->
      <g transform="translate(33.2 299.233312) scale(0.1 -0.1)">
       <use xlink:href="#IPAexGothic-31" transform="translate(0 0.773438)"/>
       <use xlink:href="#IPAexGothic-30" transform="translate(62.988281 0.773438)"/>
       <use xlink:href="#IPAexGothic-30" transform="translate(126.865234 36.320312) scale(0.7)"/>
      </g>
     </g>
    </g>
    <g id="ytick_2">
     <g id="line2d_43">
      <g>
       <use xlink:href="#mf1233204da" x="57.6" y="234.697878" style="stroke: #000000; stroke-width: 0.8"/>
      </g>
     </g>
     <g id="text_8">
      <!-- $\mathdefault{10^{1}}$ -->
      <g transform="translate(33.2 238.44319) scale(0.1 -0.1)">
       <use xlink:href="#IPAexGothic-31" transform="translate(0 0.707813)"/>
       <use xlink:href="#IPAexGothic-30" transform="translate(62.988281 0.707813)"/>
       <use xlink:href="#IPAexGothic-31" transform="translate(126.865234 36.254688) scale(0.7)"/>
      </g>
     </g>
    </g>
    <g id="ytick_3">
     <g id="line2d_44">
      <g>
       <use xlink:href="#mf1233204da" x="57.6" y="173.907755" style="stroke: #000000; stroke-width: 0.8"/>
      </g>
     </g>
     <g id="text_9">
      <!-- $\mathdefault{10^{2}}$ -->
      <g transform="translate(33.2 177.653068) scale(0.1 -0.1)">
       <use xlink:href="#IPAexGothic-31" transform="translate(0 0.773438)"/>
       <use xlink:href="#IPAexGothic-30" transform="translate(62.988281 0.773438)"/>
       <use xlink:href="#IPAexGothic-32" transform="translate(126.865234 36.320312) scale(0.7)"/>
      </g>
     </g>
    </g>
    <g id="ytick_4">
     <g id="line2d_45">
      <g>
       <use xlink:href="#mf1233204da" x="57.6" y="113.117633" style="stroke: #000000; stroke-width: 0.8"/>
      </g>
     </g>
     <g id="text_10">
      <!-- $\mathdefault{10^{3}}$ -->
      <g transform="translate(33.2 116.862945) scale(0.1 -0.1)">
       <use xlink:href="#IPAexGothic-31" transform="translate(0 0.773438)"/>
       <use xlink:href="#IPAexGothic-30" transform="translate(62.988281 0.773438)"/>
       <use xlink:href="#IPAexGothic-33" transform="translate(126.865234 36.320312) scale(0.7)"/>
      </g>
     </g>
    </g>
    <g id="ytick_5">
     <g id="line2d_46">
      <g>
       <use xlink:href="#mf1233204da" x="57.6" y="52.32751" style="stroke: #000000; stroke-width: 0.8"/>
      </g>
     </g>
     <g id="text_11">
      <!-- $\mathdefault{10^{4}}$ -->
      <g transform="translate(33.2 56.072823) scale(0.1 -0.1)">
       <use xlink:href="#IPAexGothic-31" transform="translate(0 0.2875)"/>
       <use xlink:href="#IPAexGothic-30" transform="translate(62.988281 0.2875)"/>
       <use xlink:href="#IPAexGothic-34" transform="translate(126.865234 35.834375) scale(0.7)"/>
      </g>
     </g>
    </g>
    <g id="ytick_6">
     <g id="line2d_47">
      <defs>
       <path id="me9aef68ba7" d="M 0 0 
L -2 0 
" style="stroke: #000000; stroke-width: 0.6"/>
      </defs>
      <g>
       <use xlink:href="#me9aef68ba7" x="57.6" y="304.904509" style="stroke: #000000; stroke-width: 0.6"/>
      </g>
     </g>
    </g>
    <g id="ytick_7">
     <g id="line2d_48">
      <g>
       <use xlink:href="#me9aef68ba7" x="57.6" y="301.379172" style="stroke: #000000; stroke-width: 0.6"/>
      </g>
     </g>
    </g>
    <g id="ytick_8">
     <g id="line2d_49">
      <g>
       <use xlink:href="#me9aef68ba7" x="57.6" y="298.269603" style="stroke: #000000; stroke-width: 0.6"/>
      </g>
     </g>
    </g>
    <g id="ytick_9">
     <g id="line2d_50">
      <g>
       <use xlink:href="#me9aef68ba7" x="57.6" y="277.18835" style="stroke: #000000; stroke-width: 0.6"/>
      </g>
     </g>
    </g>
    <g id="ytick_10">
     <g id="line2d_51">
      <g>
       <use xlink:href="#me9aef68ba7" x="57.6" y="266.483741" style="stroke: #000000; stroke-width: 0.6"/>
      </g>
     </g>
    </g>
    <g id="ytick_11">
     <g id="line2d_52">
      <g>
       <use xlink:href="#me9aef68ba7" x="57.6" y="258.888699" style="stroke: #000000; stroke-width: 0.6"/>
      </g>
     </g>
    </g>
    <g id="ytick_12">
     <g id="line2d_53">
      <g>
       <use xlink:href="#me9aef68ba7" x="57.6" y="252.997528" style="stroke: #000000; stroke-width: 0.6"/>
      </g>
     </g>
    </g>
    <g id="ytick_13">
     <g id="line2d_54">
      <g>
       <use xlink:href="#me9aef68ba7" x="57.6" y="248.18409" style="stroke: #000000; stroke-width: 0.6"/>
      </g>
     </g>
    </g>
    <g id="ytick_14">
     <g id="line2d_55">
      <g>
       <use xlink:href="#me9aef68ba7" x="57.6" y="244.114387" style="stroke: #000000; stroke-width: 0.6"/>
      </g>
     </g>
    </g>
    <g id="ytick_15">
     <g id="line2d_56">
      <g>
       <use xlink:href="#me9aef68ba7" x="57.6" y="240.589049" style="stroke: #000000; stroke-width: 0.6"/>
      </g>
     </g>
    </g>
    <g id="ytick_16">
     <g id="line2d_57">
      <g>
       <use xlink:href="#me9aef68ba7" x="57.6" y="237.479481" style="stroke: #000000; stroke-width: 0.6"/>
      </g>
     </g>
    </g>
    <g id="ytick_17">
     <g id="line2d_58">
      <g>
       <use xlink:href="#me9aef68ba7" x="57.6" y="216.398227" style="stroke: #000000; stroke-width: 0.6"/>
      </g>
     </g>
    </g>
    <g id="ytick_18">
     <g id="line2d_59">
      <g>
       <use xlink:href="#me9aef68ba7" x="57.6" y="205.693618" style="stroke: #000000; stroke-width: 0.6"/>
      </g>
     </g>
    </g>
    <g id="ytick_19">
     <g id="line2d_60">
      <g>
       <use xlink:href="#me9aef68ba7" x="57.6" y="198.098577" style="stroke: #000000; stroke-width: 0.6"/>
      </g>
     </g>
    </g>
    <g id="ytick_20">
     <g id="line2d_61">
      <g>
       <use xlink:href="#me9aef68ba7" x="57.6" y="192.207405" style="stroke: #000000; stroke-width: 0.6"/>
      </g>
     </g>
    </g>
    <g id="ytick_21">
     <g id="line2d_62">
      <g>
       <use xlink:href="#me9aef68ba7" x="57.6" y="187.393968" style="stroke: #000000; stroke-width: 0.6"/>
      </g>
     </g>
    </g>
    <g id="ytick_22">
     <g id="line2d_63">
      <g>
       <use xlink:href="#me9aef68ba7" x="57.6" y="183.324264" style="stroke: #000000; stroke-width: 0.6"/>
      </g>
     </g>
    </g>
    <g id="ytick_23">
     <g id="line2d_64">
      <g>
       <use xlink:href="#me9aef68ba7" x="57.6" y="179.798927" style="stroke: #000000; stroke-width: 0.6"/>
      </g>
     </g>
    </g>
    <g id="ytick_24">
     <g id="line2d_65">
      <g>
       <use xlink:href="#me9aef68ba7" x="57.6" y="176.689359" style="stroke: #000000; stroke-width: 0.6"/>
      </g>
     </g>
    </g>
    <g id="ytick_25">
     <g id="line2d_66">
      <g>
       <use xlink:href="#me9aef68ba7" x="57.6" y="155.608105" style="stroke: #000000; stroke-width: 0.6"/>
      </g>
     </g>
    </g>
    <g id="ytick_26">
     <g id="line2d_67">
      <g>
       <use xlink:href="#me9aef68ba7" x="57.6" y="144.903496" style="stroke: #000000; stroke-width: 0.6"/>
      </g>
     </g>
    </g>
    <g id="ytick_27">
     <g id="line2d_68">
      <g>
       <use xlink:href="#me9aef68ba7" x="57.6" y="137.308455" style="stroke: #000000; stroke-width: 0.6"/>
      </g>
     </g>
    </g>
    <g id="ytick_28">
     <g id="line2d_69">
      <g>
       <use xlink:href="#me9aef68ba7" x="57.6" y="131.417283" style="stroke: #000000; stroke-width: 0.6"/>
      </g>
     </g>
    </g>
    <g id="ytick_29">
     <g id="line2d_70">
      <g>
       <use xlink:href="#me9aef68ba7" x="57.6" y="126.603845" style="stroke: #000000; stroke-width: 0.6"/>
      </g>
     </g>
    </g>
    <g id="ytick_30">
     <g id="line2d_71">
      <g>
       <use xlink:href="#me9aef68ba7" x="57.6" y="122.534142" style="stroke: #000000; stroke-width: 0.6"/>
      </g>
     </g>
    </g>
    <g id="ytick_31">
     <g id="line2d_72">
      <g>
       <use xlink:href="#me9aef68ba7" x="57.6" y="119.008804" style="stroke: #000000; stroke-width: 0.6"/>
      </g>
     </g>
    </g>
    <g id="ytick_32">
     <g id="line2d_73">
      <g>
       <use xlink:href="#me9aef68ba7" x="57.6" y="115.899236" style="stroke: #000000; stroke-width: 0.6"/>
      </g>
     </g>
    </g>
    <g id="ytick_33">
     <g id="line2d_74">
      <g>
       <use xlink:href="#me9aef68ba7" x="57.6" y="94.817983" style="stroke: #000000; stroke-width: 0.6"/>
      </g>
     </g>
    </g>
    <g id="ytick_34">
     <g id="line2d_75">
      <g>
       <use xlink:href="#me9aef68ba7" x="57.6" y="84.113373" style="stroke: #000000; stroke-width: 0.6"/>
      </g>
     </g>
    </g>
    <g id="ytick_35">
     <g id="line2d_76">
      <g>
       <use xlink:href="#me9aef68ba7" x="57.6" y="76.518332" style="stroke: #000000; stroke-width: 0.6"/>
      </g>
     </g>
    </g>
    <g id="ytick_36">
     <g id="line2d_77">
      <g>
       <use xlink:href="#me9aef68ba7" x="57.6" y="70.627161" style="stroke: #000000; stroke-width: 0.6"/>
      </g>
     </g>
    </g>
    <g id="ytick_37">
     <g id="line2d_78">
      <g>
       <use xlink:href="#me9aef68ba7" x="57.6" y="65.813723" style="stroke: #000000; stroke-width: 0.6"/>
      </g>
     </g>
    </g>
    <g id="ytick_38">
     <g id="line2d_79">
      <g>
       <use xlink:href="#me9aef68ba7" x="57.6" y="61.74402" style="stroke: #000000; stroke-width: 0.6"/>
      </g>
     </g>
    </g>
    <g id="ytick_39">
     <g id="line2d_80">
      <g>
       <use xlink:href="#me9aef68ba7" x="57.6" y="58.218682" style="stroke: #000000; stroke-width: 0.6"/>
      </g>
     </g>
    </g>
    <g id="ytick_40">
     <g id="line2d_81">
      <g>
       <use xlink:href="#me9aef68ba7" x="57.6" y="55.109114" style="stroke: #000000; stroke-width: 0.6"/>
      </g>
     </g>
    </g>
    <g id="text_12">
     <!-- word frequency -->
     <g transform="translate(27.3 211.031125) rotate(-90) scale(0.1 -0.1)">
      <defs>
       <path id="IPAexGothic-77" d="M 4772 3250 
L 3666 6 
L 3281 6 
L 2609 1919 
Q 2509 2203 2413 2622 
L 2394 2622 
Q 2322 2319 2188 1919 
L 1534 6 
L 1150 6 
L 44 3250 
L 619 3250 
L 1156 1491 
Q 1206 1331 1363 753 
L 1381 753 
Q 1475 1125 1594 1491 
L 2169 3250 
L 2656 3250 
L 3256 1491 
Q 3347 1244 3469 753 
L 3488 753 
Q 3591 1184 3684 1491 
L 4216 3250 
L 4772 3250 
z
" transform="scale(0.015625)"/>
       <path id="IPAexGothic-6f" d="M 1919 3341 
Q 2594 3341 3056 2888 
Q 3531 2413 3531 1638 
Q 3531 888 3066 422 
Q 2609 -31 1919 -31 
Q 1228 -31 781 416 
Q 313 881 313 1656 
Q 313 2413 788 2888 
Q 1241 3341 1919 3341 
z
M 1919 2919 
Q 1519 2919 1241 2631 
Q 888 2278 888 1650 
Q 888 1031 1234 684 
Q 1516 403 1919 403 
Q 2331 403 2609 691 
Q 2956 1038 2956 1672 
Q 2956 2269 2603 2631 
Q 2316 2919 1919 2919 
z
" transform="scale(0.015625)"/>
       <path id="IPAexGothic-64" d="M 3391 63 
L 2891 63 
L 2891 619 
Q 2441 -31 1753 -31 
Q 1181 -31 788 372 
Q 313 844 313 1663 
Q 313 2466 772 2938 
Q 1169 3341 1753 3341 
Q 2384 3341 2847 2809 
L 2847 4794 
L 3391 4794 
L 3391 63 
z
M 2847 1303 
L 2847 2097 
Q 2847 2413 2456 2706 
Q 2181 2906 1853 2906 
Q 1484 2906 1228 2650 
Q 888 2309 888 1678 
Q 888 1109 1169 750 
Q 1441 409 1847 409 
Q 2322 409 2656 875 
Q 2847 1134 2847 1303 
z
" transform="scale(0.015625)"/>
       <path id="IPAexGothic-66" d="M 2456 4622 
L 2228 4244 
Q 1991 4422 1741 4422 
Q 1184 4422 1184 3672 
L 1184 3250 
L 2053 3250 
L 2053 2859 
L 1184 2859 
L 1184 63 
L 641 63 
L 641 2859 
L 122 2859 
L 122 3250 
L 641 3250 
L 641 3659 
Q 641 4188 891 4484 
Q 1200 4844 1709 4844 
Q 2116 4844 2456 4622 
z
" transform="scale(0.015625)"/>
       <path id="IPAexGothic-71" d="M 3397 -1216 
L 2847 -1216 
L 2847 556 
Q 2441 -31 1759 -31 
Q 1181 -31 788 372 
Q 313 844 313 1656 
Q 313 2450 788 2925 
Q 1203 3341 1803 3341 
Q 2472 3341 2903 2803 
L 2981 3275 
L 3397 3275 
L 3397 -1216 
z
M 2847 1278 
L 2847 2091 
Q 2847 2272 2650 2509 
Q 2319 2906 1869 2906 
Q 1406 2906 1131 2516 
Q 888 2175 888 1672 
Q 888 1116 1169 756 
Q 1447 409 1853 409 
Q 2334 409 2669 875 
Q 2847 1131 2847 1278 
z
" transform="scale(0.015625)"/>
       <path id="IPAexGothic-63" d="M 3269 784 
Q 2834 -31 1900 -31 
Q 1228 -31 788 409 
Q 313 891 313 1663 
Q 313 2428 788 2913 
Q 1222 3347 1881 3347 
Q 2813 3347 3206 2541 
L 2763 2309 
Q 2484 2900 1900 2900 
Q 1516 2900 1234 2619 
Q 881 2266 881 1650 
Q 881 1069 1222 728 
Q 1522 428 1956 428 
Q 2547 428 2847 1016 
L 3269 784 
z
" transform="scale(0.015625)"/>
       <path id="IPAexGothic-79" d="M 3122 3250 
L 1575 -488 
Q 1278 -1203 550 -1203 
L 478 -1203 
L 344 -703 
L 447 -703 
Q 969 -703 1150 -238 
L 1356 275 
L 38 3250 
L 659 3250 
L 1363 1459 
Q 1528 1025 1606 781 
L 1625 781 
Q 1750 1169 1863 1459 
L 2528 3250 
L 3122 3250 
z
" transform="scale(0.015625)"/>
      </defs>
      <use xlink:href="#IPAexGothic-77"/>
      <use xlink:href="#IPAexGothic-6f" x="75.195312"/>
      <use xlink:href="#IPAexGothic-72" x="135.595703"/>
      <use xlink:href="#IPAexGothic-64" x="172.607422"/>
      <use xlink:href="#IPAexGothic-20" x="235.009766"/>
      <use xlink:href="#IPAexGothic-66" x="262.011719"/>
      <use xlink:href="#IPAexGothic-72" x="292.626953"/>
      <use xlink:href="#IPAexGothic-65" x="329.638672"/>
      <use xlink:href="#IPAexGothic-71" x="386.523438"/>
      <use xlink:href="#IPAexGothic-75" x="448.730469"/>
      <use xlink:href="#IPAexGothic-65" x="509.130859"/>
      <use xlink:href="#IPAexGothic-6e" x="566.015625"/>
      <use xlink:href="#IPAexGothic-63" x="626.416016"/>
      <use xlink:href="#IPAexGothic-79" x="680.810547"/>
     </g>
    </g>
   </g>
   <g id="line2d_82">
    <path d="M -1 59.965771 
L 73.832727 59.971879 
L 97.449774 60.21279 
L 111.26486 61.518691 
L 121.06682 62.61435 
L 128.669811 63.696469 
L 134.881907 65.136074 
L 140.134159 65.295232 
L 144.683866 68.624677 
L 148.696993 73.157687 
L 152.286857 76.690498 
L 155.534284 82.097841 
L 161.226184 82.097841 
L 163.751205 86.846132 
L 166.101944 88.632765 
L 168.300913 89.752742 
L 172.314039 94.321073 
L 174.156228 98.662046 
L 175.903904 100.186349 
L 177.566292 100.692659 
L 179.151331 107.121069 
L 180.6659 107.997969 
L 182.115999 111.6791 
L 183.506894 112.959701 
L 184.84323 113.170487 
L 186.129126 113.704935 
L 187.368252 113.813135 
L 188.56389 114.835587 
L 189.71899 114.92025 
L 190.836211 121.937488 
L 191.917959 122.122498 
L 193.983573 123.26064 
L 194.971242 123.848656 
L 195.931086 124.127611 
L 196.864629 125.653141 
L 198.658317 126.38475 
L 199.52095 127.95803 
L 200.362282 128.567127 
L 201.183338 130.129183 
L 202.768377 132.112786 
L 204.282946 132.221431 
L 206.43559 132.938739 
L 208.460277 135.215578 
L 209.10929 136.464076 
L 209.746172 136.850436 
L 210.985298 138.386189 
L 211.588361 138.524052 
L 212.763381 140.53378 
L 213.336037 141.213667 
L 213.899226 141.36716 
L 214.453258 142.069143 
L 214.998425 143.035135 
L 215.535006 143.282258 
L 216.063267 143.783554 
L 216.583464 143.868037 
L 217.095837 144.123119 
L 217.60062 144.728074 
L 218.098033 145.08009 
L 218.588289 146.165208 
L 220.939027 147.393375 
L 221.835716 147.685099 
L 222.70941 147.685099 
L 223.137996 148.278401 
L 223.561259 148.278401 
L 223.979328 148.681475 
L 224.392329 148.783212 
L 224.800384 149.090798 
L 225.20361 150.142762 
L 226.385423 151.126757 
L 226.770424 151.576144 
L 228.632756 152.148852 
L 228.993312 152.38146 
L 229.350092 152.972107 
L 229.703175 152.972107 
L 230.740987 154.572646 
L 231.415706 155.085299 
L 231.74812 156.007117 
L 232.077323 156.141473 
L 232.726337 156.96229 
L 233.67725 159.133442 
L 233.988414 159.133442 
L 234.296762 159.743893 
L 234.602344 160.68688 
L 234.90521 160.847371 
L 235.205408 161.171312 
L 235.797983 161.998991 
L 236.380427 162.337468 
L 236.667958 162.337468 
L 236.953083 162.508348 
L 237.235841 162.508348 
L 238.343978 163.203146 
L 238.884818 163.203146 
L 239.152052 163.379741 
L 239.417207 163.379741 
L 239.941405 163.916725 
L 240.45766 164.28088 
L 240.712884 164.836707 
L 240.96621 164.836707 
L 241.46728 165.404488 
L 241.715079 165.596495 
L 241.961089 165.984749 
L 242.205335 166.778819 
L 242.688637 166.778819 
L 243.165179 167.390448 
L 243.400973 167.597514 
L 243.867723 167.597514 
L 244.098722 168.657931 
L 245.007368 169.538039 
L 245.892409 169.538039 
L 246.110124 169.762728 
L 246.326456 169.762728 
L 247.178305 170.68111 
L 247.803501 170.68111 
L 248.214014 171.391489 
L 248.417431 171.391489 
L 248.61964 171.875921 
L 248.820657 171.875921 
L 249.020494 172.121512 
L 249.219167 172.121512 
L 249.416687 172.369409 
L 249.613069 172.369409 
L 249.808326 172.872296 
L 250.00247 172.872296 
L 250.195514 173.127379 
L 251.331359 173.127379 
L 251.517039 173.645058 
L 252.068084 173.645058 
L 252.430557 174.173092 
L 252.610358 174.173092 
L 252.789215 174.711903 
L 253.320221 174.711903 
L 253.4954 174.985489 
L 253.669683 174.985489 
L 253.843079 175.26194 
L 254.015597 175.26194 
L 254.187245 175.823681 
L 254.697063 175.823681 
L 254.865321 176.397634 
L 255.032753 176.397634 
L 255.199365 176.689359 
L 255.857785 176.689359 
L 256.020422 177.28266 
L 256.663312 177.28266 
L 256.822157 177.584387 
L 257.137643 177.584387 
L 257.294297 177.889602 
L 257.450234 177.889602 
L 257.605461 178.198387 
L 257.913808 178.198387 
L 258.066942 178.510827 
L 258.219391 178.510827 
L 258.37116 178.827008 
L 258.522257 178.827008 
L 258.822454 179.470962 
L 259.12003 179.470962 
L 259.267849 179.798927 
L 259.561576 179.798927 
L 259.707496 180.131017 
L 259.852793 180.131017 
L 259.997474 180.467338 
L 260.141543 180.467338 
L 260.711802 181.857175 
L 260.993392 181.857175 
L 261.133319 182.216375 
L 261.824462 182.216375 
L 261.961024 182.58053 
L 262.635743 182.58053 
L 262.769098 182.949778 
L 263.166061 182.949778 
L 263.29736 183.324264 
L 263.817556 183.324264 
L 264.074706 184.480689 
L 264.202557 184.480689 
L 264.456828 185.280775 
L 264.834712 185.280775 
L 264.959748 185.690098 
L 265.332126 185.690098 
L 265.455352 186.105868 
L 266.185499 186.105868 
L 266.305683 186.957581 
L 266.663713 186.957581 
L 266.782225 187.393968 
L 267.252194 187.393968 
L 267.36868 187.837689 
L 267.600465 187.837689 
L 267.715768 188.288996 
L 267.830683 188.288996 
L 268.059356 188.748153 
L 268.51215 188.748153 
L 268.73631 189.215436 
L 268.847839 189.215436 
L 269.069809 189.691139 
L 269.290341 189.691139 
L 269.509456 190.175571 
L 270.051156 190.175571 
L 270.265447 190.669059 
L 270.584378 190.669059 
L 270.795352 191.171947 
L 271.109383 191.171947 
L 271.317141 191.6846 
L 271.728895 191.6846 
L 272.034477 192.740773 
L 272.537768 192.740773 
L 272.737022 193.285139 
L 273.425372 193.285139 
L 273.619516 193.840967 
L 274.100091 193.840967 
L 274.290439 194.408748 
L 274.573982 194.408748 
L 274.761708 194.989009 
L 275.502437 194.989009 
L 275.68513 195.582311 
L 276.227405 195.582311 
L 276.406262 196.189253 
L 276.584185 196.189253 
L 276.761184 196.810477 
L 277.373538 196.810477 
L 277.546493 197.446672 
L 278.482368 197.446672 
L 278.649799 198.098577 
L 280.040694 198.098577 
L 280.200658 198.766988 
L 281.299856 198.766988 
L 281.454029 199.452762 
L 282.063839 199.452762 
L 282.214601 200.156825 
L 282.811066 200.156825 
L 282.958565 200.88018 
L 283.686631 200.88018 
L 283.830396 201.623915 
L 285.166731 201.623915 
L 285.304397 202.389209 
L 286.118911 202.389209 
L 286.25279 203.177352 
L 287.240459 203.177352 
L 287.370011 203.989749 
L 288.514334 203.989749 
L 288.639141 204.82794 
L 289.37853 204.82794 
L 289.500217 205.693618 
L 290.517373 205.693618 
L 290.635066 206.588647 
L 291.332815 206.588647 
L 291.447729 207.515086 
L 292.520514 207.515086 
L 292.686855 208.475222 
L 293.989136 208.475222 
L 294.148476 209.471597 
L 295.243468 209.471597 
L 295.397062 210.507056 
L 296.993709 210.507056 
L 297.139629 211.58479 
L 298.843594 211.58479 
L 298.981818 212.708398 
L 300.067876 212.708398 
L 300.201231 213.881961 
L 301.206642 213.881961 
L 301.335622 215.110127 
L 302.59926 215.110127 
L 302.723084 216.398227 
L 304.293138 216.398227 
L 304.410967 217.752412 
L 305.831647 217.752412 
L 305.944283 219.179831 
L 308.122161 219.179831 
L 308.26252 220.688859 
L 310.102866 220.688859 
L 310.235314 222.289399 
L 312.225028 222.289399 
L 312.349493 223.993268 
L 314.222727 223.993268 
L 314.340117 225.814736 
L 316.716236 225.814736 
L 316.85258 227.771247 
L 319.470779 227.771247 
L 319.596554 229.88444 
L 322.019194 229.88444 
L 322.13592 232.181611 
L 324.324691 232.181611 
L 324.455571 234.697878 
L 326.830974 234.697878 
L 326.952589 237.479481 
L 329.692268 237.479481 
L 329.804103 240.589049 
L 333.486882 240.589049 
L 333.603597 244.114387 
L 337.898519 244.114387 
L 338.015706 248.18409 
L 342.516025 248.18409 
L 342.631155 252.997528 
L 348.483782 252.997528 
L 348.601883 258.888699 
L 355.020564 258.888699 
L 355.135778 266.483741 
L 363.669108 266.483741 
L 363.785993 277.18835 
L 376.574493 277.18835 
L 376.687487 295.488 
L 398.487273 295.488 
L 398.487273 295.488 
" clip-path="url(#p45f7600881)" style="fill: none; stroke: #1f77b4; stroke-width: 1.5; stroke-linecap: square"/>
   </g>
   <g id="patch_3">
    <path d="M 57.6 307.584 
L 57.6 41.472 
" style="fill: none; stroke: #000000; stroke-width: 0.8; stroke-linejoin: miter; stroke-linecap: square"/>
   </g>
   <g id="patch_4">
    <path d="M 414.72 307.584 
L 414.72 41.472 
" style="fill: none; stroke: #000000; stroke-width: 0.8; stroke-linejoin: miter; stroke-linecap: square"/>
   </g>
   <g id="patch_5">
    <path d="M 57.6 307.584 
L 414.72 307.584 
" style="fill: none; stroke: #000000; stroke-width: 0.8; stroke-linejoin: miter; stroke-linecap: square"/>
   </g>
   <g id="patch_6">
    <path d="M 57.6 41.472 
L 414.72 41.472 
" style="fill: none; stroke: #000000; stroke-width: 0.8; stroke-linejoin: miter; stroke-linecap: square"/>
   </g>
   <g id="text_13">
    <!-- [39] Zipf's law -->
    <g transform="translate(197.369062 35.472) scale(0.12 -0.12)">
     <defs>
      <path id="IPAexGothic-5b" d="M 1706 -991 
L 581 -991 
L 581 4750 
L 1706 4750 
L 1706 4438 
L 1028 4438 
L 1028 -678 
L 1706 -678 
L 1706 -991 
z
" transform="scale(0.015625)"/>
      <path id="IPAexGothic-39" d="M 2984 2356 
Q 2544 1716 1813 1716 
Q 1253 1716 847 2056 
Q 366 2459 366 3163 
Q 366 3813 769 4266 
Q 1181 4725 1869 4725 
Q 2800 4725 3241 3950 
Q 3559 3378 3559 2472 
Q 3559 1250 3041 588 
Q 2553 -31 1769 -31 
Q 859 -31 391 703 
L 853 953 
Q 1156 428 1753 428 
Q 2922 428 3009 2356 
L 2984 2356 
z
M 1888 4278 
Q 1450 4278 1172 3950 
Q 922 3653 922 3200 
Q 922 2741 1159 2478 
Q 1434 2163 1906 2163 
Q 2431 2163 2728 2572 
Q 2925 2847 2925 3169 
Q 2925 3553 2694 3863 
Q 2375 4278 1888 4278 
z
" transform="scale(0.015625)"/>
      <path id="IPAexGothic-5d" d="M 1322 -991 
L 197 -991 
L 197 -678 
L 875 -678 
L 875 4438 
L 197 4438 
L 197 4750 
L 1322 4750 
L 1322 -991 
z
" transform="scale(0.015625)"/>
      <path id="IPAexGothic-5a" d="M 3881 63 
L 213 63 
L 213 472 
L 2406 3366 
Q 2572 3591 3022 4122 
L 3022 4141 
L 403 4141 
L 403 4634 
L 3713 4634 
L 3713 4178 
L 1544 1306 
Q 1184 834 969 588 
L 969 563 
L 3881 563 
L 3881 63 
z
" transform="scale(0.015625)"/>
      <path id="IPAexGothic-69" d="M 1178 3928 
L 550 3928 
L 550 4569 
L 1178 4569 
L 1178 3928 
z
M 1138 63 
L 588 63 
L 588 3250 
L 1138 3250 
L 1138 63 
z
" transform="scale(0.015625)"/>
      <path id="IPAexGothic-70" d="M 1075 2688 
Q 1525 3341 2206 3341 
Q 2769 3341 3172 2938 
Q 3641 2469 3641 1644 
Q 3641 841 3178 372 
Q 2775 -31 2200 -31 
Q 1569 -31 1106 497 
L 1106 -1216 
L 563 -1216 
L 563 3250 
L 1075 3250 
L 1075 2688 
z
M 1106 1950 
L 1106 1291 
Q 1106 897 1516 600 
Q 1791 403 2106 403 
Q 2469 403 2725 659 
Q 3066 997 3066 1631 
Q 3066 2200 2784 2559 
Q 2503 2900 2100 2900 
Q 1656 2900 1338 2484 
Q 1106 2184 1106 1950 
z
" transform="scale(0.015625)"/>
      <path id="IPAexGothic-27" d="M 900 4794 
L 806 3084 
L 422 3084 
L 325 4794 
L 900 4794 
z
" transform="scale(0.015625)"/>
      <path id="IPAexGothic-73" d="M 2234 2547 
Q 1938 2931 1484 2931 
Q 891 2931 891 2475 
Q 891 2153 1531 1944 
L 1741 1875 
Q 2650 1578 2650 894 
Q 2650 434 2272 172 
Q 1972 -31 1497 -31 
Q 766 -31 256 503 
L 603 819 
Q 997 397 1516 397 
Q 2131 397 2131 875 
Q 2131 1238 1453 1478 
L 1234 1553 
Q 378 1853 378 2431 
Q 378 2797 628 3047 
Q 928 3347 1453 3347 
Q 2156 3347 2606 2859 
L 2234 2547 
z
" transform="scale(0.015625)"/>
      <path id="IPAexGothic-6c" d="M 1131 63 
L 581 63 
L 581 4794 
L 1131 4794 
L 1131 63 
z
" transform="scale(0.015625)"/>
     </defs>
     <use xlink:href="#IPAexGothic-5b"/>
     <use xlink:href="#IPAexGothic-33" x="29.980469"/>
     <use xlink:href="#IPAexGothic-39" x="92.96875"/>
     <use xlink:href="#IPAexGothic-5d" x="155.957031"/>
     <use xlink:href="#IPAexGothic-20" x="185.9375"/>
     <use xlink:href="#IPAexGothic-5a" x="212.939453"/>
     <use xlink:href="#IPAexGothic-69" x="277.148438"/>
     <use xlink:href="#IPAexGothic-70" x="304.150391"/>
     <use xlink:href="#IPAexGothic-66" x="366.259766"/>
     <use xlink:href="#IPAexGothic-27" x="396.875"/>
     <use xlink:href="#IPAexGothic-73" x="416.162109"/>
     <use xlink:href="#IPAexGothic-20" x="462.353516"/>
     <use xlink:href="#IPAexGothic-6c" x="489.355469"/>
     <use xlink:href="#IPAexGothic-61" x="516.357422"/>
     <use xlink:href="#IPAexGothic-77" x="571.337891"/>
    </g>
   </g>
  </g>
 </g>
 <defs>
  <clipPath id="p45f7600881">
   <rect x="57.6" y="41.472" width="357.12" height="266.112"/>
  </clipPath>
 </defs>
</svg>
