<?xml version="1.0" encoding="utf-8" standalone="no"?>
<!DOCTYPE svg PUBLIC "-//W3C//DTD SVG 1.1//EN"
  "http://www.w3.org/Graphics/SVG/1.1/DTD/svg11.dtd">
<svg xmlns:xlink="http://www.w3.org/1999/xlink" width="864pt" height="576pt" viewBox="0 0 864 576" xmlns="http://www.w3.org/2000/svg" version="1.1">
 <metadata>
  <rdf:RDF xmlns:dc="http://purl.org/dc/elements/1.1/" xmlns:cc="http://creativecommons.org/ns#" xmlns:rdf="http://www.w3.org/1999/02/22-rdf-syntax-ns#">
   <cc:Work>
    <dc:type rdf:resource="http://purl.org/dc/dcmitype/StillImage"/>
    <dc:date>2023-04-27T15:16:22.904591</dc:date>
    <dc:format>image/svg+xml</dc:format>
    <dc:creator>
     <cc:Agent>
      <dc:title>Matplotlib v3.7.1, https://matplotlib.org/</dc:title>
     </cc:Agent>
    </dc:creator>
   </cc:Work>
  </rdf:RDF>
 </metadata>
 <defs>
  <style type="text/css">*{stroke-linejoin: round; stroke-linecap: butt}</style>
 </defs>
 <g id="figure_1">
  <g id="patch_1">
   <path d="M 0 576 
L 864 576 
L 864 0 
L 0 0 
z
" style="fill: #ffffff"/>
  </g>
  <g id="axes_1">
   <g id="patch_2">
    <path d="M 108 270.72 
L 412.363636 270.72 
L 412.363636 69.12 
L 108 69.12 
z
" style="fill: #ffffff"/>
   </g>
   <g id="patch_3">
    <path d="M 108 78.283636 
L 397.87013 78.283636 
L 397.87013 93.244675 
L 108 93.244675 
z
" clip-path="url(#p82a9064e9e)" style="fill: #1f77b4"/>
   </g>
   <g id="patch_4">
    <path d="M 108 96.984935 
L 314.079545 96.984935 
L 314.079545 111.945974 
L 108 111.945974 
z
" clip-path="url(#p82a9064e9e)" style="fill: #1f77b4"/>
   </g>
   <g id="patch_5">
    <path d="M 108 115.686234 
L 308.795455 115.686234 
L 308.795455 130.647273 
L 108 130.647273 
z
" clip-path="url(#p82a9064e9e)" style="fill: #1f77b4"/>
   </g>
   <g id="patch_6">
    <path d="M 108 134.387532 
L 298.982143 134.387532 
L 298.982143 149.348571 
L 108 149.348571 
z
" clip-path="url(#p82a9064e9e)" style="fill: #1f77b4"/>
   </g>
   <g id="patch_7">
    <path d="M 108 153.088831 
L 294.452922 153.088831 
L 294.452922 168.04987 
L 108 168.04987 
z
" clip-path="url(#p82a9064e9e)" style="fill: #1f77b4"/>
   </g>
   <g id="patch_8">
    <path d="M 108 171.79013 
L 280.86526 171.79013 
L 280.86526 186.751169 
L 108 186.751169 
z
" clip-path="url(#p82a9064e9e)" style="fill: #1f77b4"/>
   </g>
   <g id="patch_9">
    <path d="M 108 190.491429 
L 271.051948 190.491429 
L 271.051948 205.452468 
L 108 205.452468 
z
" clip-path="url(#p82a9064e9e)" style="fill: #1f77b4"/>
   </g>
   <g id="patch_10">
    <path d="M 108 209.192727 
L 265.767857 209.192727 
L 265.767857 224.153766 
L 108 224.153766 
z
" clip-path="url(#p82a9064e9e)" style="fill: #1f77b4"/>
   </g>
   <g id="patch_11">
    <path d="M 108 227.894026 
L 248.405844 227.894026 
L 248.405844 242.855065 
L 108 242.855065 
z
" clip-path="url(#p82a9064e9e)" style="fill: #1f77b4"/>
   </g>
   <g id="patch_12">
    <path d="M 108 246.595325 
L 238.592532 246.595325 
L 238.592532 261.556364 
L 108 261.556364 
z
" clip-path="url(#p82a9064e9e)" style="fill: #1f77b4"/>
   </g>
   <g id="matplotlib.axis_1">
    <g id="xtick_1">
     <g id="line2d_1">
      <defs>
       <path id="m237e58a47a" d="M 0 0 
L 0 3.5 
" style="stroke: #000000; stroke-width: 0.8"/>
      </defs>
      <g>
       <use xlink:href="#m237e58a47a" x="108" y="270.72" style="stroke: #000000; stroke-width: 0.8"/>
      </g>
     </g>
     <g id="text_1">
      <!-- 0 -->
      <g transform="translate(104.850781 285.210625) scale(0.1 -0.1)">
       <defs>
        <path id="IPAexGothic-30" d="M 2038 4725 
Q 2881 4725 3334 3944 
Q 3694 3325 3694 2344 
Q 3694 1372 3334 741 
Q 2888 -31 2016 -31 
Q 1147 -31 700 741 
Q 341 1372 341 2350 
Q 341 3713 1000 4334 
Q 1419 4725 2038 4725 
z
M 2016 4266 
Q 1516 4266 1228 3759 
Q 934 3247 934 2344 
Q 934 1456 1222 947 
Q 1513 447 2016 447 
Q 2619 447 2909 1153 
Q 3100 1622 3100 2375 
Q 3100 3256 2806 3759 
Q 2509 4266 2016 4266 
z
" transform="scale(0.015625)"/>
       </defs>
       <use xlink:href="#IPAexGothic-30"/>
      </g>
     </g>
    </g>
    <g id="xtick_2">
     <g id="line2d_2">
      <g>
       <use xlink:href="#m237e58a47a" x="145.743506" y="270.72" style="stroke: #000000; stroke-width: 0.8"/>
      </g>
     </g>
     <g id="text_2">
      <!-- 50 -->
      <g transform="translate(139.445069 285.210625) scale(0.1 -0.1)">
       <defs>
        <path id="IPAexGothic-35" d="M 1178 2603 
Q 1634 2963 2172 2963 
Q 2816 2963 3241 2528 
Q 3638 2113 3638 1497 
Q 3638 938 3297 513 
Q 2869 -31 2031 -31 
Q 959 -31 469 784 
L 938 1028 
Q 1309 434 2013 434 
Q 2466 434 2769 716 
Q 3081 1013 3081 1503 
Q 3081 1966 2806 2241 
Q 2519 2528 2056 2528 
Q 1406 2528 1072 2028 
L 591 2091 
L 884 4634 
L 3406 4634 
L 3406 4153 
L 1341 4153 
L 1134 2603 
L 1178 2603 
z
" transform="scale(0.015625)"/>
       </defs>
       <use xlink:href="#IPAexGothic-35"/>
       <use xlink:href="#IPAexGothic-30" x="62.988281"/>
      </g>
     </g>
    </g>
    <g id="xtick_3">
     <g id="line2d_3">
      <g>
       <use xlink:href="#m237e58a47a" x="183.487013" y="270.72" style="stroke: #000000; stroke-width: 0.8"/>
      </g>
     </g>
     <g id="text_3">
      <!-- 100 -->
      <g transform="translate(174.039357 285.210625) scale(0.1 -0.1)">
       <defs>
        <path id="IPAexGothic-31" d="M 2463 63 
L 1900 63 
L 1900 4103 
Q 1372 3922 788 3797 
L 684 4231 
Q 1519 4441 2106 4731 
L 2463 4731 
L 2463 63 
z
" transform="scale(0.015625)"/>
       </defs>
       <use xlink:href="#IPAexGothic-31"/>
       <use xlink:href="#IPAexGothic-30" x="62.988281"/>
       <use xlink:href="#IPAexGothic-30" x="125.976562"/>
      </g>
     </g>
    </g>
    <g id="xtick_4">
     <g id="line2d_4">
      <g>
       <use xlink:href="#m237e58a47a" x="221.230519" y="270.72" style="stroke: #000000; stroke-width: 0.8"/>
      </g>
     </g>
     <g id="text_4">
      <!-- 150 -->
      <g transform="translate(211.782863 285.210625) scale(0.1 -0.1)">
       <use xlink:href="#IPAexGothic-31"/>
       <use xlink:href="#IPAexGothic-35" x="62.988281"/>
       <use xlink:href="#IPAexGothic-30" x="125.976562"/>
      </g>
     </g>
    </g>
    <g id="xtick_5">
     <g id="line2d_5">
      <g>
       <use xlink:href="#m237e58a47a" x="258.974026" y="270.72" style="stroke: #000000; stroke-width: 0.8"/>
      </g>
     </g>
     <g id="text_5">
      <!-- 200 -->
      <g transform="translate(249.52637 285.210625) scale(0.1 -0.1)">
       <defs>
        <path id="IPAexGothic-32" d="M 3659 63 
L 447 63 
L 447 594 
Q 825 1475 1894 2203 
L 2072 2322 
Q 2619 2697 2791 2906 
Q 2988 3153 2988 3444 
Q 2988 3772 2756 4003 
Q 2500 4259 2084 4259 
Q 1250 4259 991 3328 
L 497 3506 
Q 853 4725 2116 4725 
Q 2806 4725 3216 4316 
Q 3575 3947 3575 3425 
Q 3575 3038 3344 2722 
Q 3131 2416 2366 1938 
L 2231 1856 
Q 1256 1253 978 569 
L 3659 569 
L 3659 63 
z
" transform="scale(0.015625)"/>
       </defs>
       <use xlink:href="#IPAexGothic-32"/>
       <use xlink:href="#IPAexGothic-30" x="62.988281"/>
       <use xlink:href="#IPAexGothic-30" x="125.976562"/>
      </g>
     </g>
    </g>
    <g id="xtick_6">
     <g id="line2d_6">
      <g>
       <use xlink:href="#m237e58a47a" x="296.717532" y="270.72" style="stroke: #000000; stroke-width: 0.8"/>
      </g>
     </g>
     <g id="text_6">
      <!-- 250 -->
      <g transform="translate(287.269876 285.210625) scale(0.1 -0.1)">
       <use xlink:href="#IPAexGothic-32"/>
       <use xlink:href="#IPAexGothic-35" x="62.988281"/>
       <use xlink:href="#IPAexGothic-30" x="125.976562"/>
      </g>
     </g>
    </g>
    <g id="xtick_7">
     <g id="line2d_7">
      <g>
       <use xlink:href="#m237e58a47a" x="334.461039" y="270.72" style="stroke: #000000; stroke-width: 0.8"/>
      </g>
     </g>
     <g id="text_7">
      <!-- 300 -->
      <g transform="translate(325.013383 285.210625) scale(0.1 -0.1)">
       <defs>
        <path id="IPAexGothic-33" d="M 2381 2419 
Q 3506 2216 3506 1278 
Q 3506 716 3128 356 
Q 2709 -31 1944 -31 
Q 797 -31 288 881 
L 756 1131 
Q 1109 441 1938 441 
Q 2425 441 2694 691 
Q 2950 928 2950 1291 
Q 2950 1719 2566 1978 
Q 2216 2213 1644 2213 
L 1363 2213 
L 1363 2669 
L 1656 2669 
Q 2231 2669 2534 2888 
Q 2859 3119 2859 3509 
Q 2859 3934 2494 4138 
Q 2259 4278 1931 4278 
Q 1238 4278 903 3578 
L 434 3803 
Q 897 4725 1938 4725 
Q 2597 4725 3006 4394 
Q 3416 4069 3416 3534 
Q 3416 3028 3019 2706 
Q 2763 2500 2381 2444 
L 2381 2419 
z
" transform="scale(0.015625)"/>
       </defs>
       <use xlink:href="#IPAexGothic-33"/>
       <use xlink:href="#IPAexGothic-30" x="62.988281"/>
       <use xlink:href="#IPAexGothic-30" x="125.976562"/>
      </g>
     </g>
    </g>
    <g id="xtick_8">
     <g id="line2d_8">
      <g>
       <use xlink:href="#m237e58a47a" x="372.204545" y="270.72" style="stroke: #000000; stroke-width: 0.8"/>
      </g>
     </g>
     <g id="text_8">
      <!-- 350 -->
      <g transform="translate(362.756889 285.210625) scale(0.1 -0.1)">
       <use xlink:href="#IPAexGothic-33"/>
       <use xlink:href="#IPAexGothic-35" x="62.988281"/>
       <use xlink:href="#IPAexGothic-30" x="125.976562"/>
      </g>
     </g>
    </g>
    <g id="xtick_9">
     <g id="line2d_9">
      <g>
       <use xlink:href="#m237e58a47a" x="409.948052" y="270.72" style="stroke: #000000; stroke-width: 0.8"/>
      </g>
     </g>
     <g id="text_9">
      <!-- 400 -->
      <g transform="translate(400.500396 285.210625) scale(0.1 -0.1)">
       <defs>
        <path id="IPAexGothic-34" d="M 3813 1159 
L 3059 1159 
L 3059 63 
L 2547 63 
L 2547 1159 
L 197 1159 
L 197 1672 
L 2456 4678 
L 3059 4678 
L 3059 1634 
L 3813 1634 
L 3813 1159 
z
M 2578 4109 
L 2559 4109 
Q 2278 3656 2003 3284 
L 759 1634 
L 2547 1634 
L 2547 3144 
Q 2547 3481 2578 4109 
z
" transform="scale(0.015625)"/>
       </defs>
       <use xlink:href="#IPAexGothic-34"/>
       <use xlink:href="#IPAexGothic-30" x="62.988281"/>
       <use xlink:href="#IPAexGothic-30" x="125.976562"/>
      </g>
     </g>
    </g>
   </g>
   <g id="matplotlib.axis_2">
    <g id="ytick_1">
     <g id="line2d_10">
      <defs>
       <path id="m0b52c3712c" d="M 0 0 
L -3.5 0 
" style="stroke: #000000; stroke-width: 0.8"/>
      </defs>
      <g>
       <use xlink:href="#m0b52c3712c" x="108" y="85.764156" style="stroke: #000000; stroke-width: 0.8"/>
      </g>
     </g>
     <g id="text_10">
      <!-- の -->
      <g transform="translate(91 89.509468) scale(0.1 -0.1)">
       <defs>
        <path id="IPAexGothic-306e" d="M 3119 469 
Q 5275 766 5275 2425 
Q 5275 3453 4413 3925 
Q 4041 4116 3547 4159 
Q 3394 2525 2850 1400 
Q 2322 306 1722 306 
Q 1384 306 1084 666 
Q 609 1244 609 2003 
Q 609 3025 1397 3794 
Q 2184 4563 3431 4563 
Q 4306 4563 4928 4122 
Q 5813 3506 5813 2425 
Q 5813 438 3431 6 
L 3119 469 
z
M 3053 4147 
Q 2378 4044 1891 3641 
Q 1097 2981 1097 1991 
Q 1097 1366 1434 978 
Q 1581 813 1719 813 
Q 2022 813 2416 1625 
Q 2909 2638 3053 4147 
z
" transform="scale(0.015625)"/>
       </defs>
       <use xlink:href="#IPAexGothic-306e"/>
      </g>
     </g>
    </g>
    <g id="ytick_2">
     <g id="line2d_11">
      <g>
       <use xlink:href="#m0b52c3712c" x="108" y="104.465455" style="stroke: #000000; stroke-width: 0.8"/>
      </g>
     </g>
     <g id="text_11">
      <!-- は -->
      <g transform="translate(91 108.210767) scale(0.1 -0.1)">
       <defs>
        <path id="IPAexGothic-306f" d="M 4066 4875 
L 4538 4875 
L 4556 3769 
Q 5003 3816 5581 3941 
L 5619 3469 
Q 5256 3394 4563 3322 
L 4597 1441 
Q 5100 1284 5934 756 
L 5656 313 
Q 5066 772 4609 978 
Q 4609 441 4384 225 
Q 4128 -13 3634 -13 
Q 2991 -13 2669 231 
Q 2388 444 2388 831 
Q 2388 1225 2772 1484 
Q 3050 1669 3534 1669 
Q 3759 1669 4134 1594 
L 4097 3288 
Q 3697 3269 3359 3269 
Q 2925 3269 2484 3300 
L 2466 3763 
Q 2953 3716 3456 3716 
Q 3738 3716 4091 3738 
L 4066 4875 
z
M 4141 1153 
Q 3753 1259 3513 1259 
Q 2841 1259 2841 850 
Q 2841 422 3634 422 
Q 3888 422 4022 569 
Q 4141 700 4141 922 
Q 4141 1088 4141 1153 
z
M 1000 -50 
Q 794 1072 794 1931 
Q 794 3153 1247 4884 
L 1728 4763 
Q 1269 3044 1269 1900 
Q 1269 1569 1306 1106 
Q 1591 1706 1753 1997 
L 2075 1806 
Q 1484 716 1484 141 
Q 1484 72 1491 0 
L 1000 -50 
z
" transform="scale(0.015625)"/>
       </defs>
       <use xlink:href="#IPAexGothic-306f"/>
      </g>
     </g>
    </g>
    <g id="ytick_3">
     <g id="line2d_12">
      <g>
       <use xlink:href="#m0b52c3712c" x="108" y="123.166753" style="stroke: #000000; stroke-width: 0.8"/>
      </g>
     </g>
     <g id="text_12">
      <!-- に -->
      <g transform="translate(91 126.912066) scale(0.1 -0.1)">
       <defs>
        <path id="IPAexGothic-306b" d="M 1088 -38 
Q 922 1003 922 2081 
Q 922 3222 1331 4794 
L 1813 4684 
Q 1391 3113 1391 2003 
Q 1391 1441 1422 1147 
Q 1434 1181 1813 2016 
L 2125 1797 
Q 1800 1081 1691 763 
Q 1581 453 1581 269 
Q 1581 78 1588 6 
L 1088 -38 
z
M 2834 4038 
Q 3969 4213 5313 4172 
L 5338 3681 
Q 3959 3728 2869 3547 
L 2834 4038 
z
M 5650 256 
Q 5044 172 4372 172 
Q 3463 172 3047 434 
Q 2784 594 2675 841 
Q 2572 1075 2572 1447 
Q 2572 1563 2578 1656 
L 3053 1684 
Q 3050 1613 3044 1528 
Q 3041 1481 3041 1466 
Q 3041 1200 3119 1053 
Q 3178 944 3309 850 
Q 3569 678 4275 678 
Q 4891 678 5588 763 
L 5650 256 
z
" transform="scale(0.015625)"/>
       </defs>
       <use xlink:href="#IPAexGothic-306b"/>
      </g>
     </g>
    </g>
    <g id="ytick_4">
     <g id="line2d_13">
      <g>
       <use xlink:href="#m0b52c3712c" x="108" y="141.868052" style="stroke: #000000; stroke-width: 0.8"/>
      </g>
     </g>
     <g id="text_13">
      <!-- 、 -->
      <g transform="translate(91 145.613364) scale(0.1 -0.1)">
       <defs>
        <path id="IPAexGothic-3001" d="M 1325 -409 
Q 859 319 281 856 
L 691 1209 
Q 1225 734 1772 -25 
L 1325 -409 
z
" transform="scale(0.015625)"/>
       </defs>
       <use xlink:href="#IPAexGothic-3001"/>
      </g>
     </g>
    </g>
    <g id="ytick_5">
     <g id="line2d_14">
      <g>
       <use xlink:href="#m0b52c3712c" x="108" y="160.569351" style="stroke: #000000; stroke-width: 0.8"/>
      </g>
     </g>
     <g id="text_14">
      <!-- て -->
      <g transform="translate(91 164.314663) scale(0.1 -0.1)">
       <defs>
        <path id="IPAexGothic-3066" d="M 581 4034 
Q 2978 4363 5466 4556 
L 5509 4097 
Q 4388 4031 3750 3572 
Q 2797 2878 2797 1913 
Q 2797 1169 3291 819 
Q 3778 484 4869 416 
L 4906 -116 
Q 2278 0 2278 1850 
Q 2278 3125 3691 4000 
Q 2066 3784 684 3553 
L 581 4034 
z
" transform="scale(0.015625)"/>
       </defs>
       <use xlink:href="#IPAexGothic-3066"/>
      </g>
     </g>
    </g>
    <g id="ytick_6">
     <g id="line2d_15">
      <g>
       <use xlink:href="#m0b52c3712c" x="108" y="179.270649" style="stroke: #000000; stroke-width: 0.8"/>
      </g>
     </g>
     <g id="text_15">
      <!-- と -->
      <g transform="translate(91 183.015962) scale(0.1 -0.1)">
       <defs>
        <path id="IPAexGothic-3068" d="M 5222 56 
Q 4200 -72 3450 -72 
Q 2478 -72 1941 113 
Q 1184 372 1184 1038 
Q 1184 1584 1594 2009 
Q 1941 2369 2656 2725 
Q 2231 3734 1972 4878 
L 2491 4978 
Q 2706 3884 3078 2950 
Q 4250 3447 4756 3616 
L 4978 3150 
Q 3181 2575 2409 2078 
Q 1691 1613 1691 1113 
Q 1691 403 3322 403 
Q 4125 403 5134 563 
L 5222 56 
z
" transform="scale(0.015625)"/>
       </defs>
       <use xlink:href="#IPAexGothic-3068"/>
      </g>
     </g>
    </g>
    <g id="ytick_7">
     <g id="line2d_16">
      <g>
       <use xlink:href="#m0b52c3712c" x="108" y="197.971948" style="stroke: #000000; stroke-width: 0.8"/>
      </g>
     </g>
     <g id="text_16">
      <!-- を -->
      <g transform="translate(91 201.717261) scale(0.1 -0.1)">
       <defs>
        <path id="IPAexGothic-3092" d="M 1094 4263 
Q 1544 4222 2359 4222 
Q 2581 4734 2700 5163 
L 3175 5028 
Q 2997 4538 2859 4256 
Q 3516 4284 4294 4459 
L 4356 4019 
Q 3603 3869 2656 3819 
Q 2391 3284 2059 2797 
Q 2531 3200 2963 3200 
Q 3638 3200 3859 2378 
Q 4556 2681 5338 2950 
L 5575 2528 
Q 4641 2253 3941 1956 
Q 3981 1678 3994 1028 
L 3513 991 
Q 3513 1456 3494 1753 
Q 2388 1194 2388 716 
Q 2388 428 2753 328 
Q 3066 241 3806 241 
Q 4394 241 5178 344 
L 5216 -128 
Q 4434 -213 3653 -213 
Q 2656 -213 2244 41 
Q 1913 244 1913 631 
Q 1913 1094 2344 1497 
Q 2709 1841 3428 2181 
Q 3266 2797 2878 2797 
Q 2238 2797 1209 1419 
L 838 1694 
Q 1625 2716 2163 3800 
Q 1522 3800 1088 3825 
L 1094 4263 
z
" transform="scale(0.015625)"/>
       </defs>
       <use xlink:href="#IPAexGothic-3092"/>
      </g>
     </g>
    </g>
    <g id="ytick_8">
     <g id="line2d_17">
      <g>
       <use xlink:href="#m0b52c3712c" x="108" y="216.673247" style="stroke: #000000; stroke-width: 0.8"/>
      </g>
     </g>
     <g id="text_17">
      <!-- 。 -->
      <g transform="translate(91 220.418559) scale(0.1 -0.1)">
       <defs>
        <path id="IPAexGothic-3002" d="M 1166 1241 
Q 1366 1241 1563 1138 
Q 2009 900 2009 391 
Q 2009 188 1913 6 
Q 1675 -459 1159 -459 
Q 941 -459 753 -356 
Q 306 -119 306 397 
Q 306 744 569 1003 
Q 806 1241 1166 1241 
z
M 1159 916 
Q 953 916 797 781 
Q 631 625 631 391 
Q 631 278 681 166 
Q 819 -134 1159 -134 
Q 1309 -134 1434 -56 
Q 1684 88 1684 391 
Q 1684 722 1397 866 
Q 1281 916 1159 916 
z
" transform="scale(0.015625)"/>
       </defs>
       <use xlink:href="#IPAexGothic-3002"/>
      </g>
     </g>
    </g>
    <g id="ytick_9">
     <g id="line2d_18">
      <g>
       <use xlink:href="#m0b52c3712c" x="108" y="235.374545" style="stroke: #000000; stroke-width: 0.8"/>
      </g>
     </g>
     <g id="text_18">
      <!-- で -->
      <g transform="translate(91 239.119858) scale(0.1 -0.1)">
       <defs>
        <path id="IPAexGothic-3067" d="M 581 4034 
Q 2978 4363 5466 4556 
L 5509 4097 
Q 4388 4031 3750 3572 
Q 2797 2878 2797 1913 
Q 2797 1169 3291 819 
Q 3778 484 4869 416 
L 4906 -116 
Q 2278 0 2278 1850 
Q 2278 3125 3691 4000 
Q 2066 3784 684 3553 
L 581 4034 
z
M 5631 2522 
Q 5269 3063 4875 3391 
L 5175 3622 
Q 5559 3313 5950 2797 
L 5631 2522 
z
M 5034 2053 
Q 4747 2544 4300 2944 
L 4613 3184 
Q 4984 2878 5369 2328 
L 5034 2053 
z
" transform="scale(0.015625)"/>
       </defs>
       <use xlink:href="#IPAexGothic-3067"/>
      </g>
     </g>
    </g>
    <g id="ytick_10">
     <g id="line2d_19">
      <g>
       <use xlink:href="#m0b52c3712c" x="108" y="254.075844" style="stroke: #000000; stroke-width: 0.8"/>
      </g>
     </g>
     <g id="text_19">
      <!-- が -->
      <g transform="translate(91 257.821157) scale(0.1 -0.1)">
       <defs>
        <path id="IPAexGothic-304c" d="M 659 3384 
Q 1434 3503 2113 3581 
Q 2313 4341 2394 4972 
L 2900 4875 
Q 2759 4147 2619 3628 
L 2719 3634 
Q 2894 3641 3041 3641 
Q 4072 3641 4072 2369 
Q 4072 1128 3700 384 
Q 3478 -56 3003 -56 
Q 2591 -56 2113 231 
L 2138 775 
Q 2631 444 2925 444 
Q 3169 444 3297 706 
Q 3566 1294 3566 2388 
Q 3566 3219 3016 3219 
Q 2825 3219 2497 3194 
Q 2388 2763 2113 2047 
Q 1634 797 1119 -38 
L 678 244 
Q 1356 1238 1863 2750 
Q 1888 2819 1991 3128 
Q 1594 3081 769 2916 
L 659 3384 
z
M 5441 1838 
Q 4913 3038 4091 3916 
L 4475 4184 
Q 5350 3269 5888 2156 
L 5441 1838 
z
M 5913 4275 
Q 5553 4819 5159 5147 
L 5459 5375 
Q 5844 5066 6234 4550 
L 5913 4275 
z
M 5344 3788 
Q 5053 4278 4609 4678 
L 4922 4922 
Q 5294 4613 5678 4063 
L 5344 3788 
z
" transform="scale(0.015625)"/>
       </defs>
       <use xlink:href="#IPAexGothic-304c"/>
      </g>
     </g>
    </g>
   </g>
   <g id="patch_13">
    <path d="M 108 270.72 
L 108 69.12 
" style="fill: none; stroke: #000000; stroke-width: 0.8; stroke-linejoin: miter; stroke-linecap: square"/>
   </g>
   <g id="patch_14">
    <path d="M 412.363636 270.72 
L 412.363636 69.12 
" style="fill: none; stroke: #000000; stroke-width: 0.8; stroke-linejoin: miter; stroke-linecap: square"/>
   </g>
   <g id="patch_15">
    <path d="M 108 270.72 
L 412.363636 270.72 
" style="fill: none; stroke: #000000; stroke-width: 0.8; stroke-linejoin: miter; stroke-linecap: square"/>
   </g>
   <g id="patch_16">
    <path d="M 108 69.12 
L 412.363636 69.12 
" style="fill: none; stroke: #000000; stroke-width: 0.8; stroke-linejoin: miter; stroke-linecap: square"/>
   </g>
   <g id="text_20">
    <!-- ALL -->
    <g transform="translate(250.047443 63.12) scale(0.12 -0.12)">
     <defs>
      <path id="IPAexGothic-41" d="M 4056 63 
L 3444 63 
L 2938 1409 
L 1100 1409 
L 603 63 
L -6 63 
L 1806 4666 
L 2259 4666 
L 4056 63 
z
M 2778 1863 
L 2316 3078 
Q 2125 3588 2028 4000 
L 2009 4000 
Q 1897 3563 1716 3078 
L 1263 1863 
L 2778 1863 
z
" transform="scale(0.015625)"/>
      <path id="IPAexGothic-4c" d="M 3347 63 
L 609 63 
L 609 4634 
L 1178 4634 
L 1178 563 
L 3347 563 
L 3347 63 
z
" transform="scale(0.015625)"/>
     </defs>
     <use xlink:href="#IPAexGothic-41"/>
     <use xlink:href="#IPAexGothic-4c" x="63.720703"/>
     <use xlink:href="#IPAexGothic-4c" x="116.308594"/>
    </g>
   </g>
  </g>
  <g id="axes_2">
   <g id="patch_17">
    <path d="M 473.236364 270.72 
L 777.6 270.72 
L 777.6 69.12 
L 473.236364 69.12 
z
" style="fill: #ffffff"/>
   </g>
   <g id="patch_18">
    <path d="M 473.236364 78.283636 
L 763.106494 78.283636 
L 763.106494 93.244675 
L 473.236364 93.244675 
z
" clip-path="url(#pa89d2ad346)" style="fill: #1f77b4"/>
   </g>
   <g id="patch_19">
    <path d="M 473.236364 96.984935 
L 661.651948 96.984935 
L 661.651948 111.945974 
L 473.236364 111.945974 
z
" clip-path="url(#pa89d2ad346)" style="fill: #1f77b4"/>
   </g>
   <g id="patch_20">
    <path d="M 473.236364 115.686234 
L 651.98961 115.686234 
L 651.98961 130.647273 
L 473.236364 130.647273 
z
" clip-path="url(#pa89d2ad346)" style="fill: #1f77b4"/>
   </g>
   <g id="patch_21">
    <path d="M 473.236364 134.387532 
L 603.677922 134.387532 
L 603.677922 149.348571 
L 473.236364 149.348571 
z
" clip-path="url(#pa89d2ad346)" style="fill: #1f77b4"/>
   </g>
   <g id="patch_22">
    <path d="M 473.236364 153.088831 
L 569.85974 153.088831 
L 569.85974 168.04987 
L 473.236364 168.04987 
z
" clip-path="url(#pa89d2ad346)" style="fill: #1f77b4"/>
   </g>
   <g id="patch_23">
    <path d="M 473.236364 171.79013 
L 536.041558 171.79013 
L 536.041558 186.751169 
L 473.236364 186.751169 
z
" clip-path="url(#pa89d2ad346)" style="fill: #1f77b4"/>
   </g>
   <g id="patch_24">
    <path d="M 473.236364 190.491429 
L 531.21039 190.491429 
L 531.21039 205.452468 
L 473.236364 205.452468 
z
" clip-path="url(#pa89d2ad346)" style="fill: #1f77b4"/>
   </g>
   <g id="patch_25">
    <path d="M 473.236364 209.192727 
L 526.379221 209.192727 
L 526.379221 224.153766 
L 473.236364 224.153766 
z
" clip-path="url(#pa89d2ad346)" style="fill: #1f77b4"/>
   </g>
   <g id="patch_26">
    <path d="M 473.236364 227.894026 
L 521.548052 227.894026 
L 521.548052 242.855065 
L 473.236364 242.855065 
z
" clip-path="url(#pa89d2ad346)" style="fill: #1f77b4"/>
   </g>
   <g id="patch_27">
    <path d="M 473.236364 246.595325 
L 521.548052 246.595325 
L 521.548052 261.556364 
L 473.236364 261.556364 
z
" clip-path="url(#pa89d2ad346)" style="fill: #1f77b4"/>
   </g>
   <g id="matplotlib.axis_3">
    <g id="xtick_10">
     <g id="line2d_20">
      <g>
       <use xlink:href="#m237e58a47a" x="473.236364" y="270.72" style="stroke: #000000; stroke-width: 0.8"/>
      </g>
     </g>
     <g id="text_21">
      <!-- 0 -->
      <g transform="translate(470.087145 285.210625) scale(0.1 -0.1)">
       <use xlink:href="#IPAexGothic-30"/>
      </g>
     </g>
    </g>
    <g id="xtick_11">
     <g id="line2d_21">
      <g>
       <use xlink:href="#m237e58a47a" x="521.548052" y="270.72" style="stroke: #000000; stroke-width: 0.8"/>
      </g>
     </g>
     <g id="text_22">
      <!-- 10 -->
      <g transform="translate(515.249614 285.210625) scale(0.1 -0.1)">
       <use xlink:href="#IPAexGothic-31"/>
       <use xlink:href="#IPAexGothic-30" x="62.988281"/>
      </g>
     </g>
    </g>
    <g id="xtick_12">
     <g id="line2d_22">
      <g>
       <use xlink:href="#m237e58a47a" x="569.85974" y="270.72" style="stroke: #000000; stroke-width: 0.8"/>
      </g>
     </g>
     <g id="text_23">
      <!-- 20 -->
      <g transform="translate(563.561303 285.210625) scale(0.1 -0.1)">
       <use xlink:href="#IPAexGothic-32"/>
       <use xlink:href="#IPAexGothic-30" x="62.988281"/>
      </g>
     </g>
    </g>
    <g id="xtick_13">
     <g id="line2d_23">
      <g>
       <use xlink:href="#m237e58a47a" x="618.171429" y="270.72" style="stroke: #000000; stroke-width: 0.8"/>
      </g>
     </g>
     <g id="text_24">
      <!-- 30 -->
      <g transform="translate(611.872991 285.210625) scale(0.1 -0.1)">
       <use xlink:href="#IPAexGothic-33"/>
       <use xlink:href="#IPAexGothic-30" x="62.988281"/>
      </g>
     </g>
    </g>
    <g id="xtick_14">
     <g id="line2d_24">
      <g>
       <use xlink:href="#m237e58a47a" x="666.483117" y="270.72" style="stroke: #000000; stroke-width: 0.8"/>
      </g>
     </g>
     <g id="text_25">
      <!-- 40 -->
      <g transform="translate(660.184679 285.210625) scale(0.1 -0.1)">
       <use xlink:href="#IPAexGothic-34"/>
       <use xlink:href="#IPAexGothic-30" x="62.988281"/>
      </g>
     </g>
    </g>
    <g id="xtick_15">
     <g id="line2d_25">
      <g>
       <use xlink:href="#m237e58a47a" x="714.794805" y="270.72" style="stroke: #000000; stroke-width: 0.8"/>
      </g>
     </g>
     <g id="text_26">
      <!-- 50 -->
      <g transform="translate(708.496368 285.210625) scale(0.1 -0.1)">
       <use xlink:href="#IPAexGothic-35"/>
       <use xlink:href="#IPAexGothic-30" x="62.988281"/>
      </g>
     </g>
    </g>
    <g id="xtick_16">
     <g id="line2d_26">
      <g>
       <use xlink:href="#m237e58a47a" x="763.106494" y="270.72" style="stroke: #000000; stroke-width: 0.8"/>
      </g>
     </g>
     <g id="text_27">
      <!-- 60 -->
      <g transform="translate(756.808056 285.210625) scale(0.1 -0.1)">
       <defs>
        <path id="IPAexGothic-36" d="M 1056 2328 
Q 1509 2981 2234 2981 
Q 2906 2981 3316 2513 
Q 3675 2106 3675 1522 
Q 3675 884 3272 434 
Q 2853 -31 2178 -31 
Q 1375 -31 922 581 
Q 481 1178 481 2228 
Q 481 3425 1013 4109 
Q 1494 4725 2272 4725 
Q 3191 4725 3609 4025 
L 3150 3775 
Q 2894 4266 2300 4266 
Q 1119 4266 1031 2328 
L 1056 2328 
z
M 2141 2547 
Q 1684 2547 1384 2206 
Q 1116 1900 1116 1541 
Q 1116 1156 1353 844 
Q 1672 428 2159 428 
Q 2669 428 2941 844 
Q 3125 1128 3125 1503 
Q 3125 1944 2881 2228 
Q 2600 2547 2141 2547 
z
" transform="scale(0.015625)"/>
       </defs>
       <use xlink:href="#IPAexGothic-36"/>
       <use xlink:href="#IPAexGothic-30" x="62.988281"/>
      </g>
     </g>
    </g>
   </g>
   <g id="matplotlib.axis_4">
    <g id="ytick_11">
     <g id="line2d_27">
      <g>
       <use xlink:href="#m0b52c3712c" x="473.236364" y="85.764156" style="stroke: #000000; stroke-width: 0.8"/>
      </g>
     </g>
     <g id="text_28">
      <!-- 事 -->
      <g transform="translate(456.236364 89.509468) scale(0.1 -0.1)">
       <defs>
        <path id="IPAexGothic-4e8b" d="M 2950 3922 
L 2950 4294 
L 478 4294 
L 478 4659 
L 2950 4659 
L 2950 5313 
L 3403 5313 
L 3403 4659 
L 5919 4659 
L 5919 4294 
L 3403 4294 
L 3403 3922 
L 5234 3922 
L 5234 2822 
L 3403 2822 
L 3403 2450 
L 5325 2450 
L 5325 1759 
L 6081 1759 
L 6081 1381 
L 5325 1381 
L 5325 397 
L 4881 397 
L 4881 672 
L 3403 672 
L 3403 6 
Q 3403 -263 3269 -356 
Q 3150 -441 2841 -441 
Q 2497 -441 2116 -403 
L 2041 56 
Q 2450 -25 2731 -25 
Q 2950 -25 2950 159 
L 2950 672 
L 844 672 
L 844 1025 
L 2950 1025 
L 2950 1394 
L 319 1394 
L 319 1747 
L 2950 1747 
L 2950 2097 
L 838 2097 
L 838 2450 
L 2950 2450 
L 2950 2822 
L 1156 2822 
L 1156 3922 
L 2950 3922 
z
M 2950 3591 
L 1584 3591 
L 1584 3163 
L 2950 3163 
L 2950 3591 
z
M 3403 3591 
L 3403 3163 
L 4806 3163 
L 4806 3591 
L 3403 3591 
z
M 3403 1025 
L 4881 1025 
L 4881 1394 
L 3403 1394 
L 3403 1025 
z
M 3403 1747 
L 4881 1747 
L 4881 2097 
L 3403 2097 
L 3403 1747 
z
" transform="scale(0.015625)"/>
       </defs>
       <use xlink:href="#IPAexGothic-4e8b"/>
      </g>
     </g>
    </g>
    <g id="ytick_12">
     <g id="line2d_28">
      <g>
       <use xlink:href="#m0b52c3712c" x="473.236364" y="104.465455" style="stroke: #000000; stroke-width: 0.8"/>
      </g>
     </g>
     <g id="text_29">
      <!-- 人間 -->
      <g transform="translate(446.236364 108.210767) scale(0.1 -0.1)">
       <defs>
        <path id="IPAexGothic-4eba" d="M 3434 5081 
L 3434 4659 
Q 3434 3131 4050 2069 
Q 4669 994 6022 275 
L 5644 -197 
Q 4359 588 3641 1863 
Q 3394 2300 3225 3009 
Q 2822 766 819 -325 
L 441 97 
Q 1856 759 2438 1972 
Q 2919 2959 2919 4634 
L 2919 5081 
L 3434 5081 
z
" transform="scale(0.015625)"/>
        <path id="IPAexGothic-9593" d="M 4450 2566 
L 4450 353 
L 2375 353 
L 2375 -25 
L 1953 -25 
L 1953 2566 
L 4450 2566 
z
M 4028 2200 
L 2375 2200 
L 2375 1653 
L 4028 1653 
L 4028 2200 
z
M 4028 1300 
L 2375 1300 
L 2375 719 
L 4028 719 
L 4028 1300 
z
M 2913 5019 
L 2913 3059 
L 1056 3059 
L 1056 -447 
L 609 -447 
L 609 5019 
L 2913 5019 
z
M 1056 4659 
L 1056 4206 
L 2497 4206 
L 2497 4659 
L 1056 4659 
z
M 1056 3881 
L 1056 3413 
L 2497 3413 
L 2497 3881 
L 1056 3881 
z
M 5788 5019 
L 5788 91 
Q 5788 -225 5641 -331 
Q 5525 -409 5231 -409 
Q 4803 -409 4481 -366 
L 4419 97 
Q 4853 38 5128 38 
Q 5341 38 5341 244 
L 5341 3059 
L 3438 3059 
L 3438 5019 
L 5788 5019 
z
M 3853 4659 
L 3853 4206 
L 5341 4206 
L 5341 4659 
L 3853 4659 
z
M 3853 3881 
L 3853 3413 
L 5341 3413 
L 5341 3881 
L 3853 3881 
z
" transform="scale(0.015625)"/>
       </defs>
       <use xlink:href="#IPAexGothic-4eba"/>
       <use xlink:href="#IPAexGothic-9593" x="100"/>
      </g>
     </g>
    </g>
    <g id="ytick_13">
     <g id="line2d_29">
      <g>
       <use xlink:href="#m0b52c3712c" x="473.236364" y="123.166753" style="stroke: #000000; stroke-width: 0.8"/>
      </g>
     </g>
     <g id="text_30">
      <!-- もの -->
      <g transform="translate(446.236364 126.912066) scale(0.1 -0.1)">
       <defs>
        <path id="IPAexGothic-3082" d="M 997 3950 
Q 1622 3844 2303 3816 
L 2491 5056 
L 2988 4984 
Q 2872 4363 2797 3816 
Q 3475 3822 4244 3938 
L 4244 3494 
Q 3659 3394 2731 3372 
Q 2700 3131 2603 2381 
Q 3263 2381 4031 2509 
L 4031 2059 
Q 3359 1947 2534 1947 
Q 2472 1447 2472 1216 
Q 2472 191 3609 191 
Q 4831 191 4831 1163 
Q 4831 1597 4500 2131 
L 5003 2181 
Q 5338 1638 5338 1153 
Q 5338 472 4819 75 
Q 4372 -256 3609 -256 
Q 2003 -256 2003 1153 
Q 2003 1556 2059 1959 
Q 1372 2022 1013 2094 
L 1056 2541 
Q 1581 2431 2125 2400 
L 2247 3378 
Q 1550 3406 941 3519 
L 997 3950 
z
" transform="scale(0.015625)"/>
       </defs>
       <use xlink:href="#IPAexGothic-3082"/>
       <use xlink:href="#IPAexGothic-306e" x="100"/>
      </g>
     </g>
    </g>
    <g id="ytick_14">
     <g id="line2d_30">
      <g>
       <use xlink:href="#m0b52c3712c" x="473.236364" y="141.868052" style="stroke: #000000; stroke-width: 0.8"/>
      </g>
     </g>
     <g id="text_31">
      <!-- 一 -->
      <g transform="translate(456.236364 145.613364) scale(0.1 -0.1)">
       <defs>
        <path id="IPAexGothic-4e00" d="M 513 2847 
L 5881 2847 
L 5881 2328 
L 513 2328 
L 513 2847 
z
" transform="scale(0.015625)"/>
       </defs>
       <use xlink:href="#IPAexGothic-4e00"/>
      </g>
     </g>
    </g>
    <g id="ytick_15">
     <g id="line2d_31">
      <g>
       <use xlink:href="#m0b52c3712c" x="473.236364" y="160.569351" style="stroke: #000000; stroke-width: 0.8"/>
      </g>
     </g>
     <g id="text_32">
      <!-- 主人 -->
      <g transform="translate(446.236364 164.314663) scale(0.1 -0.1)">
       <defs>
        <path id="IPAexGothic-4e3b" d="M 3419 3481 
L 3419 2188 
L 5409 2188 
L 5409 1766 
L 3419 1766 
L 3419 231 
L 5922 231 
L 5922 -197 
L 475 -197 
L 475 231 
L 2931 231 
L 2931 1766 
L 984 1766 
L 984 2188 
L 2931 2188 
L 2931 3481 
L 703 3481 
L 703 3909 
L 5697 3909 
L 5697 3481 
L 3419 3481 
z
M 3344 4031 
Q 2788 4494 1953 4934 
L 2363 5247 
Q 3066 4891 3753 4359 
L 3344 4031 
z
" transform="scale(0.015625)"/>
       </defs>
       <use xlink:href="#IPAexGothic-4e3b"/>
       <use xlink:href="#IPAexGothic-4eba" x="100"/>
      </g>
     </g>
    </g>
    <g id="ytick_16">
     <g id="line2d_32">
      <g>
       <use xlink:href="#m0b52c3712c" x="473.236364" y="179.270649" style="stroke: #000000; stroke-width: 0.8"/>
      </g>
     </g>
     <g id="text_33">
      <!-- ところ -->
      <g transform="translate(436.236364 183.015962) scale(0.1 -0.1)">
       <defs>
        <path id="IPAexGothic-3053" d="M 1647 4422 
Q 2400 4363 3003 4363 
Q 3803 4363 4653 4459 
L 4763 4031 
Q 4319 3906 3788 3588 
Q 3347 3322 2978 2994 
L 2619 3272 
Q 3150 3666 3609 3950 
Q 3097 3909 2619 3909 
Q 2091 3909 1666 3956 
L 1647 4422 
z
M 5244 191 
Q 4363 13 3303 13 
Q 2316 13 1716 344 
Q 1159 653 1159 1197 
Q 1159 1738 1659 2247 
L 2044 2003 
Q 1647 1644 1647 1263 
Q 1647 500 3291 500 
Q 4288 500 5191 722 
L 5244 191 
z
" transform="scale(0.015625)"/>
        <path id="IPAexGothic-308d" d="M 4428 4391 
Q 3547 3397 2534 2375 
Q 3372 2809 3988 2809 
Q 4525 2809 4903 2566 
Q 5472 2209 5472 1522 
Q 5472 -169 2369 -197 
L 2131 288 
Q 2309 281 2444 281 
Q 4953 281 4953 1522 
Q 4953 1906 4672 2150 
Q 4391 2394 3922 2394 
Q 3491 2394 2944 2163 
Q 2125 1819 1403 1153 
L 1050 1550 
Q 2294 2572 3669 4275 
Q 2778 4119 1569 4019 
L 1434 4525 
Q 2781 4575 4128 4744 
L 4428 4391 
z
" transform="scale(0.015625)"/>
       </defs>
       <use xlink:href="#IPAexGothic-3068"/>
       <use xlink:href="#IPAexGothic-3053" x="100"/>
       <use xlink:href="#IPAexGothic-308d" x="200"/>
      </g>
     </g>
    </g>
    <g id="ytick_17">
     <g id="line2d_33">
      <g>
       <use xlink:href="#m0b52c3712c" x="473.236364" y="197.971948" style="stroke: #000000; stroke-width: 0.8"/>
      </g>
     </g>
     <g id="text_34">
      <!-- 人 -->
      <g transform="translate(456.236364 201.717261) scale(0.1 -0.1)">
       <use xlink:href="#IPAexGothic-4eba"/>
      </g>
     </g>
    </g>
    <g id="ytick_18">
     <g id="line2d_34">
      <g>
       <use xlink:href="#m0b52c3712c" x="473.236364" y="216.673247" style="stroke: #000000; stroke-width: 0.8"/>
      </g>
     </g>
     <g id="text_35">
      <!-- 顔 -->
      <g transform="translate(456.236364 220.418559) scale(0.1 -0.1)">
       <defs>
        <path id="IPAexGothic-9854" d="M 4609 4031 
L 5709 4031 
L 5709 703 
L 3394 703 
L 3394 4031 
L 4219 4031 
Q 4284 4291 4347 4659 
L 3138 4659 
L 3138 5056 
L 6022 5056 
L 6022 4659 
L 4794 4659 
Q 4691 4253 4609 4031 
z
M 5300 3659 
L 3797 3659 
L 3797 3047 
L 5300 3047 
L 5300 3659 
z
M 3797 2688 
L 3797 2075 
L 5300 2075 
L 5300 2688 
L 3797 2688 
z
M 3797 1716 
L 3797 1075 
L 5300 1075 
L 5300 1716 
L 3797 1716 
z
M 2022 4588 
L 3159 4588 
L 3159 4216 
L 409 4216 
L 409 4588 
L 1594 4588 
L 1594 5309 
L 2022 5309 
L 2022 4588 
z
M 1947 3181 
Q 2184 3716 2284 4206 
L 2713 4084 
Q 2569 3631 2350 3181 
L 3134 3181 
L 3134 2816 
L 959 2816 
L 959 2266 
Q 959 1225 891 653 
Q 803 63 563 -428 
L 225 -97 
Q 550 538 550 2266 
L 550 3181 
L 1947 3181 
z
M 1147 3194 
Q 1059 3656 872 4056 
L 1256 4184 
Q 1469 3725 1550 3334 
L 1147 3194 
z
M 1044 1869 
Q 1938 2166 2394 2803 
L 2741 2591 
Q 2169 1856 1275 1544 
L 1044 1869 
z
M 2816 -191 
Q 3528 141 3975 684 
L 4322 459 
Q 3813 -153 3150 -519 
L 2816 -191 
z
M 5763 -428 
Q 5253 97 4678 447 
L 5006 697 
Q 5638 331 6119 -122 
L 5763 -428 
z
M 1069 1025 
Q 2056 1300 2644 2034 
L 2978 1825 
Q 2338 1003 1319 678 
L 1069 1025 
z
M 953 -25 
Q 2109 269 2844 1159 
L 3181 928 
Q 2431 -13 1216 -391 
L 953 -25 
z
" transform="scale(0.015625)"/>
       </defs>
       <use xlink:href="#IPAexGothic-9854"/>
      </g>
     </g>
    </g>
    <g id="ytick_19">
     <g id="line2d_35">
      <g>
       <use xlink:href="#m0b52c3712c" x="473.236364" y="235.374545" style="stroke: #000000; stroke-width: 0.8"/>
      </g>
     </g>
     <g id="text_36">
      <!-- 上 -->
      <g transform="translate(456.236364 239.119858) scale(0.1 -0.1)">
       <defs>
        <path id="IPAexGothic-4e0a" d="M 3259 3366 
L 5475 3366 
L 5475 2913 
L 3259 2913 
L 3259 556 
L 5991 556 
L 5991 103 
L 391 103 
L 391 556 
L 2772 556 
L 2772 5050 
L 3259 5050 
L 3259 3366 
z
" transform="scale(0.015625)"/>
       </defs>
       <use xlink:href="#IPAexGothic-4e0a"/>
      </g>
     </g>
    </g>
    <g id="ytick_20">
     <g id="line2d_36">
      <g>
       <use xlink:href="#m0b52c3712c" x="473.236364" y="254.075844" style="stroke: #000000; stroke-width: 0.8"/>
      </g>
     </g>
     <g id="text_37">
      <!-- 二 -->
      <g transform="translate(456.236364 257.821157) scale(0.1 -0.1)">
       <defs>
        <path id="IPAexGothic-4e8c" d="M 994 4331 
L 5403 4331 
L 5403 3838 
L 994 3838 
L 994 4331 
z
M 513 859 
L 5881 859 
L 5881 359 
L 513 359 
L 513 859 
z
" transform="scale(0.015625)"/>
       </defs>
       <use xlink:href="#IPAexGothic-4e8c"/>
      </g>
     </g>
    </g>
   </g>
   <g id="patch_28">
    <path d="M 473.236364 270.72 
L 473.236364 69.12 
" style="fill: none; stroke: #000000; stroke-width: 0.8; stroke-linejoin: miter; stroke-linecap: square"/>
   </g>
   <g id="patch_29">
    <path d="M 777.6 270.72 
L 777.6 69.12 
" style="fill: none; stroke: #000000; stroke-width: 0.8; stroke-linejoin: miter; stroke-linecap: square"/>
   </g>
   <g id="patch_30">
    <path d="M 473.236364 270.72 
L 777.6 270.72 
" style="fill: none; stroke: #000000; stroke-width: 0.8; stroke-linejoin: miter; stroke-linecap: square"/>
   </g>
   <g id="patch_31">
    <path d="M 473.236364 69.12 
L 777.6 69.12 
" style="fill: none; stroke: #000000; stroke-width: 0.8; stroke-linejoin: miter; stroke-linecap: square"/>
   </g>
   <g id="text_38">
    <!-- NOUN -->
    <g transform="translate(607.036619 63.12) scale(0.12 -0.12)">
     <defs>
      <path id="IPAexGothic-4e" d="M 4244 63 
L 3731 63 
L 1697 3150 
Q 1466 3500 1141 4097 
L 1116 4097 
L 1128 3797 
Q 1159 2803 1159 2469 
L 1159 63 
L 609 63 
L 609 4634 
L 1366 4634 
L 3113 1978 
Q 3453 1447 3713 966 
L 3738 966 
Q 3694 1897 3694 2469 
L 3694 4634 
L 4244 4634 
L 4244 63 
z
" transform="scale(0.015625)"/>
      <path id="IPAexGothic-4f" d="M 2541 4725 
Q 3456 4725 4044 4138 
Q 4709 3472 4709 2331 
Q 4709 1219 4031 550 
Q 3450 -31 2541 -31 
Q 1638 -31 1056 550 
Q 378 1219 378 2356 
Q 378 3469 1044 4138 
Q 1631 4725 2541 4725 
z
M 2541 4266 
Q 1953 4266 1531 3844 
Q 994 3303 994 2350 
Q 994 1391 1531 863 
Q 1947 447 2541 447 
Q 3131 447 3556 863 
Q 4094 1400 4094 2375 
Q 4094 3297 3550 3844 
Q 3138 4266 2541 4266 
z
" transform="scale(0.015625)"/>
      <path id="IPAexGothic-55" d="M 4219 4634 
L 4219 1631 
Q 4219 994 3906 594 
Q 3400 -63 2388 -63 
Q 1372 -63 856 594 
Q 550 988 550 1631 
L 550 4634 
L 1113 4634 
L 1113 1700 
Q 1113 1134 1388 831 
Q 1753 428 2388 428 
Q 3031 428 3388 831 
Q 3663 1144 3663 1700 
L 3663 4634 
L 4219 4634 
z
" transform="scale(0.015625)"/>
     </defs>
     <use xlink:href="#IPAexGothic-4e"/>
     <use xlink:href="#IPAexGothic-4f" x="75.976562"/>
     <use xlink:href="#IPAexGothic-55" x="155.664062"/>
     <use xlink:href="#IPAexGothic-4e" x="230.371094"/>
    </g>
   </g>
  </g>
  <g id="axes_3">
   <g id="patch_32">
    <path d="M 108 512.64 
L 412.363636 512.64 
L 412.363636 311.04 
L 108 311.04 
z
" style="fill: #ffffff"/>
   </g>
   <g id="patch_33">
    <path d="M 108 320.203636 
L 397.87013 320.203636 
L 397.87013 335.164675 
L 108 335.164675 
z
" clip-path="url(#p397e92c3ba)" style="fill: #1f77b4"/>
   </g>
   <g id="patch_34">
    <path d="M 108 338.904935 
L 383.230224 338.904935 
L 383.230224 353.865974 
L 108 353.865974 
z
" clip-path="url(#p397e92c3ba)" style="fill: #1f77b4"/>
   </g>
   <g id="patch_35">
    <path d="M 108 357.606234 
L 230.975207 357.606234 
L 230.975207 372.567273 
L 108 372.567273 
z
" clip-path="url(#p397e92c3ba)" style="fill: #1f77b4"/>
   </g>
   <g id="patch_36">
    <path d="M 108 376.307532 
L 204.623377 376.307532 
L 204.623377 391.268571 
L 108 391.268571 
z
" clip-path="url(#p397e92c3ba)" style="fill: #1f77b4"/>
   </g>
   <g id="patch_37">
    <path d="M 108 395.008831 
L 198.767414 395.008831 
L 198.767414 409.96987 
L 108 409.96987 
z
" clip-path="url(#p397e92c3ba)" style="fill: #1f77b4"/>
   </g>
   <g id="patch_38">
    <path d="M 108 413.71013 
L 163.631641 413.71013 
L 163.631641 428.671169 
L 108 428.671169 
z
" clip-path="url(#p397e92c3ba)" style="fill: #1f77b4"/>
   </g>
   <g id="patch_39">
    <path d="M 108 432.411429 
L 146.063754 432.411429 
L 146.063754 447.372468 
L 108 447.372468 
z
" clip-path="url(#p397e92c3ba)" style="fill: #1f77b4"/>
   </g>
   <g id="patch_40">
    <path d="M 108 451.112727 
L 143.135773 451.112727 
L 143.135773 466.073766 
L 108 466.073766 
z
" clip-path="url(#p397e92c3ba)" style="fill: #1f77b4"/>
   </g>
   <g id="patch_41">
    <path d="M 108 469.814026 
L 137.279811 469.814026 
L 137.279811 484.775065 
L 108 484.775065 
z
" clip-path="url(#p397e92c3ba)" style="fill: #1f77b4"/>
   </g>
   <g id="patch_42">
    <path d="M 108 488.515325 
L 137.279811 488.515325 
L 137.279811 503.476364 
L 108 503.476364 
z
" clip-path="url(#p397e92c3ba)" style="fill: #1f77b4"/>
   </g>
   <g id="matplotlib.axis_5">
    <g id="xtick_17">
     <g id="line2d_37">
      <g>
       <use xlink:href="#m237e58a47a" x="108" y="512.64" style="stroke: #000000; stroke-width: 0.8"/>
      </g>
     </g>
     <g id="text_39">
      <!-- 0 -->
      <g transform="translate(104.850781 527.130625) scale(0.1 -0.1)">
       <use xlink:href="#IPAexGothic-30"/>
      </g>
     </g>
    </g>
    <g id="xtick_18">
     <g id="line2d_38">
      <g>
       <use xlink:href="#m237e58a47a" x="166.559622" y="512.64" style="stroke: #000000; stroke-width: 0.8"/>
      </g>
     </g>
     <g id="text_40">
      <!-- 20 -->
      <g transform="translate(160.261185 527.130625) scale(0.1 -0.1)">
       <use xlink:href="#IPAexGothic-32"/>
       <use xlink:href="#IPAexGothic-30" x="62.988281"/>
      </g>
     </g>
    </g>
    <g id="xtick_19">
     <g id="line2d_39">
      <g>
       <use xlink:href="#m237e58a47a" x="225.119244" y="512.64" style="stroke: #000000; stroke-width: 0.8"/>
      </g>
     </g>
     <g id="text_41">
      <!-- 40 -->
      <g transform="translate(218.820807 527.130625) scale(0.1 -0.1)">
       <use xlink:href="#IPAexGothic-34"/>
       <use xlink:href="#IPAexGothic-30" x="62.988281"/>
      </g>
     </g>
    </g>
    <g id="xtick_20">
     <g id="line2d_40">
      <g>
       <use xlink:href="#m237e58a47a" x="283.678867" y="512.64" style="stroke: #000000; stroke-width: 0.8"/>
      </g>
     </g>
     <g id="text_42">
      <!-- 60 -->
      <g transform="translate(277.380429 527.130625) scale(0.1 -0.1)">
       <use xlink:href="#IPAexGothic-36"/>
       <use xlink:href="#IPAexGothic-30" x="62.988281"/>
      </g>
     </g>
    </g>
    <g id="xtick_21">
     <g id="line2d_41">
      <g>
       <use xlink:href="#m237e58a47a" x="342.238489" y="512.64" style="stroke: #000000; stroke-width: 0.8"/>
      </g>
     </g>
     <g id="text_43">
      <!-- 80 -->
      <g transform="translate(335.940051 527.130625) scale(0.1 -0.1)">
       <defs>
        <path id="IPAexGothic-38" d="M 2541 2425 
Q 3700 2031 3700 1197 
Q 3700 541 3100 197 
Q 2663 -56 2016 -56 
Q 1366 -56 928 197 
Q 347 531 347 1178 
Q 347 1988 1409 2381 
L 1409 2400 
Q 481 2734 481 3509 
Q 481 4100 981 4456 
Q 1406 4756 2019 4756 
Q 2703 4756 3131 4403 
Q 3553 4069 3553 3566 
Q 3553 2706 2541 2444 
L 2541 2425 
z
M 2022 2625 
Q 2997 2856 2997 3528 
Q 2997 3916 2675 4150 
Q 2413 4347 2016 4347 
Q 1606 4347 1331 4128 
Q 1050 3897 1050 3522 
Q 1050 3150 1350 2925 
Q 1494 2809 1722 2722 
Q 1984 2616 2022 2625 
z
M 1978 2209 
Q 922 1931 922 1216 
Q 922 775 1313 556 
Q 1606 391 2009 391 
Q 2575 391 2881 697 
Q 3106 922 3106 1250 
Q 3106 1594 2794 1850 
Q 2609 1994 2350 2100 
Q 2047 2222 1978 2209 
z
" transform="scale(0.015625)"/>
       </defs>
       <use xlink:href="#IPAexGothic-38"/>
       <use xlink:href="#IPAexGothic-30" x="62.988281"/>
      </g>
     </g>
    </g>
    <g id="xtick_22">
     <g id="line2d_42">
      <g>
       <use xlink:href="#m237e58a47a" x="400.798111" y="512.64" style="stroke: #000000; stroke-width: 0.8"/>
      </g>
     </g>
     <g id="text_44">
      <!-- 100 -->
      <g transform="translate(391.350455 527.130625) scale(0.1 -0.1)">
       <use xlink:href="#IPAexGothic-31"/>
       <use xlink:href="#IPAexGothic-30" x="62.988281"/>
       <use xlink:href="#IPAexGothic-30" x="125.976562"/>
      </g>
     </g>
    </g>
   </g>
   <g id="matplotlib.axis_6">
    <g id="ytick_21">
     <g id="line2d_43">
      <g>
       <use xlink:href="#m0b52c3712c" x="108" y="327.684156" style="stroke: #000000; stroke-width: 0.8"/>
      </g>
     </g>
     <g id="text_45">
      <!-- し -->
      <g transform="translate(91 331.429468) scale(0.1 -0.1)">
       <defs>
        <path id="IPAexGothic-3057" d="M 1750 4884 
L 2281 4884 
L 2238 1319 
Q 2228 809 2391 569 
Q 2594 281 3128 281 
Q 3772 281 4344 744 
Q 4822 1131 5156 1759 
L 5534 1369 
Q 5094 653 4534 263 
Q 3878 -206 3134 -206 
Q 2341 -206 1994 213 
Q 1697 575 1706 1269 
L 1750 4884 
z
" transform="scale(0.015625)"/>
       </defs>
       <use xlink:href="#IPAexGothic-3057"/>
      </g>
     </g>
    </g>
    <g id="ytick_22">
     <g id="line2d_44">
      <g>
       <use xlink:href="#m0b52c3712c" x="108" y="346.385455" style="stroke: #000000; stroke-width: 0.8"/>
      </g>
     </g>
     <g id="text_46">
      <!-- ある -->
      <g transform="translate(81 350.130767) scale(0.1 -0.1)">
       <defs>
        <path id="IPAexGothic-3042" d="M 966 4134 
Q 1228 4116 1550 4116 
Q 1934 4116 2284 4141 
Q 2297 4247 2319 4453 
Q 2369 4872 2381 5050 
L 2853 5019 
Q 2794 4547 2759 4178 
Q 3672 4275 4581 4525 
L 4634 4084 
Q 3750 3863 2713 3756 
Q 2675 3378 2663 2931 
Q 3088 3084 3669 3138 
Q 3738 3325 3763 3547 
L 4238 3438 
Q 4188 3219 4153 3128 
Q 4797 3041 5166 2741 
Q 5703 2297 5703 1581 
Q 5703 794 5056 300 
Q 4559 -84 3681 -213 
L 3406 213 
Q 4169 297 4622 594 
Q 5203 969 5203 1588 
Q 5203 2216 4672 2553 
Q 4413 2725 4025 2772 
Q 3550 1556 2747 800 
Q 2766 584 2847 275 
L 2388 103 
Q 2369 191 2316 525 
Q 1756 128 1300 128 
Q 666 128 666 794 
Q 666 1244 950 1691 
Q 1216 2100 1678 2425 
Q 1834 2541 2194 2731 
Q 2206 3159 2253 3719 
Q 1772 3681 1338 3681 
Q 1106 3681 1006 3688 
L 966 4134 
z
M 2188 2291 
Q 1966 2169 1703 1913 
Q 1431 1650 1272 1353 
Q 1144 1109 1134 922 
Q 1119 575 1384 575 
Q 1788 575 2247 997 
Q 2197 1497 2188 2291 
z
M 3553 2772 
Q 3038 2700 2638 2534 
Q 2638 1734 2663 1300 
Q 3231 1931 3553 2772 
z
" transform="scale(0.015625)"/>
        <path id="IPAexGothic-308b" d="M 4391 4397 
L 2613 2588 
Q 3225 2809 3759 2809 
Q 4263 2809 4659 2625 
Q 5391 2269 5391 1484 
Q 5391 756 4706 275 
Q 4072 -166 3053 -166 
Q 2559 -166 2247 19 
Q 1863 250 1863 666 
Q 1863 934 2069 1141 
Q 2331 1403 2741 1403 
Q 3509 1403 4019 428 
Q 4872 784 4872 1491 
Q 4872 1981 4469 2222 
Q 4166 2406 3681 2406 
Q 2425 2406 1238 1209 
L 891 1581 
Q 2438 2934 3578 4281 
Q 2594 4125 1588 4066 
L 1478 4550 
Q 2594 4581 4109 4763 
L 4391 4397 
z
M 3591 303 
Q 3244 1025 2731 1025 
Q 2553 1025 2434 934 
Q 2316 844 2316 700 
Q 2316 250 3034 250 
Q 3275 250 3591 303 
z
" transform="scale(0.015625)"/>
       </defs>
       <use xlink:href="#IPAexGothic-3042"/>
       <use xlink:href="#IPAexGothic-308b" x="100"/>
      </g>
     </g>
    </g>
    <g id="ytick_23">
     <g id="line2d_45">
      <g>
       <use xlink:href="#m0b52c3712c" x="108" y="365.086753" style="stroke: #000000; stroke-width: 0.8"/>
      </g>
     </g>
     <g id="text_47">
      <!-- いる -->
      <g transform="translate(81 368.832066) scale(0.1 -0.1)">
       <defs>
        <path id="IPAexGothic-3044" d="M 3369 1447 
Q 2906 122 2278 122 
Q 1966 122 1647 481 
Q 1209 966 1044 1966 
Q 891 2888 891 4313 
L 1422 4313 
Q 1413 2444 1666 1550 
Q 1913 678 2278 678 
Q 2619 678 2925 1791 
L 3369 1447 
z
M 5378 1294 
Q 4928 2797 4034 3809 
L 4488 4031 
Q 5375 3000 5881 1563 
L 5378 1294 
z
" transform="scale(0.015625)"/>
       </defs>
       <use xlink:href="#IPAexGothic-3044"/>
       <use xlink:href="#IPAexGothic-308b" x="100"/>
      </g>
     </g>
    </g>
    <g id="ytick_24">
     <g id="line2d_46">
      <g>
       <use xlink:href="#m0b52c3712c" x="108" y="383.788052" style="stroke: #000000; stroke-width: 0.8"/>
      </g>
     </g>
     <g id="text_48">
      <!-- する -->
      <g transform="translate(81 387.533364) scale(0.1 -0.1)">
       <defs>
        <path id="IPAexGothic-3059" d="M 3322 5075 
L 3816 5075 
L 3816 4063 
Q 4131 4075 5756 4116 
L 5756 3669 
Q 5431 3672 3816 3653 
L 3816 2463 
Q 3956 2125 3956 1741 
Q 3956 922 3519 397 
Q 3128 -72 2309 -409 
L 1941 -31 
Q 3263 453 3488 1363 
Q 3250 1031 2809 1031 
Q 2441 1031 2150 1313 
Q 1875 1588 1875 2050 
Q 1875 2475 2166 2769 
Q 2431 3041 2822 3041 
Q 3088 3041 3322 2881 
L 3322 3641 
Q 3000 3634 609 3547 
L 609 3988 
Q 1197 4000 2106 4022 
Q 3066 4047 3322 4050 
L 3322 5075 
z
M 3372 2044 
Q 3372 2300 3194 2478 
Q 3050 2613 2869 2613 
Q 2622 2613 2463 2406 
Q 2344 2250 2344 2088 
Q 2344 1797 2484 1622 
Q 2625 1453 2859 1453 
Q 3372 1453 3372 2044 
z
" transform="scale(0.015625)"/>
       </defs>
       <use xlink:href="#IPAexGothic-3059"/>
       <use xlink:href="#IPAexGothic-308b" x="100"/>
      </g>
     </g>
    </g>
    <g id="ytick_25">
     <g id="line2d_47">
      <g>
       <use xlink:href="#m0b52c3712c" x="108" y="402.489351" style="stroke: #000000; stroke-width: 0.8"/>
      </g>
     </g>
     <g id="text_49">
      <!-- 云う -->
      <g transform="translate(81 406.234663) scale(0.1 -0.1)">
       <defs>
        <path id="IPAexGothic-4e91" d="M 2975 2594 
L 2956 2544 
Q 2466 1172 1991 359 
L 2528 400 
Q 3756 478 4697 616 
Q 4294 1225 3800 1775 
L 4216 2013 
Q 4984 1141 5809 -69 
L 5356 -375 
Q 5338 -350 5228 -178 
Q 5084 44 4941 244 
L 4875 238 
Q 3319 -31 819 -203 
L 653 291 
Q 947 303 1100 309 
L 1444 328 
Q 2028 1391 2438 2594 
L 447 2594 
L 447 3034 
L 5950 3034 
L 5950 2594 
L 2975 2594 
z
M 1088 4800 
L 5303 4800 
L 5303 4359 
L 1088 4359 
L 1088 4800 
z
" transform="scale(0.015625)"/>
        <path id="IPAexGothic-3046" d="M 3897 4025 
Q 3203 4456 2144 4728 
L 2381 5166 
Q 3353 4928 4166 4481 
L 3897 4025 
z
M 1172 3050 
Q 2872 3628 3566 3628 
Q 4269 3628 4603 3181 
Q 4847 2850 4847 2253 
Q 4847 372 2619 -275 
L 2278 159 
Q 3356 397 3881 994 
Q 4328 1503 4328 2228 
Q 4328 3181 3534 3181 
Q 2909 3181 1397 2553 
L 1172 3050 
z
" transform="scale(0.015625)"/>
       </defs>
       <use xlink:href="#IPAexGothic-4e91"/>
       <use xlink:href="#IPAexGothic-3046" x="100"/>
      </g>
     </g>
    </g>
    <g id="ytick_26">
     <g id="line2d_48">
      <g>
       <use xlink:href="#m0b52c3712c" x="108" y="421.190649" style="stroke: #000000; stroke-width: 0.8"/>
      </g>
     </g>
     <g id="text_50">
      <!-- 見 -->
      <g transform="translate(91 424.935962) scale(0.1 -0.1)">
       <defs>
        <path id="IPAexGothic-898b" d="M 4053 1631 
L 4053 403 
Q 4053 194 4159 144 
Q 4259 100 4594 100 
Q 5206 100 5303 272 
Q 5369 394 5406 1031 
L 5413 1138 
L 5881 966 
Q 5831 75 5656 -128 
Q 5475 -341 4566 -341 
Q 4041 -341 3859 -269 
Q 3584 -166 3584 184 
L 3584 1631 
L 2719 1631 
Q 2663 631 2219 197 
Q 1744 -256 756 -469 
L 513 -38 
Q 1500 134 1888 513 
Q 2216 831 2247 1631 
L 1288 1631 
L 1288 5050 
L 5106 5050 
L 5106 1631 
L 4053 1631 
z
M 1747 4653 
L 1747 4044 
L 4638 4044 
L 4638 4653 
L 1747 4653 
z
M 1747 3653 
L 1747 3047 
L 4638 3047 
L 4638 3653 
L 1747 3653 
z
M 1747 2663 
L 1747 2028 
L 4638 2028 
L 4638 2663 
L 1747 2663 
z
" transform="scale(0.015625)"/>
       </defs>
       <use xlink:href="#IPAexGothic-898b"/>
      </g>
     </g>
    </g>
    <g id="ytick_27">
     <g id="line2d_49">
      <g>
       <use xlink:href="#m0b52c3712c" x="108" y="439.891948" style="stroke: #000000; stroke-width: 0.8"/>
      </g>
     </g>
     <g id="text_51">
      <!-- なっ -->
      <g transform="translate(81 443.637261) scale(0.1 -0.1)">
       <defs>
        <path id="IPAexGothic-306a" d="M 3906 3147 
L 4372 3147 
Q 4381 2278 4444 1272 
Q 5244 1003 5838 631 
L 5556 222 
Q 4953 600 4463 813 
Q 4478 263 4234 22 
Q 3984 -225 3419 -225 
Q 2897 -225 2563 0 
Q 2216 231 2216 647 
Q 2216 1081 2656 1319 
Q 2959 1484 3297 1484 
Q 3638 1484 3969 1413 
Q 3916 2219 3906 3147 
z
M 3975 984 
Q 3631 1081 3297 1081 
Q 3031 1081 2856 978 
Q 2663 863 2663 653 
Q 2663 197 3400 197 
Q 3750 197 3875 378 
Q 3997 556 3975 984 
z
M 738 3928 
Q 1453 3884 1997 3938 
Q 2144 4381 2294 5125 
L 2784 5050 
Q 2684 4559 2516 3988 
Q 2969 4031 3559 4172 
L 3578 3713 
Q 2919 3575 2375 3531 
Q 1853 2028 1044 831 
L 603 1113 
Q 1325 2063 1856 3488 
Q 1063 3459 763 3475 
L 738 3928 
z
M 5538 2759 
Q 5000 3353 4263 3853 
L 4591 4191 
Q 5338 3728 5897 3128 
L 5538 2759 
z
" transform="scale(0.015625)"/>
        <path id="IPAexGothic-3063" d="M 1113 2656 
Q 2778 3103 3709 3103 
Q 4359 3103 4734 2778 
Q 5150 2409 5150 1803 
Q 5150 247 2456 25 
L 2231 494 
Q 3425 541 4028 878 
Q 4663 1231 4663 1806 
Q 4663 2681 3647 2681 
Q 2834 2681 1319 2203 
L 1113 2656 
z
" transform="scale(0.015625)"/>
       </defs>
       <use xlink:href="#IPAexGothic-306a"/>
       <use xlink:href="#IPAexGothic-3063" x="100"/>
      </g>
     </g>
    </g>
    <g id="ytick_28">
     <g id="line2d_50">
      <g>
       <use xlink:href="#m0b52c3712c" x="108" y="458.593247" style="stroke: #000000; stroke-width: 0.8"/>
      </g>
     </g>
     <g id="text_52">
      <!-- 出来 -->
      <g transform="translate(81 462.338559) scale(0.1 -0.1)">
       <defs>
        <path id="IPAexGothic-51fa" d="M 3419 2956 
L 4928 2956 
L 4928 4500 
L 5397 4500 
L 5397 2203 
L 4928 2203 
L 4928 2541 
L 3419 2541 
L 3419 384 
L 5194 384 
L 5194 1813 
L 5653 1813 
L 5653 -447 
L 5194 -447 
L 5194 -31 
L 1203 -31 
L 1203 -447 
L 744 -447 
L 744 1813 
L 1203 1813 
L 1203 384 
L 2938 384 
L 2938 2541 
L 1459 2541 
L 1459 2203 
L 1000 2203 
L 1000 4500 
L 1459 4500 
L 1459 2956 
L 2938 2956 
L 2938 5144 
L 3419 5144 
L 3419 2956 
z
" transform="scale(0.015625)"/>
        <path id="IPAexGothic-6765" d="M 3403 1691 
L 3403 -447 
L 2944 -447 
L 2944 1647 
Q 2141 481 666 -166 
L 353 219 
Q 1878 806 2809 2063 
L 481 2063 
L 481 2472 
L 2944 2472 
L 2944 3897 
L 806 3897 
L 806 4306 
L 2944 4306 
L 2944 5313 
L 3403 5313 
L 3403 4306 
L 5584 4306 
L 5584 3897 
L 3403 3897 
L 3403 2472 
L 3947 2472 
Q 4297 3125 4522 3828 
L 5009 3641 
Q 4784 3094 4428 2472 
L 5913 2472 
L 5913 2063 
L 3556 2063 
Q 4522 969 6084 384 
L 5759 -63 
Q 4181 647 3403 1691 
z
M 1831 2534 
Q 1606 3188 1325 3628 
L 1747 3803 
Q 2031 3369 2294 2719 
L 1831 2534 
z
" transform="scale(0.015625)"/>
       </defs>
       <use xlink:href="#IPAexGothic-51fa"/>
       <use xlink:href="#IPAexGothic-6765" x="100"/>
      </g>
     </g>
    </g>
    <g id="ytick_29">
     <g id="line2d_51">
      <g>
       <use xlink:href="#m0b52c3712c" x="108" y="477.294545" style="stroke: #000000; stroke-width: 0.8"/>
      </g>
     </g>
     <g id="text_53">
      <!-- い -->
      <g transform="translate(91 481.039858) scale(0.1 -0.1)">
       <use xlink:href="#IPAexGothic-3044"/>
      </g>
     </g>
    </g>
    <g id="ytick_30">
     <g id="line2d_52">
      <g>
       <use xlink:href="#m0b52c3712c" x="108" y="495.995844" style="stroke: #000000; stroke-width: 0.8"/>
      </g>
     </g>
     <g id="text_54">
      <!-- なる -->
      <g transform="translate(81 499.741157) scale(0.1 -0.1)">
       <use xlink:href="#IPAexGothic-306a"/>
       <use xlink:href="#IPAexGothic-308b" x="100"/>
      </g>
     </g>
    </g>
   </g>
   <g id="patch_43">
    <path d="M 108 512.64 
L 108 311.04 
" style="fill: none; stroke: #000000; stroke-width: 0.8; stroke-linejoin: miter; stroke-linecap: square"/>
   </g>
   <g id="patch_44">
    <path d="M 412.363636 512.64 
L 412.363636 311.04 
" style="fill: none; stroke: #000000; stroke-width: 0.8; stroke-linejoin: miter; stroke-linecap: square"/>
   </g>
   <g id="patch_45">
    <path d="M 108 512.64 
L 412.363636 512.64 
" style="fill: none; stroke: #000000; stroke-width: 0.8; stroke-linejoin: miter; stroke-linecap: square"/>
   </g>
   <g id="patch_46">
    <path d="M 108 311.04 
L 412.363636 311.04 
" style="fill: none; stroke: #000000; stroke-width: 0.8; stroke-linejoin: miter; stroke-linecap: square"/>
   </g>
   <g id="text_55">
    <!-- VERB -->
    <g transform="translate(244.944631 305.04) scale(0.12 -0.12)">
     <defs>
      <path id="IPAexGothic-56" d="M 4078 4634 
L 2222 0 
L 1806 0 
L -6 4634 
L 622 4634 
L 1703 1766 
Q 1916 1194 2034 784 
L 2053 784 
Q 2188 1256 2381 1766 
L 3450 4634 
L 4078 4634 
z
" transform="scale(0.015625)"/>
      <path id="IPAexGothic-45" d="M 3547 63 
L 609 63 
L 609 4634 
L 3469 4634 
L 3469 4147 
L 1166 4147 
L 1166 2650 
L 3206 2650 
L 3206 2191 
L 1166 2191 
L 1166 556 
L 3547 556 
L 3547 63 
z
" transform="scale(0.015625)"/>
      <path id="IPAexGothic-52" d="M 4072 63 
L 3394 63 
Q 3138 641 2828 1197 
Q 2584 1641 2344 1825 
Q 2050 2044 1625 2044 
L 1172 2044 
L 1172 63 
L 609 63 
L 609 4634 
L 2009 4634 
Q 2713 4634 3131 4378 
Q 3688 4044 3688 3381 
Q 3688 2784 3181 2459 
Q 2906 2272 2522 2216 
L 2522 2197 
Q 2941 2050 3247 1581 
Q 3516 1166 4072 63 
z
M 1172 2478 
L 1869 2478 
Q 3106 2478 3106 3369 
Q 3106 4181 1928 4181 
L 1172 4181 
L 1172 2478 
z
" transform="scale(0.015625)"/>
      <path id="IPAexGothic-42" d="M 2688 2425 
Q 3816 2225 3816 1338 
Q 3816 556 3041 222 
Q 2672 63 2094 63 
L 609 63 
L 609 4634 
L 1916 4634 
Q 2494 4634 2869 4500 
Q 3644 4222 3644 3491 
Q 3644 2609 2688 2447 
L 2688 2425 
z
M 1159 2656 
L 1844 2656 
Q 3063 2656 3063 3431 
Q 3063 4181 1881 4181 
L 1159 4181 
L 1159 2656 
z
M 1159 522 
L 2016 522 
Q 3222 522 3222 1369 
Q 3222 1897 2625 2100 
Q 2278 2222 1875 2222 
L 1159 2222 
L 1159 522 
z
" transform="scale(0.015625)"/>
     </defs>
     <use xlink:href="#IPAexGothic-56"/>
     <use xlink:href="#IPAexGothic-45" x="63.720703"/>
     <use xlink:href="#IPAexGothic-52" x="123.242188"/>
     <use xlink:href="#IPAexGothic-42" x="188.037109"/>
    </g>
   </g>
  </g>
  <g id="axes_4">
   <g id="patch_47">
    <path d="M 473.236364 512.64 
L 777.6 512.64 
L 777.6 311.04 
L 473.236364 311.04 
z
" style="fill: #ffffff"/>
   </g>
   <g id="patch_48">
    <path d="M 473.236364 320.203636 
L 763.106494 320.203636 
L 763.106494 335.164675 
L 473.236364 335.164675 
z
" clip-path="url(#p19e3c65933)" style="fill: #1f77b4"/>
   </g>
   <g id="patch_49">
    <path d="M 473.236364 338.904935 
L 754.32255 338.904935 
L 754.32255 353.865974 
L 473.236364 353.865974 
z
" clip-path="url(#p19e3c65933)" style="fill: #1f77b4"/>
   </g>
   <g id="patch_50">
    <path d="M 473.236364 357.606234 
L 648.91523 357.606234 
L 648.91523 372.567273 
L 473.236364 372.567273 
z
" clip-path="url(#p19e3c65933)" style="fill: #1f77b4"/>
   </g>
   <g id="patch_51">
    <path d="M 473.236364 376.307532 
L 628.419362 376.307532 
L 628.419362 391.268571 
L 473.236364 391.268571 
z
" clip-path="url(#p19e3c65933)" style="fill: #1f77b4"/>
   </g>
   <g id="patch_52">
    <path d="M 473.236364 395.008831 
L 596.21157 395.008831 
L 596.21157 409.96987 
L 473.236364 409.96987 
z
" clip-path="url(#p19e3c65933)" style="fill: #1f77b4"/>
   </g>
   <g id="patch_53">
    <path d="M 473.236364 413.71013 
L 587.427627 413.71013 
L 587.427627 428.671169 
L 473.236364 428.671169 
z
" clip-path="url(#p19e3c65933)" style="fill: #1f77b4"/>
   </g>
   <g id="patch_54">
    <path d="M 473.236364 432.411429 
L 581.571665 432.411429 
L 581.571665 447.372468 
L 473.236364 447.372468 
z
" clip-path="url(#p19e3c65933)" style="fill: #1f77b4"/>
   </g>
   <g id="patch_55">
    <path d="M 473.236364 451.112727 
L 569.85974 451.112727 
L 569.85974 466.073766 
L 473.236364 466.073766 
z
" clip-path="url(#p19e3c65933)" style="fill: #1f77b4"/>
   </g>
   <g id="patch_56">
    <path d="M 473.236364 469.814026 
L 569.85974 469.814026 
L 569.85974 484.775065 
L 473.236364 484.775065 
z
" clip-path="url(#p19e3c65933)" style="fill: #1f77b4"/>
   </g>
   <g id="patch_57">
    <path d="M 473.236364 488.515325 
L 564.003778 488.515325 
L 564.003778 503.476364 
L 473.236364 503.476364 
z
" clip-path="url(#p19e3c65933)" style="fill: #1f77b4"/>
   </g>
   <g id="matplotlib.axis_7">
    <g id="xtick_23">
     <g id="line2d_53">
      <g>
       <use xlink:href="#m237e58a47a" x="473.236364" y="512.64" style="stroke: #000000; stroke-width: 0.8"/>
      </g>
     </g>
     <g id="text_56">
      <!-- 0 -->
      <g transform="translate(470.087145 527.130625) scale(0.1 -0.1)">
       <use xlink:href="#IPAexGothic-30"/>
      </g>
     </g>
    </g>
    <g id="xtick_24">
     <g id="line2d_54">
      <g>
       <use xlink:href="#m237e58a47a" x="531.795986" y="512.64" style="stroke: #000000; stroke-width: 0.8"/>
      </g>
     </g>
     <g id="text_57">
      <!-- 20 -->
      <g transform="translate(525.497548 527.130625) scale(0.1 -0.1)">
       <use xlink:href="#IPAexGothic-32"/>
       <use xlink:href="#IPAexGothic-30" x="62.988281"/>
      </g>
     </g>
    </g>
    <g id="xtick_25">
     <g id="line2d_55">
      <g>
       <use xlink:href="#m237e58a47a" x="590.355608" y="512.64" style="stroke: #000000; stroke-width: 0.8"/>
      </g>
     </g>
     <g id="text_58">
      <!-- 40 -->
      <g transform="translate(584.057171 527.130625) scale(0.1 -0.1)">
       <use xlink:href="#IPAexGothic-34"/>
       <use xlink:href="#IPAexGothic-30" x="62.988281"/>
      </g>
     </g>
    </g>
    <g id="xtick_26">
     <g id="line2d_56">
      <g>
       <use xlink:href="#m237e58a47a" x="648.91523" y="512.64" style="stroke: #000000; stroke-width: 0.8"/>
      </g>
     </g>
     <g id="text_59">
      <!-- 60 -->
      <g transform="translate(642.616793 527.130625) scale(0.1 -0.1)">
       <use xlink:href="#IPAexGothic-36"/>
       <use xlink:href="#IPAexGothic-30" x="62.988281"/>
      </g>
     </g>
    </g>
    <g id="xtick_27">
     <g id="line2d_57">
      <g>
       <use xlink:href="#m237e58a47a" x="707.474852" y="512.64" style="stroke: #000000; stroke-width: 0.8"/>
      </g>
     </g>
     <g id="text_60">
      <!-- 80 -->
      <g transform="translate(701.176415 527.130625) scale(0.1 -0.1)">
       <use xlink:href="#IPAexGothic-38"/>
       <use xlink:href="#IPAexGothic-30" x="62.988281"/>
      </g>
     </g>
    </g>
    <g id="xtick_28">
     <g id="line2d_58">
      <g>
       <use xlink:href="#m237e58a47a" x="766.034475" y="512.64" style="stroke: #000000; stroke-width: 0.8"/>
      </g>
     </g>
     <g id="text_61">
      <!-- 100 -->
      <g transform="translate(756.586818 527.130625) scale(0.1 -0.1)">
       <use xlink:href="#IPAexGothic-31"/>
       <use xlink:href="#IPAexGothic-30" x="62.988281"/>
       <use xlink:href="#IPAexGothic-30" x="125.976562"/>
      </g>
     </g>
    </g>
   </g>
   <g id="matplotlib.axis_8">
    <g id="ytick_31">
     <g id="line2d_59">
      <g>
       <use xlink:href="#m0b52c3712c" x="473.236364" y="327.684156" style="stroke: #000000; stroke-width: 0.8"/>
      </g>
     </g>
     <g id="text_62">
      <!-- し -->
      <g transform="translate(456.236364 331.429468) scale(0.1 -0.1)">
       <use xlink:href="#IPAexGothic-3057"/>
      </g>
     </g>
    </g>
    <g id="ytick_32">
     <g id="line2d_60">
      <g>
       <use xlink:href="#m0b52c3712c" x="473.236364" y="346.385455" style="stroke: #000000; stroke-width: 0.8"/>
      </g>
     </g>
     <g id="text_63">
      <!-- ある -->
      <g transform="translate(446.236364 350.130767) scale(0.1 -0.1)">
       <use xlink:href="#IPAexGothic-3042"/>
       <use xlink:href="#IPAexGothic-308b" x="100"/>
      </g>
     </g>
    </g>
    <g id="ytick_33">
     <g id="line2d_61">
      <g>
       <use xlink:href="#m0b52c3712c" x="473.236364" y="365.086753" style="stroke: #000000; stroke-width: 0.8"/>
      </g>
     </g>
     <g id="text_64">
      <!-- 事 -->
      <g transform="translate(456.236364 368.832066) scale(0.1 -0.1)">
       <use xlink:href="#IPAexGothic-4e8b"/>
      </g>
     </g>
    </g>
    <g id="ytick_34">
     <g id="line2d_62">
      <g>
       <use xlink:href="#m0b52c3712c" x="473.236364" y="383.788052" style="stroke: #000000; stroke-width: 0.8"/>
      </g>
     </g>
     <g id="text_65">
      <!-- ない -->
      <g transform="translate(446.236364 387.533364) scale(0.1 -0.1)">
       <use xlink:href="#IPAexGothic-306a"/>
       <use xlink:href="#IPAexGothic-3044" x="100"/>
      </g>
     </g>
    </g>
    <g id="ytick_35">
     <g id="line2d_63">
      <g>
       <use xlink:href="#m0b52c3712c" x="473.236364" y="402.489351" style="stroke: #000000; stroke-width: 0.8"/>
      </g>
     </g>
     <g id="text_66">
      <!-- いる -->
      <g transform="translate(446.236364 406.234663) scale(0.1 -0.1)">
       <use xlink:href="#IPAexGothic-3044"/>
       <use xlink:href="#IPAexGothic-308b" x="100"/>
      </g>
     </g>
    </g>
    <g id="ytick_36">
     <g id="line2d_64">
      <g>
       <use xlink:href="#m0b52c3712c" x="473.236364" y="421.190649" style="stroke: #000000; stroke-width: 0.8"/>
      </g>
     </g>
     <g id="text_67">
      <!-- 人間 -->
      <g transform="translate(446.236364 424.935962) scale(0.1 -0.1)">
       <use xlink:href="#IPAexGothic-4eba"/>
       <use xlink:href="#IPAexGothic-9593" x="100"/>
      </g>
     </g>
    </g>
    <g id="ytick_37">
     <g id="line2d_65">
      <g>
       <use xlink:href="#m0b52c3712c" x="473.236364" y="439.891948" style="stroke: #000000; stroke-width: 0.8"/>
      </g>
     </g>
     <g id="text_68">
      <!-- もの -->
      <g transform="translate(446.236364 443.637261) scale(0.1 -0.1)">
       <use xlink:href="#IPAexGothic-3082"/>
       <use xlink:href="#IPAexGothic-306e" x="100"/>
      </g>
     </g>
    </g>
    <g id="ytick_38">
     <g id="line2d_66">
      <g>
       <use xlink:href="#m0b52c3712c" x="473.236364" y="458.593247" style="stroke: #000000; stroke-width: 0.8"/>
      </g>
     </g>
     <g id="text_69">
      <!-- この -->
      <g transform="translate(446.236364 462.338559) scale(0.1 -0.1)">
       <use xlink:href="#IPAexGothic-3053"/>
       <use xlink:href="#IPAexGothic-306e" x="100"/>
      </g>
     </g>
    </g>
    <g id="ytick_39">
     <g id="line2d_67">
      <g>
       <use xlink:href="#m0b52c3712c" x="473.236364" y="477.294545" style="stroke: #000000; stroke-width: 0.8"/>
      </g>
     </g>
     <g id="text_70">
      <!-- する -->
      <g transform="translate(446.236364 481.039858) scale(0.1 -0.1)">
       <use xlink:href="#IPAexGothic-3059"/>
       <use xlink:href="#IPAexGothic-308b" x="100"/>
      </g>
     </g>
    </g>
    <g id="ytick_40">
     <g id="line2d_68">
      <g>
       <use xlink:href="#m0b52c3712c" x="473.236364" y="495.995844" style="stroke: #000000; stroke-width: 0.8"/>
      </g>
     </g>
     <g id="text_71">
      <!-- 云う -->
      <g transform="translate(446.236364 499.741157) scale(0.1 -0.1)">
       <use xlink:href="#IPAexGothic-4e91"/>
       <use xlink:href="#IPAexGothic-3046" x="100"/>
      </g>
     </g>
    </g>
   </g>
   <g id="patch_58">
    <path d="M 473.236364 512.64 
L 473.236364 311.04 
" style="fill: none; stroke: #000000; stroke-width: 0.8; stroke-linejoin: miter; stroke-linecap: square"/>
   </g>
   <g id="patch_59">
    <path d="M 777.6 512.64 
L 777.6 311.04 
" style="fill: none; stroke: #000000; stroke-width: 0.8; stroke-linejoin: miter; stroke-linecap: square"/>
   </g>
   <g id="patch_60">
    <path d="M 473.236364 512.64 
L 777.6 512.64 
" style="fill: none; stroke: #000000; stroke-width: 0.8; stroke-linejoin: miter; stroke-linecap: square"/>
   </g>
   <g id="patch_61">
    <path d="M 473.236364 311.04 
L 777.6 311.04 
" style="fill: none; stroke: #000000; stroke-width: 0.8; stroke-linejoin: miter; stroke-linecap: square"/>
   </g>
   <g id="text_72">
    <!-- WITHOUT_STOPWORDS -->
    <g transform="translate(556.259744 305.04) scale(0.12 -0.12)">
     <defs>
      <path id="IPAexGothic-57" d="M 5888 4634 
L 4466 0 
L 4038 0 
L 3219 2759 
Q 3084 3209 2981 3738 
L 2963 3738 
Q 2866 3288 2713 2759 
L 1888 0 
L 1453 0 
L 44 4634 
L 672 4634 
L 1406 2041 
Q 1572 1444 1694 928 
L 1716 928 
Q 1819 1406 2003 2041 
L 2725 4556 
L 3213 4556 
L 3972 2041 
Q 4128 1541 4269 922 
L 4288 922 
Q 4441 1603 4563 2041 
L 5291 4634 
L 5888 4634 
z
" transform="scale(0.015625)"/>
      <path id="IPAexGothic-49" d="M 1203 63 
L 634 63 
L 634 4634 
L 1203 4634 
L 1203 63 
z
" transform="scale(0.015625)"/>
      <path id="IPAexGothic-54" d="M 3866 4141 
L 2175 4141 
L 2175 63 
L 1606 63 
L 1606 4141 
L -31 4141 
L -31 4634 
L 3866 4634 
L 3866 4141 
z
" transform="scale(0.015625)"/>
      <path id="IPAexGothic-48" d="M 4181 63 
L 3619 63 
L 3619 2200 
L 1172 2200 
L 1172 63 
L 609 63 
L 609 4634 
L 1172 4634 
L 1172 2669 
L 3619 2669 
L 3619 4634 
L 4181 4634 
L 4181 63 
z
" transform="scale(0.015625)"/>
      <path id="IPAexGothic-5f" d="M 3200 -750 
L 0 -750 
L 0 -431 
L 3200 -431 
L 3200 -750 
z
" transform="scale(0.015625)"/>
      <path id="IPAexGothic-53" d="M 2919 3641 
Q 2563 4259 1853 4259 
Q 1453 4259 1213 4009 
Q 1028 3803 1028 3534 
Q 1028 3238 1266 3047 
Q 1444 2913 1984 2688 
L 2200 2597 
Q 2925 2306 3191 1953 
Q 3422 1644 3422 1259 
Q 3422 644 2969 288 
Q 2559 -31 1931 -31 
Q 881 -31 313 766 
L 753 1100 
Q 1203 459 1938 459 
Q 2288 459 2534 625 
Q 2841 847 2841 1216 
Q 2841 1503 2616 1728 
Q 2375 1959 1728 2206 
L 1541 2278 
Q 453 2694 453 3481 
Q 453 4006 806 4347 
Q 1203 4725 1863 4725 
Q 2841 4725 3359 3956 
L 2919 3641 
z
" transform="scale(0.015625)"/>
      <path id="IPAexGothic-50" d="M 609 4634 
L 1941 4634 
Q 3688 4634 3688 3322 
Q 3688 1934 1906 1934 
L 1172 1934 
L 1172 63 
L 609 63 
L 609 4634 
z
M 1172 2381 
L 1800 2381 
Q 3100 2381 3100 3316 
Q 3100 4181 1894 4181 
L 1172 4181 
L 1172 2381 
z
" transform="scale(0.015625)"/>
      <path id="IPAexGothic-44" d="M 609 4634 
L 1984 4634 
Q 3159 4634 3791 4050 
Q 4456 3444 4456 2356 
Q 4456 1047 3516 441 
Q 2925 63 1941 63 
L 609 63 
L 609 4634 
z
M 1172 556 
L 1894 556 
Q 3853 556 3853 2356 
Q 3853 4147 1928 4147 
L 1172 4147 
L 1172 556 
z
" transform="scale(0.015625)"/>
     </defs>
     <use xlink:href="#IPAexGothic-57"/>
     <use xlink:href="#IPAexGothic-49" x="92.822266"/>
     <use xlink:href="#IPAexGothic-54" x="121.728516"/>
     <use xlink:href="#IPAexGothic-48" x="181.640625"/>
     <use xlink:href="#IPAexGothic-4f" x="256.640625"/>
     <use xlink:href="#IPAexGothic-55" x="336.328125"/>
     <use xlink:href="#IPAexGothic-54" x="411.035156"/>
     <use xlink:href="#IPAexGothic-5f" x="470.947266"/>
     <use xlink:href="#IPAexGothic-53" x="520.947266"/>
     <use xlink:href="#IPAexGothic-54" x="579.443359"/>
     <use xlink:href="#IPAexGothic-4f" x="639.355469"/>
     <use xlink:href="#IPAexGothic-50" x="719.042969"/>
     <use xlink:href="#IPAexGothic-57" x="781.152344"/>
     <use xlink:href="#IPAexGothic-4f" x="873.974609"/>
     <use xlink:href="#IPAexGothic-52" x="953.662109"/>
     <use xlink:href="#IPAexGothic-44" x="1018.457031"/>
     <use xlink:href="#IPAexGothic-53" x="1094.140625"/>
    </g>
   </g>
  </g>
  <g id="text_73">
   <!-- [37] Top 10 cooccuring words with 猫 -->
   <g transform="translate(326.436563 21.369375) scale(0.12 -0.12)">
    <defs>
     <path id="IPAexGothic-5b" d="M 1706 -991 
L 581 -991 
L 581 4750 
L 1706 4750 
L 1706 4438 
L 1028 4438 
L 1028 -678 
L 1706 -678 
L 1706 -991 
z
" transform="scale(0.015625)"/>
     <path id="IPAexGothic-37" d="M 3597 4263 
Q 2238 2106 1778 63 
L 1131 63 
Q 1581 1834 2950 4128 
L 428 4128 
L 428 4634 
L 3597 4634 
L 3597 4263 
z
" transform="scale(0.015625)"/>
     <path id="IPAexGothic-5d" d="M 1322 -991 
L 197 -991 
L 197 -678 
L 875 -678 
L 875 4438 
L 197 4438 
L 197 4750 
L 1322 4750 
L 1322 -991 
z
" transform="scale(0.015625)"/>
     <path id="IPAexGothic-20" transform="scale(0.015625)"/>
     <path id="IPAexGothic-6f" d="M 1919 3341 
Q 2594 3341 3056 2888 
Q 3531 2413 3531 1638 
Q 3531 888 3066 422 
Q 2609 -31 1919 -31 
Q 1228 -31 781 416 
Q 313 881 313 1656 
Q 313 2413 788 2888 
Q 1241 3341 1919 3341 
z
M 1919 2919 
Q 1519 2919 1241 2631 
Q 888 2278 888 1650 
Q 888 1031 1234 684 
Q 1516 403 1919 403 
Q 2331 403 2609 691 
Q 2956 1038 2956 1672 
Q 2956 2269 2603 2631 
Q 2316 2919 1919 2919 
z
" transform="scale(0.015625)"/>
     <path id="IPAexGothic-70" d="M 1075 2688 
Q 1525 3341 2206 3341 
Q 2769 3341 3172 2938 
Q 3641 2469 3641 1644 
Q 3641 841 3178 372 
Q 2775 -31 2200 -31 
Q 1569 -31 1106 497 
L 1106 -1216 
L 563 -1216 
L 563 3250 
L 1075 3250 
L 1075 2688 
z
M 1106 1950 
L 1106 1291 
Q 1106 897 1516 600 
Q 1791 403 2106 403 
Q 2469 403 2725 659 
Q 3066 997 3066 1631 
Q 3066 2200 2784 2559 
Q 2503 2900 2100 2900 
Q 1656 2900 1338 2484 
Q 1106 2184 1106 1950 
z
" transform="scale(0.015625)"/>
     <path id="IPAexGothic-63" d="M 3269 784 
Q 2834 -31 1900 -31 
Q 1228 -31 788 409 
Q 313 891 313 1663 
Q 313 2428 788 2913 
Q 1222 3347 1881 3347 
Q 2813 3347 3206 2541 
L 2763 2309 
Q 2484 2900 1900 2900 
Q 1516 2900 1234 2619 
Q 881 2266 881 1650 
Q 881 1069 1222 728 
Q 1522 428 1956 428 
Q 2547 428 2847 1016 
L 3269 784 
z
" transform="scale(0.015625)"/>
     <path id="IPAexGothic-75" d="M 3284 63 
L 2772 63 
L 2772 644 
Q 2300 0 1625 0 
Q 1072 0 763 375 
Q 519 678 519 1241 
L 519 3250 
L 1069 3250 
L 1069 1259 
Q 1069 466 1734 466 
Q 2406 466 2734 1291 
L 2734 3250 
L 3284 3250 
L 3284 63 
z
" transform="scale(0.015625)"/>
     <path id="IPAexGothic-72" d="M 2309 3316 
L 2213 2769 
Q 2106 2791 2022 2791 
Q 1653 2791 1413 2444 
Q 1113 2006 1113 1675 
L 1113 63 
L 563 63 
L 563 3250 
L 1081 3250 
L 1056 2303 
L 1069 2303 
Q 1422 3341 2097 3341 
Q 2206 3341 2309 3316 
z
" transform="scale(0.015625)"/>
     <path id="IPAexGothic-69" d="M 1178 3928 
L 550 3928 
L 550 4569 
L 1178 4569 
L 1178 3928 
z
M 1138 63 
L 588 63 
L 588 3250 
L 1138 3250 
L 1138 63 
z
" transform="scale(0.015625)"/>
     <path id="IPAexGothic-6e" d="M 3328 63 
L 2778 63 
L 2778 2041 
Q 2778 2853 2106 2853 
Q 1428 2853 1113 2041 
L 1113 63 
L 563 63 
L 563 3250 
L 1075 3250 
L 1075 2675 
Q 1525 3316 2222 3316 
Q 3328 3316 3328 2072 
L 3328 63 
z
" transform="scale(0.015625)"/>
     <path id="IPAexGothic-67" d="M 1331 1150 
Q 1006 1122 1006 900 
Q 1006 613 1763 575 
L 2131 556 
Q 3303 497 3303 -294 
Q 3303 -700 2925 -959 
Q 2519 -1253 1794 -1253 
Q 1138 -1253 738 -1028 
Q 353 -809 353 -428 
Q 353 84 1075 247 
L 1075 269 
Q 506 413 506 778 
Q 506 1116 994 1297 
Q 456 1575 456 2181 
Q 456 2650 769 2963 
Q 1128 3322 1738 3322 
Q 2125 3322 2422 3153 
Q 2650 3453 3259 3463 
L 3259 3013 
Q 2838 3003 2703 2938 
Q 3034 2613 3034 2169 
Q 3034 1728 2734 1425 
Q 2400 1094 1813 1094 
Q 1563 1094 1331 1150 
z
M 1734 2919 
Q 1409 2919 1197 2706 
Q 988 2497 988 2181 
Q 988 1872 1184 1684 
Q 1397 1472 1756 1472 
Q 2094 1472 2297 1678 
Q 2503 1881 2503 2203 
Q 2503 2497 2297 2700 
Q 2081 2919 1734 2919 
z
M 1753 159 
Q 903 159 903 -366 
Q 903 -875 1800 -875 
Q 2378 -875 2638 -606 
Q 2772 -481 2772 -313 
Q 2772 159 1753 159 
z
" transform="scale(0.015625)"/>
     <path id="IPAexGothic-77" d="M 4772 3250 
L 3666 6 
L 3281 6 
L 2609 1919 
Q 2509 2203 2413 2622 
L 2394 2622 
Q 2322 2319 2188 1919 
L 1534 6 
L 1150 6 
L 44 3250 
L 619 3250 
L 1156 1491 
Q 1206 1331 1363 753 
L 1381 753 
Q 1475 1125 1594 1491 
L 2169 3250 
L 2656 3250 
L 3256 1491 
Q 3347 1244 3469 753 
L 3488 753 
Q 3591 1184 3684 1491 
L 4216 3250 
L 4772 3250 
z
" transform="scale(0.015625)"/>
     <path id="IPAexGothic-64" d="M 3391 63 
L 2891 63 
L 2891 619 
Q 2441 -31 1753 -31 
Q 1181 -31 788 372 
Q 313 844 313 1663 
Q 313 2466 772 2938 
Q 1169 3341 1753 3341 
Q 2384 3341 2847 2809 
L 2847 4794 
L 3391 4794 
L 3391 63 
z
M 2847 1303 
L 2847 2097 
Q 2847 2413 2456 2706 
Q 2181 2906 1853 2906 
Q 1484 2906 1228 2650 
Q 888 2309 888 1678 
Q 888 1109 1169 750 
Q 1441 409 1847 409 
Q 2322 409 2656 875 
Q 2847 1134 2847 1303 
z
" transform="scale(0.015625)"/>
     <path id="IPAexGothic-73" d="M 2234 2547 
Q 1938 2931 1484 2931 
Q 891 2931 891 2475 
Q 891 2153 1531 1944 
L 1741 1875 
Q 2650 1578 2650 894 
Q 2650 434 2272 172 
Q 1972 -31 1497 -31 
Q 766 -31 256 503 
L 603 819 
Q 997 397 1516 397 
Q 2131 397 2131 875 
Q 2131 1238 1453 1478 
L 1234 1553 
Q 378 1853 378 2431 
Q 378 2797 628 3047 
Q 928 3347 1453 3347 
Q 2156 3347 2606 2859 
L 2234 2547 
z
" transform="scale(0.015625)"/>
     <path id="IPAexGothic-74" d="M 2125 241 
Q 1769 -6 1397 -6 
Q 653 -6 653 831 
L 653 2859 
L 219 2859 
L 219 3250 
L 653 3250 
L 653 3966 
L 1178 4228 
L 1178 3250 
L 2063 3250 
L 2063 2859 
L 1178 2859 
L 1178 906 
Q 1178 416 1513 416 
Q 1738 416 1941 588 
L 2125 241 
z
" transform="scale(0.015625)"/>
     <path id="IPAexGothic-68" d="M 3347 63 
L 2797 63 
L 2797 2041 
Q 2797 2853 2131 2853 
Q 1447 2853 1131 2041 
L 1131 63 
L 581 63 
L 581 4794 
L 1131 4794 
L 1131 2706 
Q 1566 3316 2247 3316 
Q 3347 3316 3347 2072 
L 3347 63 
z
" transform="scale(0.015625)"/>
     <path id="IPAexGothic-732b" d="M 1619 2316 
Q 1222 1391 563 728 
L 313 1106 
Q 1050 1769 1503 2925 
Q 1416 3241 1331 3481 
Q 969 3031 563 2688 
L 300 3034 
Q 791 3409 1156 3909 
Q 891 4503 550 4978 
L 881 5203 
Q 1172 4800 1419 4300 
Q 1647 4644 1913 5253 
L 2278 5044 
Q 1988 4406 1619 3866 
Q 2072 2734 2072 1519 
Q 2072 356 1841 -116 
Q 1681 -447 1216 -447 
Q 975 -447 697 -397 
L 625 78 
Q 934 -13 1191 -13 
Q 1441 -13 1516 225 
Q 1656 675 1656 1569 
Q 1656 1931 1619 2316 
z
M 3666 4244 
L 4641 4244 
L 4641 5184 
L 5081 5184 
L 5081 4244 
L 6047 4244 
L 6047 3853 
L 5081 3853 
L 5081 3119 
L 4641 3119 
L 4641 3853 
L 3666 3853 
L 3666 3119 
L 3225 3119 
L 3225 3853 
L 2272 3853 
L 2272 4244 
L 3225 4244 
L 3225 5184 
L 3666 5184 
L 3666 4244 
z
M 5850 2791 
L 5850 -447 
L 5422 -447 
L 5422 -128 
L 2988 -128 
L 2988 -447 
L 2559 -447 
L 2559 2791 
L 5850 2791 
z
M 2988 2406 
L 2988 1544 
L 3981 1544 
L 3981 2406 
L 2988 2406 
z
M 2988 1172 
L 2988 256 
L 3981 256 
L 3981 1172 
L 2988 1172 
z
M 5422 256 
L 5422 1172 
L 4403 1172 
L 4403 256 
L 5422 256 
z
M 5422 1544 
L 5422 2406 
L 4403 2406 
L 4403 1544 
L 5422 1544 
z
" transform="scale(0.015625)"/>
    </defs>
    <use xlink:href="#IPAexGothic-5b"/>
    <use xlink:href="#IPAexGothic-33" x="29.980469"/>
    <use xlink:href="#IPAexGothic-37" x="92.96875"/>
    <use xlink:href="#IPAexGothic-5d" x="155.957031"/>
    <use xlink:href="#IPAexGothic-20" x="185.9375"/>
    <use xlink:href="#IPAexGothic-54" x="212.939453"/>
    <use xlink:href="#IPAexGothic-6f" x="272.851562"/>
    <use xlink:href="#IPAexGothic-70" x="333.251953"/>
    <use xlink:href="#IPAexGothic-20" x="395.361328"/>
    <use xlink:href="#IPAexGothic-31" x="422.363281"/>
    <use xlink:href="#IPAexGothic-30" x="485.351562"/>
    <use xlink:href="#IPAexGothic-20" x="548.339844"/>
    <use xlink:href="#IPAexGothic-63" x="575.341797"/>
    <use xlink:href="#IPAexGothic-6f" x="629.736328"/>
    <use xlink:href="#IPAexGothic-6f" x="690.136719"/>
    <use xlink:href="#IPAexGothic-63" x="750.537109"/>
    <use xlink:href="#IPAexGothic-63" x="804.931641"/>
    <use xlink:href="#IPAexGothic-75" x="859.326172"/>
    <use xlink:href="#IPAexGothic-72" x="919.726562"/>
    <use xlink:href="#IPAexGothic-69" x="956.738281"/>
    <use xlink:href="#IPAexGothic-6e" x="983.740234"/>
    <use xlink:href="#IPAexGothic-67" x="1044.140625"/>
    <use xlink:href="#IPAexGothic-20" x="1099.658203"/>
    <use xlink:href="#IPAexGothic-77" x="1126.660156"/>
    <use xlink:href="#IPAexGothic-6f" x="1201.855469"/>
    <use xlink:href="#IPAexGothic-72" x="1262.255859"/>
    <use xlink:href="#IPAexGothic-64" x="1299.267578"/>
    <use xlink:href="#IPAexGothic-73" x="1361.669922"/>
    <use xlink:href="#IPAexGothic-20" x="1407.861328"/>
    <use xlink:href="#IPAexGothic-77" x="1434.863281"/>
    <use xlink:href="#IPAexGothic-69" x="1510.058594"/>
    <use xlink:href="#IPAexGothic-74" x="1537.060547"/>
    <use xlink:href="#IPAexGothic-68" x="1571.679688"/>
    <use xlink:href="#IPAexGothic-20" x="1632.373047"/>
    <use xlink:href="#IPAexGothic-732b" x="1659.375"/>
   </g>
  </g>
 </g>
 <defs>
  <clipPath id="p82a9064e9e">
   <rect x="108" y="69.12" width="304.363636" height="201.6"/>
  </clipPath>
  <clipPath id="pa89d2ad346">
   <rect x="473.236364" y="69.12" width="304.363636" height="201.6"/>
  </clipPath>
  <clipPath id="p397e92c3ba">
   <rect x="108" y="311.04" width="304.363636" height="201.6"/>
  </clipPath>
  <clipPath id="p19e3c65933">
   <rect x="473.236364" y="311.04" width="304.363636" height="201.6"/>
  </clipPath>
 </defs>
</svg>
