<?xml version="1.0" encoding="utf-8" standalone="no"?>
<!DOCTYPE svg PUBLIC "-//W3C//DTD SVG 1.1//EN"
  "http://www.w3.org/Graphics/SVG/1.1/DTD/svg11.dtd">
<svg xmlns:xlink="http://www.w3.org/1999/xlink" width="460.8pt" height="345.6pt" viewBox="0 0 460.8 345.6" xmlns="http://www.w3.org/2000/svg" version="1.1">
 <metadata>
  <rdf:RDF xmlns:dc="http://purl.org/dc/elements/1.1/" xmlns:cc="http://creativecommons.org/ns#" xmlns:rdf="http://www.w3.org/1999/02/22-rdf-syntax-ns#">
   <cc:Work>
    <dc:type rdf:resource="http://purl.org/dc/dcmitype/StillImage"/>
    <dc:date>2023-04-27T15:16:59.988578</dc:date>
    <dc:format>image/svg+xml</dc:format>
    <dc:creator>
     <cc:Agent>
      <dc:title>Matplotlib v3.7.1, https://matplotlib.org/</dc:title>
     </cc:Agent>
    </dc:creator>
   </cc:Work>
  </rdf:RDF>
 </metadata>
 <defs>
  <style type="text/css">*{stroke-linejoin: round; stroke-linecap: butt}</style>
 </defs>
 <g id="figure_1">
  <g id="patch_1">
   <path d="M 0 345.6 
L 460.8 345.6 
L 460.8 0 
L 0 0 
z
" style="fill: #ffffff"/>
  </g>
  <g id="axes_1">
   <g id="patch_2">
    <path d="M 57.6 307.584 
L 414.72 307.584 
L 414.72 41.472 
L 57.6 41.472 
z
" style="fill: #ffffff"/>
   </g>
   <g id="patch_3">
    <path d="M 73.832727 307.584 
L 77.250144 307.584 
L 77.250144 54.144 
L 73.832727 54.144 
z
" clip-path="url(#p003c198891)" style="fill: #1f77b4"/>
   </g>
   <g id="patch_4">
    <path d="M 77.250144 307.584 
L 80.66756 307.584 
L 80.66756 306.070312 
L 77.250144 306.070312 
z
" clip-path="url(#p003c198891)" style="fill: #1f77b4"/>
   </g>
   <g id="patch_5">
    <path d="M 80.66756 307.584 
L 84.084976 307.584 
L 84.084976 306.929937 
L 80.66756 306.929937 
z
" clip-path="url(#p003c198891)" style="fill: #1f77b4"/>
   </g>
   <g id="patch_6">
    <path d="M 84.084976 307.584 
L 87.502392 307.584 
L 87.502392 307.341062 
L 84.084976 307.341062 
z
" clip-path="url(#p003c198891)" style="fill: #1f77b4"/>
   </g>
   <g id="patch_7">
    <path d="M 87.502392 307.584 
L 90.919809 307.584 
L 90.919809 307.378437 
L 87.502392 307.378437 
z
" clip-path="url(#p003c198891)" style="fill: #1f77b4"/>
   </g>
   <g id="patch_8">
    <path d="M 90.919809 307.584 
L 94.337225 307.584 
L 94.337225 307.50925 
L 90.919809 307.50925 
z
" clip-path="url(#p003c198891)" style="fill: #1f77b4"/>
   </g>
   <g id="patch_9">
    <path d="M 94.337225 307.584 
L 97.754641 307.584 
L 97.754641 307.453187 
L 94.337225 307.453187 
z
" clip-path="url(#p003c198891)" style="fill: #1f77b4"/>
   </g>
   <g id="patch_10">
    <path d="M 97.754641 307.584 
L 101.172057 307.584 
L 101.172057 307.546625 
L 97.754641 307.546625 
z
" clip-path="url(#p003c198891)" style="fill: #1f77b4"/>
   </g>
   <g id="patch_11">
    <path d="M 101.172057 307.584 
L 104.589474 307.584 
L 104.589474 307.584 
L 101.172057 307.584 
z
" clip-path="url(#p003c198891)" style="fill: #1f77b4"/>
   </g>
   <g id="patch_12">
    <path d="M 104.589474 307.584 
L 108.00689 307.584 
L 108.00689 307.490562 
L 104.589474 307.490562 
z
" clip-path="url(#p003c198891)" style="fill: #1f77b4"/>
   </g>
   <g id="patch_13">
    <path d="M 108.00689 307.584 
L 111.424306 307.584 
L 111.424306 307.546625 
L 108.00689 307.546625 
z
" clip-path="url(#p003c198891)" style="fill: #1f77b4"/>
   </g>
   <g id="patch_14">
    <path d="M 111.424306 307.584 
L 114.841722 307.584 
L 114.841722 307.584 
L 111.424306 307.584 
z
" clip-path="url(#p003c198891)" style="fill: #1f77b4"/>
   </g>
   <g id="patch_15">
    <path d="M 114.841722 307.584 
L 118.259139 307.584 
L 118.259139 307.546625 
L 114.841722 307.546625 
z
" clip-path="url(#p003c198891)" style="fill: #1f77b4"/>
   </g>
   <g id="patch_16">
    <path d="M 118.259139 307.584 
L 121.676555 307.584 
L 121.676555 307.584 
L 118.259139 307.584 
z
" clip-path="url(#p003c198891)" style="fill: #1f77b4"/>
   </g>
   <g id="patch_17">
    <path d="M 121.676555 307.584 
L 125.093971 307.584 
L 125.093971 307.584 
L 121.676555 307.584 
z
" clip-path="url(#p003c198891)" style="fill: #1f77b4"/>
   </g>
   <g id="patch_18">
    <path d="M 125.093971 307.584 
L 128.511388 307.584 
L 128.511388 307.565312 
L 125.093971 307.565312 
z
" clip-path="url(#p003c198891)" style="fill: #1f77b4"/>
   </g>
   <g id="patch_19">
    <path d="M 128.511388 307.584 
L 131.928804 307.584 
L 131.928804 307.565312 
L 128.511388 307.565312 
z
" clip-path="url(#p003c198891)" style="fill: #1f77b4"/>
   </g>
   <g id="patch_20">
    <path d="M 131.928804 307.584 
L 135.34622 307.584 
L 135.34622 307.565312 
L 131.928804 307.565312 
z
" clip-path="url(#p003c198891)" style="fill: #1f77b4"/>
   </g>
   <g id="patch_21">
    <path d="M 135.34622 307.584 
L 138.763636 307.584 
L 138.763636 307.584 
L 135.34622 307.584 
z
" clip-path="url(#p003c198891)" style="fill: #1f77b4"/>
   </g>
   <g id="patch_22">
    <path d="M 138.763636 307.584 
L 142.181053 307.584 
L 142.181053 307.584 
L 138.763636 307.584 
z
" clip-path="url(#p003c198891)" style="fill: #1f77b4"/>
   </g>
   <g id="patch_23">
    <path d="M 142.181053 307.584 
L 145.598469 307.584 
L 145.598469 307.565312 
L 142.181053 307.565312 
z
" clip-path="url(#p003c198891)" style="fill: #1f77b4"/>
   </g>
   <g id="patch_24">
    <path d="M 145.598469 307.584 
L 149.015885 307.584 
L 149.015885 307.584 
L 145.598469 307.584 
z
" clip-path="url(#p003c198891)" style="fill: #1f77b4"/>
   </g>
   <g id="patch_25">
    <path d="M 149.015885 307.584 
L 152.433301 307.584 
L 152.433301 307.565312 
L 149.015885 307.565312 
z
" clip-path="url(#p003c198891)" style="fill: #1f77b4"/>
   </g>
   <g id="patch_26">
    <path d="M 152.433301 307.584 
L 155.850718 307.584 
L 155.850718 307.584 
L 152.433301 307.584 
z
" clip-path="url(#p003c198891)" style="fill: #1f77b4"/>
   </g>
   <g id="patch_27">
    <path d="M 155.850718 307.584 
L 159.268134 307.584 
L 159.268134 307.565312 
L 155.850718 307.565312 
z
" clip-path="url(#p003c198891)" style="fill: #1f77b4"/>
   </g>
   <g id="patch_28">
    <path d="M 159.268134 307.584 
L 162.68555 307.584 
L 162.68555 307.565312 
L 159.268134 307.565312 
z
" clip-path="url(#p003c198891)" style="fill: #1f77b4"/>
   </g>
   <g id="patch_29">
    <path d="M 162.68555 307.584 
L 166.102967 307.584 
L 166.102967 307.565312 
L 162.68555 307.565312 
z
" clip-path="url(#p003c198891)" style="fill: #1f77b4"/>
   </g>
   <g id="patch_30">
    <path d="M 166.102967 307.584 
L 169.520383 307.584 
L 169.520383 307.584 
L 166.102967 307.584 
z
" clip-path="url(#p003c198891)" style="fill: #1f77b4"/>
   </g>
   <g id="patch_31">
    <path d="M 169.520383 307.584 
L 172.937799 307.584 
L 172.937799 307.584 
L 169.520383 307.584 
z
" clip-path="url(#p003c198891)" style="fill: #1f77b4"/>
   </g>
   <g id="patch_32">
    <path d="M 172.937799 307.584 
L 176.355215 307.584 
L 176.355215 307.584 
L 172.937799 307.584 
z
" clip-path="url(#p003c198891)" style="fill: #1f77b4"/>
   </g>
   <g id="patch_33">
    <path d="M 176.355215 307.584 
L 179.772632 307.584 
L 179.772632 307.584 
L 176.355215 307.584 
z
" clip-path="url(#p003c198891)" style="fill: #1f77b4"/>
   </g>
   <g id="patch_34">
    <path d="M 179.772632 307.584 
L 183.190048 307.584 
L 183.190048 307.584 
L 179.772632 307.584 
z
" clip-path="url(#p003c198891)" style="fill: #1f77b4"/>
   </g>
   <g id="patch_35">
    <path d="M 183.190048 307.584 
L 186.607464 307.584 
L 186.607464 307.527937 
L 183.190048 307.527937 
z
" clip-path="url(#p003c198891)" style="fill: #1f77b4"/>
   </g>
   <g id="patch_36">
    <path d="M 186.607464 307.584 
L 190.02488 307.584 
L 190.02488 307.584 
L 186.607464 307.584 
z
" clip-path="url(#p003c198891)" style="fill: #1f77b4"/>
   </g>
   <g id="patch_37">
    <path d="M 190.02488 307.584 
L 193.442297 307.584 
L 193.442297 307.584 
L 190.02488 307.584 
z
" clip-path="url(#p003c198891)" style="fill: #1f77b4"/>
   </g>
   <g id="patch_38">
    <path d="M 193.442297 307.584 
L 196.859713 307.584 
L 196.859713 307.584 
L 193.442297 307.584 
z
" clip-path="url(#p003c198891)" style="fill: #1f77b4"/>
   </g>
   <g id="patch_39">
    <path d="M 196.859713 307.584 
L 200.277129 307.584 
L 200.277129 307.584 
L 196.859713 307.584 
z
" clip-path="url(#p003c198891)" style="fill: #1f77b4"/>
   </g>
   <g id="patch_40">
    <path d="M 200.277129 307.584 
L 203.694545 307.584 
L 203.694545 307.584 
L 200.277129 307.584 
z
" clip-path="url(#p003c198891)" style="fill: #1f77b4"/>
   </g>
   <g id="patch_41">
    <path d="M 203.694545 307.584 
L 207.111962 307.584 
L 207.111962 307.584 
L 203.694545 307.584 
z
" clip-path="url(#p003c198891)" style="fill: #1f77b4"/>
   </g>
   <g id="patch_42">
    <path d="M 207.111962 307.584 
L 210.529378 307.584 
L 210.529378 307.565312 
L 207.111962 307.565312 
z
" clip-path="url(#p003c198891)" style="fill: #1f77b4"/>
   </g>
   <g id="patch_43">
    <path d="M 210.529378 307.584 
L 213.946794 307.584 
L 213.946794 307.584 
L 210.529378 307.584 
z
" clip-path="url(#p003c198891)" style="fill: #1f77b4"/>
   </g>
   <g id="patch_44">
    <path d="M 213.946794 307.584 
L 217.364211 307.584 
L 217.364211 307.584 
L 213.946794 307.584 
z
" clip-path="url(#p003c198891)" style="fill: #1f77b4"/>
   </g>
   <g id="patch_45">
    <path d="M 217.364211 307.584 
L 220.781627 307.584 
L 220.781627 307.584 
L 217.364211 307.584 
z
" clip-path="url(#p003c198891)" style="fill: #1f77b4"/>
   </g>
   <g id="patch_46">
    <path d="M 220.781627 307.584 
L 224.199043 307.584 
L 224.199043 307.584 
L 220.781627 307.584 
z
" clip-path="url(#p003c198891)" style="fill: #1f77b4"/>
   </g>
   <g id="patch_47">
    <path d="M 224.199043 307.584 
L 227.616459 307.584 
L 227.616459 307.584 
L 224.199043 307.584 
z
" clip-path="url(#p003c198891)" style="fill: #1f77b4"/>
   </g>
   <g id="patch_48">
    <path d="M 227.616459 307.584 
L 231.033876 307.584 
L 231.033876 307.565312 
L 227.616459 307.565312 
z
" clip-path="url(#p003c198891)" style="fill: #1f77b4"/>
   </g>
   <g id="patch_49">
    <path d="M 231.033876 307.584 
L 234.451292 307.584 
L 234.451292 307.584 
L 231.033876 307.584 
z
" clip-path="url(#p003c198891)" style="fill: #1f77b4"/>
   </g>
   <g id="patch_50">
    <path d="M 234.451292 307.584 
L 237.868708 307.584 
L 237.868708 307.584 
L 234.451292 307.584 
z
" clip-path="url(#p003c198891)" style="fill: #1f77b4"/>
   </g>
   <g id="patch_51">
    <path d="M 237.868708 307.584 
L 241.286124 307.584 
L 241.286124 307.584 
L 237.868708 307.584 
z
" clip-path="url(#p003c198891)" style="fill: #1f77b4"/>
   </g>
   <g id="patch_52">
    <path d="M 241.286124 307.584 
L 244.703541 307.584 
L 244.703541 307.584 
L 241.286124 307.584 
z
" clip-path="url(#p003c198891)" style="fill: #1f77b4"/>
   </g>
   <g id="patch_53">
    <path d="M 244.703541 307.584 
L 248.120957 307.584 
L 248.120957 307.584 
L 244.703541 307.584 
z
" clip-path="url(#p003c198891)" style="fill: #1f77b4"/>
   </g>
   <g id="patch_54">
    <path d="M 248.120957 307.584 
L 251.538373 307.584 
L 251.538373 307.584 
L 248.120957 307.584 
z
" clip-path="url(#p003c198891)" style="fill: #1f77b4"/>
   </g>
   <g id="patch_55">
    <path d="M 251.538373 307.584 
L 254.955789 307.584 
L 254.955789 307.584 
L 251.538373 307.584 
z
" clip-path="url(#p003c198891)" style="fill: #1f77b4"/>
   </g>
   <g id="patch_56">
    <path d="M 254.955789 307.584 
L 258.373206 307.584 
L 258.373206 307.565312 
L 254.955789 307.565312 
z
" clip-path="url(#p003c198891)" style="fill: #1f77b4"/>
   </g>
   <g id="patch_57">
    <path d="M 258.373206 307.584 
L 261.790622 307.584 
L 261.790622 307.584 
L 258.373206 307.584 
z
" clip-path="url(#p003c198891)" style="fill: #1f77b4"/>
   </g>
   <g id="patch_58">
    <path d="M 261.790622 307.584 
L 265.208038 307.584 
L 265.208038 307.584 
L 261.790622 307.584 
z
" clip-path="url(#p003c198891)" style="fill: #1f77b4"/>
   </g>
   <g id="patch_59">
    <path d="M 265.208038 307.584 
L 268.625455 307.584 
L 268.625455 307.584 
L 265.208038 307.584 
z
" clip-path="url(#p003c198891)" style="fill: #1f77b4"/>
   </g>
   <g id="patch_60">
    <path d="M 268.625455 307.584 
L 272.042871 307.584 
L 272.042871 307.584 
L 268.625455 307.584 
z
" clip-path="url(#p003c198891)" style="fill: #1f77b4"/>
   </g>
   <g id="patch_61">
    <path d="M 272.042871 307.584 
L 275.460287 307.584 
L 275.460287 307.584 
L 272.042871 307.584 
z
" clip-path="url(#p003c198891)" style="fill: #1f77b4"/>
   </g>
   <g id="patch_62">
    <path d="M 275.460287 307.584 
L 278.877703 307.584 
L 278.877703 307.584 
L 275.460287 307.584 
z
" clip-path="url(#p003c198891)" style="fill: #1f77b4"/>
   </g>
   <g id="patch_63">
    <path d="M 278.877703 307.584 
L 282.29512 307.584 
L 282.29512 307.565312 
L 278.877703 307.565312 
z
" clip-path="url(#p003c198891)" style="fill: #1f77b4"/>
   </g>
   <g id="patch_64">
    <path d="M 282.29512 307.584 
L 285.712536 307.584 
L 285.712536 307.565312 
L 282.29512 307.565312 
z
" clip-path="url(#p003c198891)" style="fill: #1f77b4"/>
   </g>
   <g id="patch_65">
    <path d="M 285.712536 307.584 
L 289.129952 307.584 
L 289.129952 307.584 
L 285.712536 307.584 
z
" clip-path="url(#p003c198891)" style="fill: #1f77b4"/>
   </g>
   <g id="patch_66">
    <path d="M 289.129952 307.584 
L 292.547368 307.584 
L 292.547368 307.584 
L 289.129952 307.584 
z
" clip-path="url(#p003c198891)" style="fill: #1f77b4"/>
   </g>
   <g id="patch_67">
    <path d="M 292.547368 307.584 
L 295.964785 307.584 
L 295.964785 307.565312 
L 292.547368 307.565312 
z
" clip-path="url(#p003c198891)" style="fill: #1f77b4"/>
   </g>
   <g id="patch_68">
    <path d="M 295.964785 307.584 
L 299.382201 307.584 
L 299.382201 307.584 
L 295.964785 307.584 
z
" clip-path="url(#p003c198891)" style="fill: #1f77b4"/>
   </g>
   <g id="patch_69">
    <path d="M 299.382201 307.584 
L 302.799617 307.584 
L 302.799617 307.584 
L 299.382201 307.584 
z
" clip-path="url(#p003c198891)" style="fill: #1f77b4"/>
   </g>
   <g id="patch_70">
    <path d="M 302.799617 307.584 
L 306.217033 307.584 
L 306.217033 307.565312 
L 302.799617 307.565312 
z
" clip-path="url(#p003c198891)" style="fill: #1f77b4"/>
   </g>
   <g id="patch_71">
    <path d="M 306.217033 307.584 
L 309.63445 307.584 
L 309.63445 307.584 
L 306.217033 307.584 
z
" clip-path="url(#p003c198891)" style="fill: #1f77b4"/>
   </g>
   <g id="patch_72">
    <path d="M 309.63445 307.584 
L 313.051866 307.584 
L 313.051866 307.584 
L 309.63445 307.584 
z
" clip-path="url(#p003c198891)" style="fill: #1f77b4"/>
   </g>
   <g id="patch_73">
    <path d="M 313.051866 307.584 
L 316.469282 307.584 
L 316.469282 307.565312 
L 313.051866 307.565312 
z
" clip-path="url(#p003c198891)" style="fill: #1f77b4"/>
   </g>
   <g id="patch_74">
    <path d="M 316.469282 307.584 
L 319.886699 307.584 
L 319.886699 307.584 
L 316.469282 307.584 
z
" clip-path="url(#p003c198891)" style="fill: #1f77b4"/>
   </g>
   <g id="patch_75">
    <path d="M 319.886699 307.584 
L 323.304115 307.584 
L 323.304115 307.584 
L 319.886699 307.584 
z
" clip-path="url(#p003c198891)" style="fill: #1f77b4"/>
   </g>
   <g id="patch_76">
    <path d="M 323.304115 307.584 
L 326.721531 307.584 
L 326.721531 307.565312 
L 323.304115 307.565312 
z
" clip-path="url(#p003c198891)" style="fill: #1f77b4"/>
   </g>
   <g id="patch_77">
    <path d="M 326.721531 307.584 
L 330.138947 307.584 
L 330.138947 307.565312 
L 326.721531 307.565312 
z
" clip-path="url(#p003c198891)" style="fill: #1f77b4"/>
   </g>
   <g id="patch_78">
    <path d="M 330.138947 307.584 
L 333.556364 307.584 
L 333.556364 307.584 
L 330.138947 307.584 
z
" clip-path="url(#p003c198891)" style="fill: #1f77b4"/>
   </g>
   <g id="patch_79">
    <path d="M 333.556364 307.584 
L 336.97378 307.584 
L 336.97378 307.584 
L 333.556364 307.584 
z
" clip-path="url(#p003c198891)" style="fill: #1f77b4"/>
   </g>
   <g id="patch_80">
    <path d="M 336.97378 307.584 
L 340.391196 307.584 
L 340.391196 307.584 
L 336.97378 307.584 
z
" clip-path="url(#p003c198891)" style="fill: #1f77b4"/>
   </g>
   <g id="patch_81">
    <path d="M 340.391196 307.584 
L 343.808612 307.584 
L 343.808612 307.584 
L 340.391196 307.584 
z
" clip-path="url(#p003c198891)" style="fill: #1f77b4"/>
   </g>
   <g id="patch_82">
    <path d="M 343.808612 307.584 
L 347.226029 307.584 
L 347.226029 307.584 
L 343.808612 307.584 
z
" clip-path="url(#p003c198891)" style="fill: #1f77b4"/>
   </g>
   <g id="patch_83">
    <path d="M 347.226029 307.584 
L 350.643445 307.584 
L 350.643445 307.584 
L 347.226029 307.584 
z
" clip-path="url(#p003c198891)" style="fill: #1f77b4"/>
   </g>
   <g id="patch_84">
    <path d="M 350.643445 307.584 
L 354.060861 307.584 
L 354.060861 307.584 
L 350.643445 307.584 
z
" clip-path="url(#p003c198891)" style="fill: #1f77b4"/>
   </g>
   <g id="patch_85">
    <path d="M 354.060861 307.584 
L 357.478278 307.584 
L 357.478278 307.584 
L 354.060861 307.584 
z
" clip-path="url(#p003c198891)" style="fill: #1f77b4"/>
   </g>
   <g id="patch_86">
    <path d="M 357.478278 307.584 
L 360.895694 307.584 
L 360.895694 307.584 
L 357.478278 307.584 
z
" clip-path="url(#p003c198891)" style="fill: #1f77b4"/>
   </g>
   <g id="patch_87">
    <path d="M 360.895694 307.584 
L 364.31311 307.584 
L 364.31311 307.584 
L 360.895694 307.584 
z
" clip-path="url(#p003c198891)" style="fill: #1f77b4"/>
   </g>
   <g id="patch_88">
    <path d="M 364.31311 307.584 
L 367.730526 307.584 
L 367.730526 307.584 
L 364.31311 307.584 
z
" clip-path="url(#p003c198891)" style="fill: #1f77b4"/>
   </g>
   <g id="patch_89">
    <path d="M 367.730526 307.584 
L 371.147943 307.584 
L 371.147943 307.584 
L 367.730526 307.584 
z
" clip-path="url(#p003c198891)" style="fill: #1f77b4"/>
   </g>
   <g id="patch_90">
    <path d="M 371.147943 307.584 
L 374.565359 307.584 
L 374.565359 307.584 
L 371.147943 307.584 
z
" clip-path="url(#p003c198891)" style="fill: #1f77b4"/>
   </g>
   <g id="patch_91">
    <path d="M 374.565359 307.584 
L 377.982775 307.584 
L 377.982775 307.584 
L 374.565359 307.584 
z
" clip-path="url(#p003c198891)" style="fill: #1f77b4"/>
   </g>
   <g id="patch_92">
    <path d="M 377.982775 307.584 
L 381.400191 307.584 
L 381.400191 307.584 
L 377.982775 307.584 
z
" clip-path="url(#p003c198891)" style="fill: #1f77b4"/>
   </g>
   <g id="patch_93">
    <path d="M 381.400191 307.584 
L 384.817608 307.584 
L 384.817608 307.584 
L 381.400191 307.584 
z
" clip-path="url(#p003c198891)" style="fill: #1f77b4"/>
   </g>
   <g id="patch_94">
    <path d="M 384.817608 307.584 
L 388.235024 307.584 
L 388.235024 307.584 
L 384.817608 307.584 
z
" clip-path="url(#p003c198891)" style="fill: #1f77b4"/>
   </g>
   <g id="patch_95">
    <path d="M 388.235024 307.584 
L 391.65244 307.584 
L 391.65244 307.584 
L 388.235024 307.584 
z
" clip-path="url(#p003c198891)" style="fill: #1f77b4"/>
   </g>
   <g id="patch_96">
    <path d="M 391.65244 307.584 
L 395.069856 307.584 
L 395.069856 307.584 
L 391.65244 307.584 
z
" clip-path="url(#p003c198891)" style="fill: #1f77b4"/>
   </g>
   <g id="patch_97">
    <path d="M 395.069856 307.584 
L 398.487273 307.584 
L 398.487273 307.565312 
L 395.069856 307.565312 
z
" clip-path="url(#p003c198891)" style="fill: #1f77b4"/>
   </g>
   <g id="matplotlib.axis_1">
    <g id="xtick_1">
     <g id="line2d_1">
      <defs>
       <path id="m0adb293e8b" d="M 0 0 
L 0 3.5 
" style="stroke: #000000; stroke-width: 0.8"/>
      </defs>
      <g>
       <use xlink:href="#m0adb293e8b" x="73.798696" y="307.584" style="stroke: #000000; stroke-width: 0.8"/>
      </g>
     </g>
     <g id="text_1">
      <!-- 0 -->
      <g transform="translate(70.649478 322.074625) scale(0.1 -0.1)">
       <defs>
        <path id="IPAexGothic-30" d="M 2038 4725 
Q 2881 4725 3334 3944 
Q 3694 3325 3694 2344 
Q 3694 1372 3334 741 
Q 2888 -31 2016 -31 
Q 1147 -31 700 741 
Q 341 1372 341 2350 
Q 341 3713 1000 4334 
Q 1419 4725 2038 4725 
z
M 2016 4266 
Q 1516 4266 1228 3759 
Q 934 3247 934 2344 
Q 934 1456 1222 947 
Q 1513 447 2016 447 
Q 2619 447 2909 1153 
Q 3100 1622 3100 2375 
Q 3100 3256 2806 3759 
Q 2509 4266 2016 4266 
z
" transform="scale(0.015625)"/>
       </defs>
       <use xlink:href="#IPAexGothic-30"/>
      </g>
     </g>
    </g>
    <g id="xtick_2">
     <g id="line2d_2">
      <g>
       <use xlink:href="#m0adb293e8b" x="141.860446" y="307.584" style="stroke: #000000; stroke-width: 0.8"/>
      </g>
     </g>
     <g id="text_2">
      <!-- 2000 -->
      <g transform="translate(129.263571 322.074625) scale(0.1 -0.1)">
       <defs>
        <path id="IPAexGothic-32" d="M 3659 63 
L 447 63 
L 447 594 
Q 825 1475 1894 2203 
L 2072 2322 
Q 2619 2697 2791 2906 
Q 2988 3153 2988 3444 
Q 2988 3772 2756 4003 
Q 2500 4259 2084 4259 
Q 1250 4259 991 3328 
L 497 3506 
Q 853 4725 2116 4725 
Q 2806 4725 3216 4316 
Q 3575 3947 3575 3425 
Q 3575 3038 3344 2722 
Q 3131 2416 2366 1938 
L 2231 1856 
Q 1256 1253 978 569 
L 3659 569 
L 3659 63 
z
" transform="scale(0.015625)"/>
       </defs>
       <use xlink:href="#IPAexGothic-32"/>
       <use xlink:href="#IPAexGothic-30" x="62.988281"/>
       <use xlink:href="#IPAexGothic-30" x="125.976562"/>
       <use xlink:href="#IPAexGothic-30" x="188.964844"/>
      </g>
     </g>
    </g>
    <g id="xtick_3">
     <g id="line2d_3">
      <g>
       <use xlink:href="#m0adb293e8b" x="209.922196" y="307.584" style="stroke: #000000; stroke-width: 0.8"/>
      </g>
     </g>
     <g id="text_3">
      <!-- 4000 -->
      <g transform="translate(197.325321 322.074625) scale(0.1 -0.1)">
       <defs>
        <path id="IPAexGothic-34" d="M 3813 1159 
L 3059 1159 
L 3059 63 
L 2547 63 
L 2547 1159 
L 197 1159 
L 197 1672 
L 2456 4678 
L 3059 4678 
L 3059 1634 
L 3813 1634 
L 3813 1159 
z
M 2578 4109 
L 2559 4109 
Q 2278 3656 2003 3284 
L 759 1634 
L 2547 1634 
L 2547 3144 
Q 2547 3481 2578 4109 
z
" transform="scale(0.015625)"/>
       </defs>
       <use xlink:href="#IPAexGothic-34"/>
       <use xlink:href="#IPAexGothic-30" x="62.988281"/>
       <use xlink:href="#IPAexGothic-30" x="125.976562"/>
       <use xlink:href="#IPAexGothic-30" x="188.964844"/>
      </g>
     </g>
    </g>
    <g id="xtick_4">
     <g id="line2d_4">
      <g>
       <use xlink:href="#m0adb293e8b" x="277.983945" y="307.584" style="stroke: #000000; stroke-width: 0.8"/>
      </g>
     </g>
     <g id="text_4">
      <!-- 6000 -->
      <g transform="translate(265.38707 322.074625) scale(0.1 -0.1)">
       <defs>
        <path id="IPAexGothic-36" d="M 1056 2328 
Q 1509 2981 2234 2981 
Q 2906 2981 3316 2513 
Q 3675 2106 3675 1522 
Q 3675 884 3272 434 
Q 2853 -31 2178 -31 
Q 1375 -31 922 581 
Q 481 1178 481 2228 
Q 481 3425 1013 4109 
Q 1494 4725 2272 4725 
Q 3191 4725 3609 4025 
L 3150 3775 
Q 2894 4266 2300 4266 
Q 1119 4266 1031 2328 
L 1056 2328 
z
M 2141 2547 
Q 1684 2547 1384 2206 
Q 1116 1900 1116 1541 
Q 1116 1156 1353 844 
Q 1672 428 2159 428 
Q 2669 428 2941 844 
Q 3125 1128 3125 1503 
Q 3125 1944 2881 2228 
Q 2600 2547 2141 2547 
z
" transform="scale(0.015625)"/>
       </defs>
       <use xlink:href="#IPAexGothic-36"/>
       <use xlink:href="#IPAexGothic-30" x="62.988281"/>
       <use xlink:href="#IPAexGothic-30" x="125.976562"/>
       <use xlink:href="#IPAexGothic-30" x="188.964844"/>
      </g>
     </g>
    </g>
    <g id="xtick_5">
     <g id="line2d_5">
      <g>
       <use xlink:href="#m0adb293e8b" x="346.045695" y="307.584" style="stroke: #000000; stroke-width: 0.8"/>
      </g>
     </g>
     <g id="text_5">
      <!-- 8000 -->
      <g transform="translate(333.44882 322.074625) scale(0.1 -0.1)">
       <defs>
        <path id="IPAexGothic-38" d="M 2541 2425 
Q 3700 2031 3700 1197 
Q 3700 541 3100 197 
Q 2663 -56 2016 -56 
Q 1366 -56 928 197 
Q 347 531 347 1178 
Q 347 1988 1409 2381 
L 1409 2400 
Q 481 2734 481 3509 
Q 481 4100 981 4456 
Q 1406 4756 2019 4756 
Q 2703 4756 3131 4403 
Q 3553 4069 3553 3566 
Q 3553 2706 2541 2444 
L 2541 2425 
z
M 2022 2625 
Q 2997 2856 2997 3528 
Q 2997 3916 2675 4150 
Q 2413 4347 2016 4347 
Q 1606 4347 1331 4128 
Q 1050 3897 1050 3522 
Q 1050 3150 1350 2925 
Q 1494 2809 1722 2722 
Q 1984 2616 2022 2625 
z
M 1978 2209 
Q 922 1931 922 1216 
Q 922 775 1313 556 
Q 1606 391 2009 391 
Q 2575 391 2881 697 
Q 3106 922 3106 1250 
Q 3106 1594 2794 1850 
Q 2609 1994 2350 2100 
Q 2047 2222 1978 2209 
z
" transform="scale(0.015625)"/>
       </defs>
       <use xlink:href="#IPAexGothic-38"/>
       <use xlink:href="#IPAexGothic-30" x="62.988281"/>
       <use xlink:href="#IPAexGothic-30" x="125.976562"/>
       <use xlink:href="#IPAexGothic-30" x="188.964844"/>
      </g>
     </g>
    </g>
    <g id="xtick_6">
     <g id="line2d_6">
      <g>
       <use xlink:href="#m0adb293e8b" x="414.107444" y="307.584" style="stroke: #000000; stroke-width: 0.8"/>
      </g>
     </g>
     <g id="text_6">
      <!-- 10000 -->
      <g transform="translate(398.361351 322.074625) scale(0.1 -0.1)">
       <defs>
        <path id="IPAexGothic-31" d="M 2463 63 
L 1900 63 
L 1900 4103 
Q 1372 3922 788 3797 
L 684 4231 
Q 1519 4441 2106 4731 
L 2463 4731 
L 2463 63 
z
" transform="scale(0.015625)"/>
       </defs>
       <use xlink:href="#IPAexGothic-31"/>
       <use xlink:href="#IPAexGothic-30" x="62.988281"/>
       <use xlink:href="#IPAexGothic-30" x="125.976562"/>
       <use xlink:href="#IPAexGothic-30" x="188.964844"/>
       <use xlink:href="#IPAexGothic-30" x="251.953125"/>
      </g>
     </g>
    </g>
    <g id="text_7">
     <!-- word frequency -->
     <g transform="translate(199.656875 335.543375) scale(0.1 -0.1)">
      <defs>
       <path id="IPAexGothic-77" d="M 4772 3250 
L 3666 6 
L 3281 6 
L 2609 1919 
Q 2509 2203 2413 2622 
L 2394 2622 
Q 2322 2319 2188 1919 
L 1534 6 
L 1150 6 
L 44 3250 
L 619 3250 
L 1156 1491 
Q 1206 1331 1363 753 
L 1381 753 
Q 1475 1125 1594 1491 
L 2169 3250 
L 2656 3250 
L 3256 1491 
Q 3347 1244 3469 753 
L 3488 753 
Q 3591 1184 3684 1491 
L 4216 3250 
L 4772 3250 
z
" transform="scale(0.015625)"/>
       <path id="IPAexGothic-6f" d="M 1919 3341 
Q 2594 3341 3056 2888 
Q 3531 2413 3531 1638 
Q 3531 888 3066 422 
Q 2609 -31 1919 -31 
Q 1228 -31 781 416 
Q 313 881 313 1656 
Q 313 2413 788 2888 
Q 1241 3341 1919 3341 
z
M 1919 2919 
Q 1519 2919 1241 2631 
Q 888 2278 888 1650 
Q 888 1031 1234 684 
Q 1516 403 1919 403 
Q 2331 403 2609 691 
Q 2956 1038 2956 1672 
Q 2956 2269 2603 2631 
Q 2316 2919 1919 2919 
z
" transform="scale(0.015625)"/>
       <path id="IPAexGothic-72" d="M 2309 3316 
L 2213 2769 
Q 2106 2791 2022 2791 
Q 1653 2791 1413 2444 
Q 1113 2006 1113 1675 
L 1113 63 
L 563 63 
L 563 3250 
L 1081 3250 
L 1056 2303 
L 1069 2303 
Q 1422 3341 2097 3341 
Q 2206 3341 2309 3316 
z
" transform="scale(0.015625)"/>
       <path id="IPAexGothic-64" d="M 3391 63 
L 2891 63 
L 2891 619 
Q 2441 -31 1753 -31 
Q 1181 -31 788 372 
Q 313 844 313 1663 
Q 313 2466 772 2938 
Q 1169 3341 1753 3341 
Q 2384 3341 2847 2809 
L 2847 4794 
L 3391 4794 
L 3391 63 
z
M 2847 1303 
L 2847 2097 
Q 2847 2413 2456 2706 
Q 2181 2906 1853 2906 
Q 1484 2906 1228 2650 
Q 888 2309 888 1678 
Q 888 1109 1169 750 
Q 1441 409 1847 409 
Q 2322 409 2656 875 
Q 2847 1134 2847 1303 
z
" transform="scale(0.015625)"/>
       <path id="IPAexGothic-20" transform="scale(0.015625)"/>
       <path id="IPAexGothic-66" d="M 2456 4622 
L 2228 4244 
Q 1991 4422 1741 4422 
Q 1184 4422 1184 3672 
L 1184 3250 
L 2053 3250 
L 2053 2859 
L 1184 2859 
L 1184 63 
L 641 63 
L 641 2859 
L 122 2859 
L 122 3250 
L 641 3250 
L 641 3659 
Q 641 4188 891 4484 
Q 1200 4844 1709 4844 
Q 2116 4844 2456 4622 
z
" transform="scale(0.015625)"/>
       <path id="IPAexGothic-65" d="M 863 1594 
Q 891 1041 1209 722 
Q 1534 397 1997 397 
Q 2606 397 2963 966 
L 3322 728 
Q 2869 -31 1931 -31 
Q 1222 -31 766 422 
Q 306 884 306 1641 
Q 306 2444 788 2925 
Q 1216 3353 1856 3353 
Q 2459 3353 2866 2956 
Q 3322 2494 3322 1722 
L 3322 1594 
L 863 1594 
z
M 2756 1997 
Q 2709 2431 2450 2681 
Q 2194 2938 1844 2938 
Q 1438 2938 1150 2591 
Q 953 2356 894 1997 
L 2756 1997 
z
" transform="scale(0.015625)"/>
       <path id="IPAexGothic-71" d="M 3397 -1216 
L 2847 -1216 
L 2847 556 
Q 2441 -31 1759 -31 
Q 1181 -31 788 372 
Q 313 844 313 1656 
Q 313 2450 788 2925 
Q 1203 3341 1803 3341 
Q 2472 3341 2903 2803 
L 2981 3275 
L 3397 3275 
L 3397 -1216 
z
M 2847 1278 
L 2847 2091 
Q 2847 2272 2650 2509 
Q 2319 2906 1869 2906 
Q 1406 2906 1131 2516 
Q 888 2175 888 1672 
Q 888 1116 1169 756 
Q 1447 409 1853 409 
Q 2334 409 2669 875 
Q 2847 1131 2847 1278 
z
" transform="scale(0.015625)"/>
       <path id="IPAexGothic-75" d="M 3284 63 
L 2772 63 
L 2772 644 
Q 2300 0 1625 0 
Q 1072 0 763 375 
Q 519 678 519 1241 
L 519 3250 
L 1069 3250 
L 1069 1259 
Q 1069 466 1734 466 
Q 2406 466 2734 1291 
L 2734 3250 
L 3284 3250 
L 3284 63 
z
" transform="scale(0.015625)"/>
       <path id="IPAexGothic-6e" d="M 3328 63 
L 2778 63 
L 2778 2041 
Q 2778 2853 2106 2853 
Q 1428 2853 1113 2041 
L 1113 63 
L 563 63 
L 563 3250 
L 1075 3250 
L 1075 2675 
Q 1525 3316 2222 3316 
Q 3328 3316 3328 2072 
L 3328 63 
z
" transform="scale(0.015625)"/>
       <path id="IPAexGothic-63" d="M 3269 784 
Q 2834 -31 1900 -31 
Q 1228 -31 788 409 
Q 313 891 313 1663 
Q 313 2428 788 2913 
Q 1222 3347 1881 3347 
Q 2813 3347 3206 2541 
L 2763 2309 
Q 2484 2900 1900 2900 
Q 1516 2900 1234 2619 
Q 881 2266 881 1650 
Q 881 1069 1222 728 
Q 1522 428 1956 428 
Q 2547 428 2847 1016 
L 3269 784 
z
" transform="scale(0.015625)"/>
       <path id="IPAexGothic-79" d="M 3122 3250 
L 1575 -488 
Q 1278 -1203 550 -1203 
L 478 -1203 
L 344 -703 
L 447 -703 
Q 969 -703 1150 -238 
L 1356 275 
L 38 3250 
L 659 3250 
L 1363 1459 
Q 1528 1025 1606 781 
L 1625 781 
Q 1750 1169 1863 1459 
L 2528 3250 
L 3122 3250 
z
" transform="scale(0.015625)"/>
      </defs>
      <use xlink:href="#IPAexGothic-77"/>
      <use xlink:href="#IPAexGothic-6f" x="75.195312"/>
      <use xlink:href="#IPAexGothic-72" x="135.595703"/>
      <use xlink:href="#IPAexGothic-64" x="172.607422"/>
      <use xlink:href="#IPAexGothic-20" x="235.009766"/>
      <use xlink:href="#IPAexGothic-66" x="262.011719"/>
      <use xlink:href="#IPAexGothic-72" x="292.626953"/>
      <use xlink:href="#IPAexGothic-65" x="329.638672"/>
      <use xlink:href="#IPAexGothic-71" x="386.523438"/>
      <use xlink:href="#IPAexGothic-75" x="448.730469"/>
      <use xlink:href="#IPAexGothic-65" x="509.130859"/>
      <use xlink:href="#IPAexGothic-6e" x="566.015625"/>
      <use xlink:href="#IPAexGothic-63" x="626.416016"/>
      <use xlink:href="#IPAexGothic-79" x="680.810547"/>
     </g>
    </g>
   </g>
   <g id="matplotlib.axis_2">
    <g id="ytick_1">
     <g id="line2d_7">
      <defs>
       <path id="m0b473ee31e" d="M 0 0 
L -3.5 0 
" style="stroke: #000000; stroke-width: 0.8"/>
      </defs>
      <g>
       <use xlink:href="#m0b473ee31e" x="57.6" y="307.584" style="stroke: #000000; stroke-width: 0.8"/>
      </g>
     </g>
     <g id="text_8">
      <!-- 0 -->
      <g transform="translate(44.301563 311.329312) scale(0.1 -0.1)">
       <use xlink:href="#IPAexGothic-30"/>
      </g>
     </g>
    </g>
    <g id="ytick_2">
     <g id="line2d_8">
      <g>
       <use xlink:href="#m0b473ee31e" x="57.6" y="270.208982" style="stroke: #000000; stroke-width: 0.8"/>
      </g>
     </g>
     <g id="text_9">
      <!-- 2000 -->
      <g transform="translate(25.40625 273.954294) scale(0.1 -0.1)">
       <use xlink:href="#IPAexGothic-32"/>
       <use xlink:href="#IPAexGothic-30" x="62.988281"/>
       <use xlink:href="#IPAexGothic-30" x="125.976562"/>
       <use xlink:href="#IPAexGothic-30" x="188.964844"/>
      </g>
     </g>
    </g>
    <g id="ytick_3">
     <g id="line2d_9">
      <g>
       <use xlink:href="#m0b473ee31e" x="57.6" y="232.833963" style="stroke: #000000; stroke-width: 0.8"/>
      </g>
     </g>
     <g id="text_10">
      <!-- 4000 -->
      <g transform="translate(25.40625 236.579276) scale(0.1 -0.1)">
       <use xlink:href="#IPAexGothic-34"/>
       <use xlink:href="#IPAexGothic-30" x="62.988281"/>
       <use xlink:href="#IPAexGothic-30" x="125.976562"/>
       <use xlink:href="#IPAexGothic-30" x="188.964844"/>
      </g>
     </g>
    </g>
    <g id="ytick_4">
     <g id="line2d_10">
      <g>
       <use xlink:href="#m0b473ee31e" x="57.6" y="195.458945" style="stroke: #000000; stroke-width: 0.8"/>
      </g>
     </g>
     <g id="text_11">
      <!-- 6000 -->
      <g transform="translate(25.40625 199.204257) scale(0.1 -0.1)">
       <use xlink:href="#IPAexGothic-36"/>
       <use xlink:href="#IPAexGothic-30" x="62.988281"/>
       <use xlink:href="#IPAexGothic-30" x="125.976562"/>
       <use xlink:href="#IPAexGothic-30" x="188.964844"/>
      </g>
     </g>
    </g>
    <g id="ytick_5">
     <g id="line2d_11">
      <g>
       <use xlink:href="#m0b473ee31e" x="57.6" y="158.083926" style="stroke: #000000; stroke-width: 0.8"/>
      </g>
     </g>
     <g id="text_12">
      <!-- 8000 -->
      <g transform="translate(25.40625 161.829239) scale(0.1 -0.1)">
       <use xlink:href="#IPAexGothic-38"/>
       <use xlink:href="#IPAexGothic-30" x="62.988281"/>
       <use xlink:href="#IPAexGothic-30" x="125.976562"/>
       <use xlink:href="#IPAexGothic-30" x="188.964844"/>
      </g>
     </g>
    </g>
    <g id="ytick_6">
     <g id="line2d_12">
      <g>
       <use xlink:href="#m0b473ee31e" x="57.6" y="120.708908" style="stroke: #000000; stroke-width: 0.8"/>
      </g>
     </g>
     <g id="text_13">
      <!-- 10000 -->
      <g transform="translate(19.107813 124.45422) scale(0.1 -0.1)">
       <use xlink:href="#IPAexGothic-31"/>
       <use xlink:href="#IPAexGothic-30" x="62.988281"/>
       <use xlink:href="#IPAexGothic-30" x="125.976562"/>
       <use xlink:href="#IPAexGothic-30" x="188.964844"/>
       <use xlink:href="#IPAexGothic-30" x="251.953125"/>
      </g>
     </g>
    </g>
    <g id="ytick_7">
     <g id="line2d_13">
      <g>
       <use xlink:href="#m0b473ee31e" x="57.6" y="83.333889" style="stroke: #000000; stroke-width: 0.8"/>
      </g>
     </g>
     <g id="text_14">
      <!-- 12000 -->
      <g transform="translate(19.107813 87.079202) scale(0.1 -0.1)">
       <use xlink:href="#IPAexGothic-31"/>
       <use xlink:href="#IPAexGothic-32" x="62.988281"/>
       <use xlink:href="#IPAexGothic-30" x="125.976562"/>
       <use xlink:href="#IPAexGothic-30" x="188.964844"/>
       <use xlink:href="#IPAexGothic-30" x="251.953125"/>
      </g>
     </g>
    </g>
    <g id="ytick_8">
     <g id="line2d_14">
      <g>
       <use xlink:href="#m0b473ee31e" x="57.6" y="45.958871" style="stroke: #000000; stroke-width: 0.8"/>
      </g>
     </g>
     <g id="text_15">
      <!-- 14000 -->
      <g transform="translate(19.107813 49.704183) scale(0.1 -0.1)">
       <use xlink:href="#IPAexGothic-31"/>
       <use xlink:href="#IPAexGothic-34" x="62.988281"/>
       <use xlink:href="#IPAexGothic-30" x="125.976562"/>
       <use xlink:href="#IPAexGothic-30" x="188.964844"/>
       <use xlink:href="#IPAexGothic-30" x="251.953125"/>
      </g>
     </g>
    </g>
    <g id="text_16">
     <!-- count of unique words -->
     <g transform="translate(13.207812 227.067062) rotate(-90) scale(0.1 -0.1)">
      <defs>
       <path id="IPAexGothic-74" d="M 2125 241 
Q 1769 -6 1397 -6 
Q 653 -6 653 831 
L 653 2859 
L 219 2859 
L 219 3250 
L 653 3250 
L 653 3966 
L 1178 4228 
L 1178 3250 
L 2063 3250 
L 2063 2859 
L 1178 2859 
L 1178 906 
Q 1178 416 1513 416 
Q 1738 416 1941 588 
L 2125 241 
z
" transform="scale(0.015625)"/>
       <path id="IPAexGothic-69" d="M 1178 3928 
L 550 3928 
L 550 4569 
L 1178 4569 
L 1178 3928 
z
M 1138 63 
L 588 63 
L 588 3250 
L 1138 3250 
L 1138 63 
z
" transform="scale(0.015625)"/>
       <path id="IPAexGothic-73" d="M 2234 2547 
Q 1938 2931 1484 2931 
Q 891 2931 891 2475 
Q 891 2153 1531 1944 
L 1741 1875 
Q 2650 1578 2650 894 
Q 2650 434 2272 172 
Q 1972 -31 1497 -31 
Q 766 -31 256 503 
L 603 819 
Q 997 397 1516 397 
Q 2131 397 2131 875 
Q 2131 1238 1453 1478 
L 1234 1553 
Q 378 1853 378 2431 
Q 378 2797 628 3047 
Q 928 3347 1453 3347 
Q 2156 3347 2606 2859 
L 2234 2547 
z
" transform="scale(0.015625)"/>
      </defs>
      <use xlink:href="#IPAexGothic-63"/>
      <use xlink:href="#IPAexGothic-6f" x="54.394531"/>
      <use xlink:href="#IPAexGothic-75" x="114.794922"/>
      <use xlink:href="#IPAexGothic-6e" x="175.195312"/>
      <use xlink:href="#IPAexGothic-74" x="235.595703"/>
      <use xlink:href="#IPAexGothic-20" x="270.214844"/>
      <use xlink:href="#IPAexGothic-6f" x="297.216797"/>
      <use xlink:href="#IPAexGothic-66" x="357.617188"/>
      <use xlink:href="#IPAexGothic-20" x="388.232422"/>
      <use xlink:href="#IPAexGothic-75" x="415.234375"/>
      <use xlink:href="#IPAexGothic-6e" x="475.634766"/>
      <use xlink:href="#IPAexGothic-69" x="536.035156"/>
      <use xlink:href="#IPAexGothic-71" x="563.037109"/>
      <use xlink:href="#IPAexGothic-75" x="625.244141"/>
      <use xlink:href="#IPAexGothic-65" x="685.644531"/>
      <use xlink:href="#IPAexGothic-20" x="742.529297"/>
      <use xlink:href="#IPAexGothic-77" x="769.53125"/>
      <use xlink:href="#IPAexGothic-6f" x="844.726562"/>
      <use xlink:href="#IPAexGothic-72" x="905.126953"/>
      <use xlink:href="#IPAexGothic-64" x="942.138672"/>
      <use xlink:href="#IPAexGothic-73" x="1004.541016"/>
     </g>
    </g>
   </g>
   <g id="patch_98">
    <path d="M 57.6 307.584 
L 57.6 41.472 
" style="fill: none; stroke: #000000; stroke-width: 0.8; stroke-linejoin: miter; stroke-linecap: square"/>
   </g>
   <g id="patch_99">
    <path d="M 414.72 307.584 
L 414.72 41.472 
" style="fill: none; stroke: #000000; stroke-width: 0.8; stroke-linejoin: miter; stroke-linecap: square"/>
   </g>
   <g id="patch_100">
    <path d="M 57.6 307.584 
L 414.72 307.584 
" style="fill: none; stroke: #000000; stroke-width: 0.8; stroke-linejoin: miter; stroke-linecap: square"/>
   </g>
   <g id="patch_101">
    <path d="M 57.6 41.472 
L 414.72 41.472 
" style="fill: none; stroke: #000000; stroke-width: 0.8; stroke-linejoin: miter; stroke-linecap: square"/>
   </g>
   <g id="text_17">
    <!-- [38] histogram of word frequency -->
    <g transform="translate(143.067187 35.472) scale(0.12 -0.12)">
     <defs>
      <path id="IPAexGothic-5b" d="M 1706 -991 
L 581 -991 
L 581 4750 
L 1706 4750 
L 1706 4438 
L 1028 4438 
L 1028 -678 
L 1706 -678 
L 1706 -991 
z
" transform="scale(0.015625)"/>
      <path id="IPAexGothic-33" d="M 2381 2419 
Q 3506 2216 3506 1278 
Q 3506 716 3128 356 
Q 2709 -31 1944 -31 
Q 797 -31 288 881 
L 756 1131 
Q 1109 441 1938 441 
Q 2425 441 2694 691 
Q 2950 928 2950 1291 
Q 2950 1719 2566 1978 
Q 2216 2213 1644 2213 
L 1363 2213 
L 1363 2669 
L 1656 2669 
Q 2231 2669 2534 2888 
Q 2859 3119 2859 3509 
Q 2859 3934 2494 4138 
Q 2259 4278 1931 4278 
Q 1238 4278 903 3578 
L 434 3803 
Q 897 4725 1938 4725 
Q 2597 4725 3006 4394 
Q 3416 4069 3416 3534 
Q 3416 3028 3019 2706 
Q 2763 2500 2381 2444 
L 2381 2419 
z
" transform="scale(0.015625)"/>
      <path id="IPAexGothic-5d" d="M 1322 -991 
L 197 -991 
L 197 -678 
L 875 -678 
L 875 4438 
L 197 4438 
L 197 4750 
L 1322 4750 
L 1322 -991 
z
" transform="scale(0.015625)"/>
      <path id="IPAexGothic-68" d="M 3347 63 
L 2797 63 
L 2797 2041 
Q 2797 2853 2131 2853 
Q 1447 2853 1131 2041 
L 1131 63 
L 581 63 
L 581 4794 
L 1131 4794 
L 1131 2706 
Q 1566 3316 2247 3316 
Q 3347 3316 3347 2072 
L 3347 63 
z
" transform="scale(0.015625)"/>
      <path id="IPAexGothic-67" d="M 1331 1150 
Q 1006 1122 1006 900 
Q 1006 613 1763 575 
L 2131 556 
Q 3303 497 3303 -294 
Q 3303 -700 2925 -959 
Q 2519 -1253 1794 -1253 
Q 1138 -1253 738 -1028 
Q 353 -809 353 -428 
Q 353 84 1075 247 
L 1075 269 
Q 506 413 506 778 
Q 506 1116 994 1297 
Q 456 1575 456 2181 
Q 456 2650 769 2963 
Q 1128 3322 1738 3322 
Q 2125 3322 2422 3153 
Q 2650 3453 3259 3463 
L 3259 3013 
Q 2838 3003 2703 2938 
Q 3034 2613 3034 2169 
Q 3034 1728 2734 1425 
Q 2400 1094 1813 1094 
Q 1563 1094 1331 1150 
z
M 1734 2919 
Q 1409 2919 1197 2706 
Q 988 2497 988 2181 
Q 988 1872 1184 1684 
Q 1397 1472 1756 1472 
Q 2094 1472 2297 1678 
Q 2503 1881 2503 2203 
Q 2503 2497 2297 2700 
Q 2081 2919 1734 2919 
z
M 1753 159 
Q 903 159 903 -366 
Q 903 -875 1800 -875 
Q 2378 -875 2638 -606 
Q 2772 -481 2772 -313 
Q 2772 159 1753 159 
z
" transform="scale(0.015625)"/>
      <path id="IPAexGothic-61" d="M 3156 63 
L 2672 63 
Q 2559 303 2531 556 
L 2509 556 
Q 2147 -25 1428 -25 
Q 934 -25 622 288 
Q 347 563 347 959 
Q 347 1947 2050 1997 
L 2478 2009 
L 2478 2175 
Q 2478 2509 2288 2700 
Q 2088 2900 1775 2900 
Q 1238 2900 969 2378 
L 494 2597 
Q 938 3328 1788 3328 
Q 2375 3328 2691 3000 
Q 2984 2706 2984 2169 
L 2984 997 
Q 2984 400 3156 63 
z
M 2491 1625 
L 2141 1619 
Q 903 1591 903 953 
Q 903 728 1050 581 
Q 1231 403 1525 403 
Q 1934 403 2234 703 
Q 2491 969 2491 1344 
L 2491 1625 
z
" transform="scale(0.015625)"/>
      <path id="IPAexGothic-6d" d="M 5022 63 
L 4472 63 
L 4472 2059 
Q 4472 2869 3847 2869 
Q 3550 2869 3303 2594 
Q 3128 2397 3059 2103 
L 3059 63 
L 2509 63 
L 2509 2066 
Q 2509 2869 1919 2869 
Q 1606 2869 1369 2594 
Q 1113 2306 1113 2041 
L 1113 63 
L 563 63 
L 563 3250 
L 1075 3250 
L 1075 2700 
Q 1391 3316 2028 3316 
Q 2725 3316 2956 2647 
Q 3303 3316 3953 3316 
Q 4478 3316 4772 2944 
Q 5022 2638 5022 2072 
L 5022 63 
z
" transform="scale(0.015625)"/>
     </defs>
     <use xlink:href="#IPAexGothic-5b"/>
     <use xlink:href="#IPAexGothic-33" x="29.980469"/>
     <use xlink:href="#IPAexGothic-38" x="92.96875"/>
     <use xlink:href="#IPAexGothic-5d" x="155.957031"/>
     <use xlink:href="#IPAexGothic-20" x="185.9375"/>
     <use xlink:href="#IPAexGothic-68" x="212.939453"/>
     <use xlink:href="#IPAexGothic-69" x="273.632812"/>
     <use xlink:href="#IPAexGothic-73" x="300.634766"/>
     <use xlink:href="#IPAexGothic-74" x="346.826172"/>
     <use xlink:href="#IPAexGothic-6f" x="381.445312"/>
     <use xlink:href="#IPAexGothic-67" x="441.845703"/>
     <use xlink:href="#IPAexGothic-72" x="497.363281"/>
     <use xlink:href="#IPAexGothic-61" x="534.375"/>
     <use xlink:href="#IPAexGothic-6d" x="589.355469"/>
     <use xlink:href="#IPAexGothic-20" x="676.464844"/>
     <use xlink:href="#IPAexGothic-6f" x="703.466797"/>
     <use xlink:href="#IPAexGothic-66" x="763.867188"/>
     <use xlink:href="#IPAexGothic-20" x="794.482422"/>
     <use xlink:href="#IPAexGothic-77" x="821.484375"/>
     <use xlink:href="#IPAexGothic-6f" x="896.679688"/>
     <use xlink:href="#IPAexGothic-72" x="957.080078"/>
     <use xlink:href="#IPAexGothic-64" x="994.091797"/>
     <use xlink:href="#IPAexGothic-20" x="1056.494141"/>
     <use xlink:href="#IPAexGothic-66" x="1083.496094"/>
     <use xlink:href="#IPAexGothic-72" x="1114.111328"/>
     <use xlink:href="#IPAexGothic-65" x="1151.123047"/>
     <use xlink:href="#IPAexGothic-71" x="1208.007812"/>
     <use xlink:href="#IPAexGothic-75" x="1270.214844"/>
     <use xlink:href="#IPAexGothic-65" x="1330.615234"/>
     <use xlink:href="#IPAexGothic-6e" x="1387.5"/>
     <use xlink:href="#IPAexGothic-63" x="1447.900391"/>
     <use xlink:href="#IPAexGothic-79" x="1502.294922"/>
    </g>
   </g>
  </g>
 </g>
 <defs>
  <clipPath id="p003c198891">
   <rect x="57.6" y="41.472" width="357.12" height="266.112"/>
  </clipPath>
 </defs>
</svg>
